<svg width="20" height="20" fill="none" xmlns="http://www.w3.org/2000/svg"><path d="M10 .625c-4.308 0-7.813 3.505-7.813 7.813 0 4.307 3.505 7.812 7.813 7.812s7.813-3.505 7.813-7.813C17.813 4.13 14.308.625 10 .625Zm0 14.063a6.257 6.257 0 0 1-6.25-6.25A6.257 6.257 0 0 1 10 2.188a6.257 6.257 0 0 1 6.25 6.25 6.257 6.257 0 0 1-6.25 6.25Z" fill="#fff"/><path d="M7.941 6.043c.29-.307.636-.555 1.02-.73.39-.18.817-.272 1.247-.27.547 0 1.048.13 1.505.391.451.255.835.613 1.121 1.045l1.114-.833a4.69 4.69 0 0 0-1.607-1.383 4.48 4.48 0 0 0-2.133-.513c-.64 0-1.242.124-1.805.372-.55.238-1.05.579-1.473 1.005a4.751 4.751 0 0 0-.993 1.486 4.578 4.578 0 0 0-.365 1.825c0 .648.122 1.257.365 1.825.234.554.57 1.058.993 1.485.422.426.922.768 1.473 1.006a4.45 4.45 0 0 0 1.805.371c.777 0 1.488-.17 2.133-.513a4.674 4.674 0 0 0 1.607-1.383l-1.114-.832c-.286.431-.67.789-1.12 1.044a2.99 2.99 0 0 1-1.506.39 2.94 2.94 0 0 1-1.248-.268 3.273 3.273 0 0 1-1.019-.731 3.524 3.524 0 0 1-.691-1.075 3.39 3.39 0 0 1-.256-1.32c0-.47.085-.909.256-1.319.17-.41.401-.768.691-1.075Z" fill="#fff"/></svg>