<svg width="63" height="59" fill="none" xmlns="http://www.w3.org/2000/svg"><path d="M37.61 26.812c0 .703-.62 1.274-1.385 1.274-.764 0-1.384-.57-1.384-1.274 0-.705.62-1.275 1.384-1.275.765 0 1.384.57 1.384 1.275ZM25.738 34.28c1.413.707 3.096 1.082 4.84 1.082.362 0 .727-.016 1.092-.05 1.282-.114 2.5-.42 3.62-.901.527-.23.771-.842.542-1.371a1.047 1.047 0 0 0-1.37-.542 9.582 9.582 0 0 1-2.975.74c-1.749.159-3.45-.136-4.819-.819a1.041 1.041 0 1 0-.93 1.86v.001ZM25.95 26.812c0 .703-.62 1.274-1.385 1.274-.764 0-1.384-.57-1.384-1.274 0-.705.62-1.275 1.384-1.275.765 0 1.384.57 1.384 1.275ZM25.827 24.93a1.036 1.036 0 0 0 1.386-.498 1.044 1.044 0 0 0-.495-1.388c-1.21-.569-3.079-.574-4.3-.003a1.04 1.04 0 0 0-.504 1.384c.243.521.863.75 1.384.503.66-.305 1.877-.305 2.529.003ZM38.878 24.43a1.042 1.042 0 0 0-.5-1.387c-1.217-.565-3.08-.57-4.3 0a1.04 1.04 0 0 0-.504 1.384c.243.522.863.75 1.385.503.661-.307 1.879-.307 2.535 0a1.04 1.04 0 0 0 1.384-.5Z" fill="#2D2D2D"/><path d="M62.7 57.507C59.385 45.792 49.502 45.53 46.533 45.732c-.391-.907-1.23-2.35-2.935-3.63 3.26-1.885 6.086-5.007 6.086-10.217V27.62c1.416-.433 2.46-1.663 2.46-3.162v-4.579c0-1.516-1.07-2.752-2.51-3.17C49.13 7.42 40.707 0 30.395 0 20.164 0 11.789 7.308 11.169 16.5c-1.5.412-2.609 1.726-2.609 3.297v4.74c0 1.9 1.611 3.446 3.592 3.446.575 0 1.042-.466 1.042-1.042 0-.052-.024-.097-.029-.147.008-.049.029-.093.029-.146v-9.064c0-8.548 7.715-15.502 17.202-15.502 9.487 0 17.201 6.953 17.201 15.502v14.299c0 8.475-9 10.409-12.492 10.839a2.106 2.106 0 0 0-1.723-.907h-2.843c-1.163 0-2.111.897-2.111 1.991v.16c0 1.094.951 1.99 2.11 1.99h2.844c.85 0 1.58-.487 1.913-1.175.847-.112 2-.318 3.287-.66l-7.048 6.699-9.442-8.968V39.5c.964.615 1.986 1.162 3.104 1.558a1.043 1.043 0 0 0 .698-1.965c-5.051-1.785-8.445-6.375-8.445-11.418v-12.33c2.972-.31 5.476-1.9 6.813-4.141 2.89 6.434 10.28 9.784 17.428 9.784.798 0 1.58-.107 2.364-.19v9.724c0 4.305-2.507 6.862-8.384 8.553a1.042 1.042 0 1 0 .576 2.004c4.248-1.22 9.896-3.643 9.896-10.555V19.722c0-.034-.015-.062-.02-.096-.003-.042.01-.078.005-.12-.01-.058-.042-.102-.06-.157-.008-.018-.013-.036-.021-.051-.183-.446-.649-.735-1.116-.652-8.2 1.347-18.02-2.486-19.623-11.011 0-.016.005-.032.005-.047 0-.576-.469-1.043-1.042-1.043-.573 0-1.042.467-1.042 1.043 0 3.182-3.06 5.77-6.818 5.77-.576 0-1.042.466-1.042 1.042V27.68c0 3.925 1.761 7.587 4.642 10.232v3.808c-2.073 1.357-3.04 3.018-3.472 4.018-2.971-.2-12.85.063-16.164 11.776a1.042 1.042 0 1 0 2.005.568C5.484 47.095 14.9 47.614 16.757 47.84l10.347 10.018c.216.208.51.307.802.292.297-.021.571-.17.75-.407l2.877-3.771 2.883 3.765a1.042 1.042 0 0 0 1.553.115l10.344-10.018c1.845-.222 11.27-.743 14.381 10.242a1.043 1.043 0 0 0 1.288.72c.55-.157.873-.733.716-1.288h.002Zm-52.052-32.97v-4.74c0-.383.177-.728.461-.975v6.69a1.291 1.291 0 0 1-.461-.974Zm39.409-.08c0 .328-.148.62-.375.847V19.03c.227.227.375.52.375.847v4.58ZM27.709 55.539l-9.268-8.976c.287-.675.988-1.882 2.492-2.937l9.205 8.741-2.43 3.172Zm7.65 0-2.43-3.172 9.208-8.742c1.502 1.056 2.202 2.263 2.49 2.938l-9.269 8.976Z" fill="#2D2D2D"/></svg>