<svg width="945" height="944" fill="none" xmlns="http://www.w3.org/2000/svg"><path fill="#FBFAF3" d="M0 0h945v944H0z"/><mask id="mask0_1_44" style="mask-type:alpha" maskUnits="userSpaceOnUse" x="0" y="0" width="945" height="944"><path fill="#FBFAF3" d="M0 0h945v944H0z"/></mask><g mask="url('#mask0_1_44')"><path d="M-91.116 842.005c-2.195-5.617-2.439-11.601-2.56-17.341.975-1.343 2.194-1.587 3.17-.977 5.488 3.42 11.342 6.351 16.465 10.503.731.61 1.341 1.221 1.95 1.832 1.952 2.442 2.074 4.64.489 7.449-.732 1.099-1.464 2.198-2.317 3.297-.854 1.099-1.708 2.076-2.318 2.931-2.317.977-4.756.733-6.708 2.076-1.829 1.221-.487 4.03-3.049 5.496-2.927-.123-5-2.443-7.439-4.519-.61-3.786-1.098-7.571 2.317-10.747Zm-207.453-15.631c-1.708-1.099-3.293-2.32-5.001-3.419-5.488-3.298-7.683-2.687-10.854 2.808-.366.733-.366 1.71-.61 2.443 1.585 2.931 4.147 4.274 6.586 5.862 2.561 1.709 5.366 3.053 8.049 4.64.61 1.588-.366 3.297.61 4.641 6.464 6.228 7.683 6.716 18.904 9.037 1.585.244 3.049.855 4.268-.733-.488-6.35-3.902-10.258-15.976-17.83-.61-3.419-3.049-5.617-5.976-7.449Zm110.861 183.666c-2.317-1.34-4.512-2.93-7.074-3.9-5.244-1.96-10.732 2.19-10.366 7.81.244 4.15 1.585 7.94 5.366 10.38 1.707 1.1 3.293 2.32 5 3.42 3.781 2.57 7.806 2.08 11.587.49 3.658-1.47 5-5.37 3.78-9.04-.731-2.2-1.829-4.15-3.659-5.49-1.585-1.22-3.292-2.32-5-3.54.244.12.244 0 .366-.13Zm309.046-309.084c-1.097 4.519.488 7.938 4.025 10.625 1.098.855 2.195 1.587 3.293 2.32 6.464 4.763 9.269 5.862 15.489-2.32.244-.366.244-.855.488-1.588-.854-2.931-1.464-6.106-.732-9.037-3.171-5.373-7.44-5.983-11.952-4.518-2.927-1.099-4.879-3.542-8.416-2.687-1.585 2.321-1.585 4.885-2.195 7.205ZM21.575 980.124c0 4.274 2.195 6.96 5.732 9.159 4.147 2.564 8.781 4.396 12.684 7.449 1.585 1.221 3.78 1.465 5.61 0 .854-3.542.854-3.542-1.22-7.449-.121-.367-.121-.855-.121-1.222.731-1.099 2.073-1.831 1.463-4.518-3.903-4.763-9.513-8.548-16.22-10.747-2.196-.732-4.147.122-5.245 1.954-1.098 1.71-1.707 3.664-2.561 5.496l-.122-.122Zm-50.491-142.149c-.122-2.198-1.22-3.297-2.44-4.274-1.95-1.465-3.902-2.931-5.975-4.274-4.635-3.053-8.416-3.053-13.05 0-3.659 2.442-5.488 8.793-1.22 11.968 4.269 3.175 8.293 6.839 14.27 9.281 3.17-4.518 6.585-8.304 8.415-12.701Zm-36.832 129.326c2.439 1.099 5 1.099 6.83-1.099 2.439-2.809 4.878-5.74 5.854-9.403-4.879-7.45-11.83-10.747-19.392-9.159-1.951 3.297-3.415 6.96-4.025 11.723 3.05 3.664 6.586 6.106 10.733 7.938Zm-160.255-144.713c-3.415-5.739-8.05-10.136-14.026-13.067-1.951-.977-3.902-.977-5.488.977-.976 2.076-.732 4.397-.854 6.595-.122 2.687.732 4.885 2.44 6.717 4.024 4.274 8.659 7.571 13.537 9.769 2.317-.488 3.537-1.465 5.122-2.809-.365-2.93.854-5.617-.731-8.182ZM59.992 621.212c.366-1.954-.121-3.664-1.463-5.007-3.293-3.053-6.586-6.106-11.099-6.961-2.317.855-3.902 2.442-5.488 4.03-1.463 1.588-1.951 3.419-1.707 5.618.488 3.297 2.317 5.861 5.122 7.571 3.537 2.198 6.464 5.74 11.708 4.274 1.952-3.297 2.318-6.472 2.927-9.525Zm-54.15-33.217c-4.634 2.565-7.927 6.228-10 10.869 8.049 9.525 12.44 10.136 22.684 6.472.122-9.281-4.512-14.41-12.684-17.341ZM123.533 751.27c.732 3.297 1.952 6.472 4.757 8.671 2.317 1.709 4.634 3.419 7.196 5.006 2.805 1.71 5.732 2.199 9.025.733 1.829-5.007-2.44-7.938-3.903-11.601-2.195-5.374-7.074-7.694-12.318-10.014-3.415 1.71-5.366 3.908-4.757 7.205Zm-399.784 2.32 10.977 7.694c.731.488 1.585.855 2.439 1.099 2.683.855 5.976-.366 7.561-2.931 1.22-2.076.976-4.641-1.219-6.594-4.513-3.908-9.147-7.938-15.855-8.915-2.317 1.709-5.366 2.686-5.976 5.984.122 1.954.976 2.931 2.073 3.663ZM41.333 906.485c2.195.611 4.268-1.099 3.902-3.297-.853-4.641-1.951-9.281-6.464-11.968-1.707-.977-3.293-2.32-5-3.419-4.025-2.321-6.464-1.832-9.39 1.709-2.074 2.443-1.952 5.007.365 7.083 1.463 1.344 3.293 2.321 4.878 3.542 3.537 2.686 7.318 5.007 11.709 6.35Zm3.536-27.111c-.853-.244-1.829-.244-2.683-.244-2.317.244-4.39.855-5.488 3.297-1.098 2.687-.488 5.007 1.585 6.717 2.684 2.32 5.733 4.396 8.66 6.472 1.463.977 3.049 2.076 5.488 1.588 2.805-1.71 4.756-4.519 5.976-8.671-3.537-4.396-8.05-7.327-13.538-9.159Zm-154.035 173.776c-3.171-4.03-7.196-6.72-11.708-8.55-2.439-.97-4.513-.24-5.61 2.08-1.342 2.56-2.195 5.37-1.464 8.91 4.269 3.79 8.538 7.94 15.245 7.7 2.44-3.06 3.537-6.35 3.537-10.14Zm130.741-72.904c-4.512-6.839-11.342-10.503-18.782-13.067-1.463-.489-3.049-.367-4.512 1.221-.976 2.565-.976 5.373 0 8.671 2.56 2.686 5.976 4.762 9.269 6.96 2.073 1.344 4.146 1.344 6.342.245 2.56-1.344 5.122-2.687 7.683-4.03 0 0 0-.122 0 0Zm34.759-282.465c.365-1.954-.488-3.053-1.586-3.785-2.44-1.832-5.122-3.664-7.561-5.496-2.927-2.198-6.098-2.32-9.513-1.099-4.757 1.71-5.976 6.595-2.196 9.892 2.684 2.32 5.367 4.64 9.27 5.617 3.658-2.32 8.293-2.442 11.586-5.129Zm120.008 26.867c4.757 5.495 10.976 8.182 18.05 8.915 3.049.244 4.757-2.687 3.293-5.496-2.439-4.885-8.903-9.892-15.123-11.357-2.683 1.343-5 3.297-6.83 6.228.366.855.366 1.343.61 1.71Zm-50.979 49.703c-2.317-3.908-2.317-3.908-6.586-6.839-6.342-4.396-7.561-4.274-13.172 1.221-.244.244-.365.855-.609 1.221-.122 2.565.487 5.007 2.439 6.595 2.927 2.442 5.732 5.007 9.757 5.984 3.902-1.71 6.585-4.519 8.171-8.182Zm-390.637 222.015c3.049 4.764 7.073 8.674 12.196 11.234 2.073 1.1 3.902.61 5.488-.98 2.683-2.8 2.683-5.49-.244-8.056-4.269-3.664-8.781-6.839-13.66-9.526-1.219-.61-2.439-.977-4.512-.244-1.342 2.565-.61 5.251.732 7.572Zm45.735-23.325c-4.147-2.809-7.562-7.205-13.294-6.473-2.195 4.397-2.195 4.397-2.317 8.915 5.488 6.595 12.562 9.403 21.709 8.06-.854-5.618-1.586-7.449-6.098-10.502Zm194.403 90.129c-.122 2.44 1.22 3.78 2.684 4.76 3.049 2.07 5.732 5.13 9.512 5.37 2.928-.73 4.391-2.81 5.976-4.64 1.464-1.83 1.464-3.78-.243-5.49-2.805-2.94-5.855-5.5-10.001-6.48-3.171 1.71-6.22 3.67-7.928 6.48ZM-390.77 698.148c1.098.732 2.195 1.587 3.293 2.32.61.366 1.097.733 1.707.977.854.366 1.586.855 2.439.977 2.196.61 4.879-.733 6.22-3.053 1.098-1.832.854-3.908-.975-5.496-4.391-4.03-9.269-7.083-15.489-6.96-1.708 0-3.171.488-3.781 2.198-.732 1.587-.366 3.175.854 4.396 1.707 1.71 3.659 3.297 5.488 4.885.244-.122.244-.244.244-.244Zm245.627 59.35c-1.951 2.32-1.951 3.542-.61 5.129 2.074 2.443 5.001 2.809 7.806 2.931 1.951 3.664 4.634 6.35 9.025 5.862 3.658-.366 7.439-1.099 10.244-4.396-2.927-4.397-6.708-7.206-11.586-8.427-1.707 1.466-3.293 2.687-4.878 4.03-4.147-1.465-6.22-4.885-10.001-5.129Zm-144.888 68.754c-1.586 2.687-1.22 4.518 1.219 6.472 1.708 1.466 3.781 2.321 5.976 2.809 4.391.977 8.903 1.221 13.05 3.175 1.22.611 2.683.489 3.659-1.343-1.83-4.885-6.586-6.839-10.489-9.648-3.049-2.198-5.732-5.129-10.732-4.64-.976 1.099-1.952 2.076-2.683 3.175Zm497.962-75.959c.122.611.244 1.343.609 1.832 4.391 5.74 10.611 7.205 17.319 7.327 1.951 0 3.171-1.587 3.781-3.297.731-1.832.365-3.542-1.22-4.885-1.829-1.588-3.781-3.175-6.83-3.664-3.781 2.931-8.537 1.344-13.293 1.344-.244.977-.366 1.221-.366 1.343Zm-510.402-175.975a11.107 11.107 0 0 0 2.195-2.565c1.22-1.71 1.098-3.541-.366-4.885-2.683-2.32-5.244-4.885-9.269-5.007-2.683 1.344-5.244 2.565-6.708 5.74 1.952 4.763 6.22 6.594 10.977 8.793 1.463-.855 2.439-1.466 3.171-2.076Zm-116.716 209.436a4.326 4.326 0 0 0 1.464 3.664c2.805 2.564 5.488 5.251 9.025 5.984 2.561-.611 3.415-2.077 4.268-3.664 1.098-2.076.854-4.03-.731-5.618-3.049-3.053-6.22-5.861-10.733-6.472-2.805 1.588-3.171 3.908-3.293 6.106Zm122.448-254.01c-3.293-2.809-6.586-6.106-11.464-5.618-2.074 1.71-2.805 3.786-2.196 6.472 4.635 5.252 10.123 8.793 18.05 7.206.122-3.908-2.073-6.106-4.39-8.06Zm106.471-91.957c-2.683-1.099-4.879.488-5.244 3.419-.122 1.588-.244 3.175.731 4.519 2.196 3.297 5.245 5.617 9.025 6.716 3.171.977 5.854-1.953 5.123-5.129-.732-3.297-2.805-5.495-5.489-7.449-1.463-.611-2.805-1.465-4.146-2.076Zm91.226 341.571c-1.464-1.588-3.293-2.931-5.122-4.519-.122-.977-.122-2.198-.488-3.175-.854-3.786-4.391-6.472-8.294-6.228-1.341.122-2.561.977-2.561 2.931 1.098 3.419 5.001 4.518 7.196 7.205.244 7.938 1.097 9.037 8.171 10.991 2.927-3.42 3.171-4.885 1.098-7.205Zm60.248 371.492c.488-1.83.122-3.18-.976-4.15a31.612 31.612 0 0 0-3.17-2.45c-5.001-3.66-7.562-2.68-10.367.98-.732.86-1.708 1.59-1.464 3.42 2.561 3.05 6.098 5.01 10.367 6.35 1.951-1.47 4.268-2.44 5.61-4.15Zm-15.855-136.53c-1.341-1.1-3.049-1.83-5-.98-1.708 1.59-1.83 3.79-.61 5.37 3.415 4.52 7.927 7.82 13.416 9.16 1.341.37 2.683-.36 3.658-2.81-3.536-3.66-7.317-7.32-11.464-10.74Zm99.397-223.239c-2.56-1.099-5.488-1.465-8.415-.488-1.22.366-1.951 2.198-1.463 3.297 1.585 3.786 5 5.495 8.659 6.717 2.927.977 5.122-.489 7.44-2.687-.61-4.152-3.538-5.618-6.22-6.839Zm-222.82 260.359c-3.659-3.17-7.44-6.35-11.22-9.4-1.22-.98-2.806-1.47-4.391-.73-1.829.73-2.927 1.95-3.171 3.78.244 1.83 1.464 2.93 3.049 3.3 4.513 1.22 8.903 2.81 12.806 5.49.488.37 1.219.37 1.951.37s1.22-.49 1.586-1.22c-.244-.37-.244-1.22-.61-1.59ZM-8.549 932.252c2.195 1.344 4.634 2.687 7.561 1.222 1.464-3.664.61-6.595-2.56-8.793-3.537-2.565-7.196-3.175-11.343-.244.244 4.762 3.537 6.106 6.342 7.815Zm-67.078 7.328c1.586 1.587 3.537 2.808 5.854 2.808 1.22 0 2.195-.366 2.927-1.221 1.22-1.343 2.074-2.931 2.317-4.762.122-1.1-.121-2.199-.975-3.053-1.83-1.832-3.903-3.053-6.586-2.199-2.073.733-4.39.855-5.976 2.565-.732 2.687.854 4.396 2.44 5.862Zm60.004-49.093c-2.683-1.709-5.366-2.931-8.415-1.221-.976 2.565.366 4.152 1.83 5.495 3.902 3.298 8.049 5.862 13.903 6.717-.366-5.617-1.83-7.571-7.318-10.991Zm10.733 69.12c.853 1.71 2.56 2.443 4.878 1.222-.122-3.175 2.44-5.74 3.171-8.793-1.22-2.931-3.293-4.396-6.098-4.763-2.195-.244-3.78.977-5.61 3.175 1.22 3.053 2.195 6.229 3.659 9.159Zm-249.286-483.718c-3.171 1.099-5.488 3.297-6.83 6.35.854 2.442 2.317 3.663 4.635 3.419 2.683-.122 5.244-.366 8.293-.61 1.463-5.618.61-6.717-6.098-9.159Zm9.147 480.543c0 2.809 1.341 5.129 3.171 7.083 1.707 1.832 3.537 3.42 6.464 3.053.488-.366 1.097-.61 1.585-1.099.732-.855 1.22-1.832 1.83-3.053-4.757-7.816-6.708-8.67-13.05-5.984Zm50.979-249.858c.854.366 1.708.244 2.683-.366 1.464-1.832 1.22-3.786-.244-5.374-3.049-3.175-6.829-5.129-11.342-5.007-1.707 0-3.049.733-3.293 3.298 3.537 2.93 7.44 5.739 12.196 7.449Zm27.319-97.086c2.317.244 3.781-1.587 3.293-3.785-.61-3.42-3.049-5.374-5.732-6.961-2.073-1.222-4.147-.977-5.366.732-1.464 1.954-1.342 4.275.366 6.106.609.611 1.341 1.222 1.219.977 2.439 1.832 4.147 2.809 6.22 2.931Zm101.715 304.569c-1.464-1.954-3.537-3.42-5.977-4.031-1.463-.366-2.683.489-3.536 1.466-.732.855-.976 2.076-.366 3.175 2.195 4.152 5.122 7.205 10.732 7.572 1.22-3.42.732-5.984-.853-8.182Zm23.782-136.287c2.805 1.221 4.878-.244 4.878-3.419 0-1.344-.366-2.687-1.341-3.664-1.342-1.465-2.927-2.686-4.879-3.541-1.707-.733-3.293-.611-4.39.488-1.22 1.343-1.22 2.809-.61 4.396.732 1.954 2.317 3.298 4.025 4.641.731.244 1.585.733 2.317 1.099ZM-67.7 897.57a18.518 18.518 0 0 0-4.27-3.175c-2.194-1.343-4.146-.977-5.365.733-1.464 1.954-1.342 4.396.61 5.984 1.341 1.221 2.805 2.198 4.268 3.053 1.951 1.099 3.78.855 5.61-.489 1.342-2.32.732-4.396-.853-6.106Zm-152.816 73.517c2.561 1.709 5 3.785 8.293 3.908.61 0 1.098-.611 1.951-.977-.731-4.763-4.878-6.717-8.171-8.915-1.951-1.343-4.268-3.42-7.561-.977.975 3.419 3.049 5.373 5.488 6.961Zm-78.176-353.661c-2.805-.733-5.854 1.099-6.83 3.908-.61 1.71.854 3.908 3.537 5.007.853.366 1.707.61 2.561.733 2.683.366 4.878-.977 5.61-3.542.488-1.71-.366-3.664-2.927-5.251-.244-.244-1.098-.611-1.951-.855Zm415.517 248.271c2.439.61 4.512-.367 5.61-2.565.975-1.831.488-3.541-1.586-5.251-1.341-1.099-2.805-2.32-4.634-2.198-1.586.244-2.927 1.099-4.147 2.076a34.449 34.449 0 0 0-1.951 2.076c1.219 3.786 3.781 5.129 6.708 5.862Zm-244.896-31.752c-1.951 3.298-1.829 4.763.366 7.206 1.342 1.465 3.049 2.686 5.123 3.053 1.829.366 3.536 0 5.366-2.076-1.952-5.374-5.488-7.938-10.855-8.183Zm-117.203-235.692c1.342.367 2.683 0 3.537-1.221.976-1.221 1.829-2.687.975-4.274-1.463-2.687-3.658-4.397-6.829-4.641-1.952-.122-4.147 1.344-4.635 3.175-.488 1.71.488 2.931 1.708 4.03.488.367 1.097.733 2.561 1.832.366 0 1.463.733 2.683 1.099Zm43.418 330.336c1.219.733 2.683.61 3.78-.367 1.098-.977 1.342-2.32.976-3.663-.488-1.71-1.341-3.297-2.073-5.007-2.927-.733-5.61-2.32-8.781 0-.61 5.251 2.683 7.205 6.098 9.037Zm1.219-320.566c1.464 1.709 3.049 3.297 5.488 3.297 1.586 0 2.927-1.099 3.537-2.687.61-1.343.366-2.686-.731-3.663-2.196-2.32-4.757-3.908-8.66-3.297-1.097 3.785-1.097 4.518.366 6.35ZM-309.668 728.8c-2.073-2.565-4.634-4.03-8.049-3.42-1.708 3.542-1.83 4.03-.854 5.618 1.951 2.931 4.391 5.007 8.537 4.519 1.83-2.565 1.952-4.641.366-6.717ZM-181 1009.31c1.951 1.22 4.024 1.95 6.342 1.59 1.463-.25 2.439-1.22 2.805-2.57.366-1.1.122-2.19-.61-3.17-1.342-1.47-3.049-2.69-5.122-2.93-2.44-.25-4.879-.37-6.708 1.59.854 3.66 1.219 4.15 3.293 5.49Zm316.729-316.658c2.805.122 5.123-1.343 5.855-4.152-.854-2.686-2.562-4.03-4.879-4.396-2.805-.367-5.366.122-7.317 3.175.975 3.664 3.292 5.373 6.341 5.373Zm-197.453 78.035c-1.95-2.442-4.268-4.518-7.561-4.396-2.195 1.954-2.805 4.274-1.22 6.228 2.196 2.809 4.757 5.373 9.147 4.396 1.22-2.686.976-4.64-.366-6.228Zm-209.283-139.828c-1.463-4.64-4.878-7.205-9.39-8.548-1.098-.366-2.196 0-2.927 1.587.487 3.908 3.536 6.229 6.707 8.06 1.586.977 3.537 2.199 5.367.123.122-.367.365-.855.243-1.222Zm122.57 396.891c2.073.73 4.757-.61 5.61-2.56.732-1.71-.122-3.06-1.341-4.16-1.464-1.34-3.171-2.56-5.732-2.32-.488.37-1.342.74-1.952 1.35-.854.73-1.463 1.71-1.585 3.42.975 2.32 2.805 3.54 5 4.27ZM82.921 852.63c-1.464-.855-2.927-1.099-4.39-.244-1.22 1.221-1.342 2.686-.61 4.274.975 1.832 2.317 3.297 4.39 3.786 2.805.488 5.61.732 8.66 1.221-2.806-5.251-4.635-7.205-8.05-9.037Zm-255.994-70.341c1.83 1.343 3.415 2.93 5.854 2.808 1.464 0 2.561-.732 3.049-2.198.366-1.099.366-2.32-.366-3.175-1.951-2.198-4.268-3.908-7.439-3.908-1.464 0-2.683.489-3.293 1.832-.488 2.198.732 3.542 2.195 4.641Zm154.767-134.821c-1.83-1.71-3.659-3.175-6.342-3.298-1.585 0-2.927 1.466-2.683 3.053.488 2.565 2.195 4.275 4.269 5.74 1.83 1.221 3.78 2.32 6.464.855.975-2.809 0-4.763-1.708-6.35Zm-218.918 112.595c-5.122-5.007-6.707-5.007-11.464 0 1.342 3.908 4.757 4.64 8.049 5.251 2.44-1.221 3.781-2.809 3.415-5.251Zm163.06 354.027c1.708 2.08 3.66 3.91 6.587 4.15.365 0 .61-.49 1.341-.98-2.317-4.03-1.707-10.13-8.66-11.47-2.804 3.54-1.097 6.1.733 8.3Zm214.04-160.833c1.829-1.71 1.342-3.541-.122-5.251-1.341-1.588-2.805-2.931-4.878-3.175-1.708-.244-3.537-.489-5.245 1.465 2.927 5.618 4.391 6.595 10.245 6.961ZM-77.09 725.258c1.585 1.588 3.293 3.053 5.732 3.176 1.22 0 2.073-.611 2.683-1.71.61-1.099.732-2.32 0-3.175-2.44-3.053-5.123-5.618-9.879-4.763-.244 3.786-.122 4.885 1.463 6.472Zm51.1-36.269c1.342-.122 2.562-1.466 2.318-2.687-.61-3.175-4.269-6.472-7.44-6.717-1.22-.122-2.195.489-2.805 1.466-.731.977-.853 2.198-.244 3.175.732 1.099 1.708 2.076 2.196 2.564 2.073 1.344 3.78 2.443 5.976 2.199Zm-164.035-106.123c.366 2.076 1.829 3.541 3.537 4.641 1.707 1.099 3.536 2.076 5.488.854 1.707-5.129.122-7.205-6.952-9.647-1.829 1.099-2.439 2.442-2.073 4.152Zm343.683 331.801c-1.22-1.954-3.049-3.297-5.367-3.663-1.219-.123-2.195.244-2.927 1.221-.731.977-.853 2.198-.244 3.175 1.708 3.175 4.025 5.251 8.05 5.251 1.829-2.198 1.585-4.152.488-5.984Zm-441.495-57.03c-1.22-1.343-2.561-2.443-4.513-2.565-1.097 0-2.195.367-2.805 1.466.61 3.785 1.586 5.373 4.879 7.205 1.707.977 3.537 2.198 5.488.122.488-2.809-1.342-4.396-3.049-6.228Zm175.134-42.01c.122 2.443 1.83 4.03 4.025 4.641 1.829.488 3.537.366 4.513-2.076-.976-3.297-1.586-6.961-5.855-8.793-2.561 1.71-2.805 4.03-2.683 6.228Zm33.905 131.524c-1.341-1.832-3.293-2.931-5.61-3.175-1.098-.122-2.195.122-2.927 1.099-.976 1.221-.976 2.565-.122 3.664 2.073 3.053 4.634 5.251 8.903 4.762 1.098-2.686.854-4.64-.244-6.35Zm-17.196 72.049c-1.708-1.46-3.415-3.05-5.854-2.81-2.074.25-3.537 2.69-2.683 4.52.975 2.2 2.927 3.42 5 4.4 1.707.85 3.537.73 5.122-.86.732-1.95 0-3.78-1.585-5.25Zm44.759 100.26c1.707 2.57 3.415 5.13 5.244 7.57.732.98 1.952.98 2.805-.12.122-8.06-1.341-10.01-8.049-9.77 0 1.1-.244 1.96 0 2.32Zm27.075-310.183c-1.341-1.587-2.927-2.686-5-2.809-1.098-.122-2.195.245-3.05 1.588-.609 4.763 3.172 6.472 7.074 8.426 2.684-3.297 2.927-5.007.976-7.205Zm-205.624 121.266c1.463.977 3.171 1.709 5 1.343 1.342-.244 2.439-.977 2.927-2.442.366-1.222 0-2.199-.731-3.053-1.22-1.344-2.684-2.443-4.513-2.565-1.829-.244-3.537.244-5 2.32.853 3.298.975 3.542 2.317 4.397Zm435.031-226.289c-.732 3.541 1.585 4.762 3.414 6.228 3.781 2.931 5.245 3.175 9.269 1.832-3.171-4.519-7.317-6.717-12.683-8.06Zm-520.525 234.837c2.195 1.344 2.927 1.099 5.61-1.465-.244-2.321-1.829-3.908-3.659-5.129-1.463-.977-3.049-1.832-4.878-.977-.976 3.663-.244 5.495 2.927 7.571Zm160.377-195.148c-.975-1.588-2.317-2.687-4.024-3.175-1.098-.367-2.196-.367-3.171.488-.976.855-1.22 1.954-.854 3.053 1.219 3.664 3.659 5.74 8.049 6.106.854-4.396.854-5.129 0-6.472Zm85.86 320.567c2.317 1.71 4.634 3.42 7.805 1.95.61-3.05-1.707-4.03-3.293-5.25-2.195-1.59-4.39-3.78-7.805-2.56-.61 2.93 1.463 4.52 3.293 5.86ZM-238.2 551.481c-1.464-.366-3.049.611-3.781 2.076-.61 1.343-.366 2.565.61 3.664 1.097 1.099 2.317 2.076 4.024 2.076 1.952 0 3.171-1.221 4.635-3.175-1.098-2.809-3.049-4.03-5.488-4.641Zm-113.789 353.905c-1.829-.855-3.781-1.832-5.61.122-.61 2.565 1.342 3.664 3.049 4.641 2.439 1.343 5 2.931 8.171 1.587-1.463-3.786-2.317-4.885-5.61-6.35Zm108.544-120.533c1.342 2.198 3.537 3.297 5.732 4.274.854.367 1.708.245 2.562-.366.975-.733 1.219-1.832 1.097-3.053-.122-1.221-.731-2.076-1.707-2.809-1.464-.977-2.927-2.076-5.366-2.564-1.952 1.099-2.927 2.32-2.318 4.518Zm93.787 220.547c-.731-2.56-4.512-4.52-6.951-3.78-1.22.36-2.317 1.95-2.074 3.05.488 2.56 2.806 4.88 5.489 5.13 1.463.12 2.561-.61 3.536-2.32-.122-.37.244-1.34 0-2.08Zm-62.809 21.62c.854 2.56 2.683 3.91 5.366 4.03 2.074-1.71 2.562-3.79 1.708-5.99-.732-1.95-2.561-3.05-4.757-2.8-2.073.85-3.049 2.44-2.317 4.76Zm237.7 21.12c-1.708-1.34-3.537-2.8-5.976-2.44-1.586.25-2.683 2.32-1.83 3.67 1.22 2.07 3.05 3.29 5.123 4.03 1.585.61 3.415 1.22 5-.37.854-2.32-.732-3.66-2.317-4.89Zm-161.597-263.775c-.122 1.465.732 2.564 1.829 3.297 1.098.733 2.196 1.465 3.415 1.954 1.464.61 3.171-.611 3.415-2.198.244-1.588.122-3.175-1.097-4.275-1.22-1.221-2.683-2.442-4.513-2.442-2.073.366-2.927 1.71-3.049 3.664Zm-25.49 142.758c1.22 1.71 2.562 3.175 4.635 3.542 1.22.244 2.195 0 2.927-.977.732-.977.854-2.198.244-3.175-1.708-2.931-4.025-4.641-7.684-3.664-1.219 1.832-.975 3.053-.122 4.274ZM59.992 1040.33c-1.585.12-2.805 1.95-2.439 3.3.61 2.07 2.683 3.9 4.757 3.9 2.195 0 3.78-1.1 4.024-3.78-1.341-2.44-3.415-3.67-6.342-3.42Zm-78.054-1.1c.732 2.2 2.683 2.93 4.757 3.18 2.073.24 4.024-.01 4.756-2.69-1.22-3.54-4.269-4.03-7.561-4.28-1.952 1.1-2.44 2.45-1.952 3.79Zm-251.725-58.74c1.829.855 3.781 1.221 5.488-.611.366-3.053-1.829-4.274-4.024-5.373-1.952-.977-3.903-.855-5.245 1.221-.122 2.809 1.708 3.908 3.781 4.763Zm30.612-352.562c1.463.977 3.049 1.832 5 .611 1.464-2.687 0-4.518-2.073-6.106-1.951-1.465-4.025-2.809-6.586-.244.122 3.053 1.83 4.518 3.659 5.739Zm-41.71 65.701c-2.074-1.465-3.781-1.465-4.879-.488-1.219 1.221-.731 3.541 1.22 5.251 1.341 1.221 2.927 2.076 4.756 2.076 1.22 0 2.196-.244 2.927-1.466.366-3.053-2.195-4.029-4.024-5.373Zm457.227-7.938c-1.463-.977-3.171-1.954-4.634.122-.366 2.565.853 4.397 2.683 5.862 1.219.977 2.683 1.71 4.268.733.854-3.664.488-4.763-2.317-6.717Zm-180.5-130.424c1.097.366 2.195.122 2.927-.855.61-.733.61-1.71.243-2.565-1.097-2.686-3.414-4.152-6.098-4.762-.853-.245-1.707.244-2.317.977-.61.855-.488 1.709-.244 2.564.366 1.344 1.464 2.198 3.05 3.42.487.244 1.463.854 2.439 1.221Zm46.588 20.516c-1.097-1.71-3.049-2.32-4.512-1.221-1.83 1.343-2.074 3.663-.732 5.251 1.463 1.588 3.049 2.442 5.732 1.832.61-3.664.61-4.152-.488-5.862Zm-311.363 4.518c1.341-1.465.61-2.93-.488-4.03-2.195-2.198-4.391-4.396-7.927-3.175-.122 5.007 2.195 6.839 8.415 7.205Zm111.959 390.786c-1.464 2.076-1.586 3.419-.488 4.762 1.586 1.954 3.903 2.809 5.854 2.076 1.951-.732 2.805-3.297 1.464-4.884-1.342-1.588-2.805-2.809-5.489-2.809-.609.366-1.097.488-1.341.855Zm70.005 20.638c2.561 1.588 4.39.733 5.854-2.931-1.83-2.687-3.903-4.763-7.928-3.664-1.585 3.298-.243 5.13 2.074 6.595Zm-173.183-70.097c-1.098-.366-2.195.122-2.927.977-.732.977-.732 2.076-.122 3.053 1.219 1.954 2.927 3.297 5.244 3.541 1.708.123 2.927-.732 3.293-3.053-1.098-2.442-3.049-3.907-5.488-4.518Zm165.865-214.443c-3.049-.855-5.732-.733-8.415.488 0 3.542.122 3.542 4.513 6.472 2.317-2.076 4.146-3.785 3.902-6.96Zm85.25 9.036c1.22 1.466 2.561 2.443 4.513 2.077 1.463-.245 2.439-2.321 1.585-3.664-1.585-2.687-3.78-4.274-6.952-3.786-1.95 2.198-.487 3.786.854 5.373Zm-26.709 226.778c2.195 2.076 4.147 5.129 8.293 3.541.732-4.64.61-4.762-5.366-7.571-2.073.489-3.171 1.465-2.927 4.03Zm-90.25-58.618c-1.342-1.221-2.683-2.32-4.635-2.32-.854 0-1.707.244-2.317 1.099-.732 1.099-.61 2.198.244 3.053 1.463 1.71 3.171 3.053 5.366 3.664.854.244 1.708-.122 2.683-.977.61-2.076-.122-3.42-1.341-4.519Zm249.529-224.335c1.952-.244 3.171-1.587 2.928-3.786-4.147-3.908-4.147-3.907-8.538-.366.976 3.053 2.805 4.518 5.61 4.152Zm-513.816 185.013c1.341.61 2.561.366 3.659-.733.853-.855 1.341-1.71 1.097-2.931-.366-1.466-1.341-2.198-2.805-2.565-1.829-.366-3.537.122-5.122 2.076.244 2.199 1.463 3.42 3.171 4.153Zm363.562 240.211c.732-1.59.122-3.42-1.585-4.52-1.708-1.1-3.66-.73-4.757.61-1.098 1.47-.61 3.3 1.22 4.52 1.951 1.47 4.146 1.22 5.122-.61Zm-79.884-242.41c-2.317-1.343-4.512-1.099-5.244.489-.732 1.465 0 3.053 1.951 4.396 2.074 1.466 4.269 2.443 6.586.489-.854-3.542-1.097-4.03-3.293-5.374Zm-207.087 71.074c1.463 1.588 3.414 2.321 4.634 1.71 1.342-.733 1.829-1.954 1.707-3.297-.122-1.954-1.341-3.297-3.171-3.786-1.463-.488-2.561.122-3.536 1.221-.976 1.222-.854 2.809.366 4.152Zm93.177-146.788c.854.122 1.707-.367 2.195-1.222.488-.854.61-1.709.122-2.564-1.098-1.71-2.805-3.053-4.878-3.297-1.708-.245-3.049.366-3.415 2.686.975 2.565 3.171 4.03 5.976 4.397Zm14.391-93.667c-2.073 1.832-1.829 3.786-.366 5.862.976 1.343 2.195 2.32 4.025 1.71 1.341-.855 2.317-2.076 2.073-4.397-2.561-2.564-2.561-2.442-5.732-3.175Zm64.761-114.671c.731-1.343 0-3.053-1.83-4.518-2.195-1.71-4.268-1.954-5.366-.855-1.341 1.343-.488 3.908 1.951 5.495 2.074 1.466 4.391 1.344 5.245-.122Zm-211.723 43.353c-1.707-1.099-3.78-.733-4.634.855-.732 1.221-.244 3.053 1.098 4.152 1.585 1.221 3.658 1.099 4.634-.366a3.372 3.372 0 0 0-1.098-4.641Zm160.987 273.061c-1.829-.488-3.414-.122-3.902 2.076 2.439 3.053 3.171 3.664 4.756 4.274 1.586.611 2.439.123 3.903-2.32-.854-2.198-2.439-3.541-4.757-4.03Zm-160.011-21.859c-.854-1.588-2.195-2.687-4.268-1.954-1.952 4.64-1.586 5.251 2.927 7.083 2.073-1.344 2.439-3.175 1.341-5.129Zm156.109-300.905c1.463 1.099 2.927 2.198 4.756.733 1.22-2.321-.366-3.786-1.707-5.129-1.464-1.344-3.049-2.565-5.488-1.099-.61 2.442.609 4.152 2.439 5.495Zm22.318 78.157c-1.707-1.099-3.658-1.832-5.122.489 1.342 4.884 2.439 5.617 7.318 5.006 1.341-2.564-.244-4.152-2.196-5.495ZM97.8 726.48c1.951 1.465 3.781 3.907 6.708 2.564.609-1.099.732-2.076.122-2.809-1.952-2.442-4.269-4.396-8.05-4.884-.365 3.785-.365 4.029 1.22 5.129Zm-266.116 251.568c-1.586 2.198-1.586 2.198-1.342 2.686 1.098 2.809 2.927 4.274 6.586 4.152.732-4.518.244-5.007-5.244-6.838Zm61.467-283.198c.122-5.007-1.463-6.35-7.073-5.617.488 5.251 2.561 6.839 7.073 5.617Zm167.33 145.812c1.097 1.343 2.56 2.443 4.39 2.443 1.585 0 2.683-1.832 1.951-3.298-1.463-2.808-3.659-4.152-6.708-3.419-1.22 1.71-.731 3.053.366 4.274Zm-245.018-320.2c1.342.489 2.561.245 3.537-.976.854-1.1 1.341-2.321.61-3.664-.61-1.099-1.708-1.343-2.805-1.343-1.586.122-3.049.366-4.025 1.831-.244 2.321.976 3.42 2.683 4.152Zm44.515 179.029c-2.073.855-2.805 2.076-2.317 3.908.488 1.709 1.829 2.564 3.293 3.053 1.342.488 2.683.488 4.147-1.221-.122-3.786-2.318-5.129-5.123-5.74Zm-54.638 243.02c-.853-1.344-1.951-2.443-3.658-2.809-.854-.122-1.708-.122-2.562 1.099-.122 3.663 1.952 5.739 5.61 6.35 2.196-1.343 1.708-2.931.61-4.64Zm75.128-476.392c.853.122 1.829-.244 2.195-1.099.488-.855.488-1.71-.122-2.443-1.708-2.198-3.049-2.32-6.342-.488.488 2.931 2.195 3.786 4.269 4.03Zm-227.456 348.776c-.975 3.541-.487 5.129 1.952 6.106 1.585.61 2.683-.489 3.537-3.664-1.22-1.954-2.927-3.175-5.489-2.442Zm246.603-4.152c1.586.977 3.293 1.831 4.635-.367-1.586-4.518-2.196-5.007-7.196-5.007-1.219 2.809.732 4.152 2.561 5.374Zm-34.149-58.13c.488-.366.732-1.099.732-1.709 0-1.588-1.463-3.053-3.415-3.42-.853-.122-1.707 0-2.561.245-1.097.244-1.707 1.709-1.219 2.686.365.733.975 1.466 1.097 1.832 2.196 1.221 4.025 1.465 5.366.366Zm-34.392 305.667c-1.22-.61-2.561-.85-3.659.86.854 3.29 3.049 4.88 7.074 4.88.366-3.54-1.342-4.76-3.415-5.74ZM-393.21 676.654c-.854-4.518-1.342-5.006-6.586-5.983 1.951 5.617 2.439 5.983 6.586 5.983ZM17.428 896.471c-1.097-.488-2.195-.488-3.17.122-1.098.611-1.586 1.588-1.22 3.053 1.341 1.832 3.049 3.298 5.732 3.42 1.585-3.298 1.22-5.496-1.342-6.595Zm-186.964-32.117c1.585.122 3.049-1.588 2.683-3.053-.488-1.954-2.561-3.542-4.39-3.176-1.83.245-2.562 1.588-2.44 3.42.732 1.832 2.196 2.686 4.147 2.809Zm76.835 195.146c-.488-1.1-1.342-1.71-2.562-1.71-1.097-.12-2.195.25-2.683 1.35-.487 1.09-.121 2.19.61 3.05.854.98 1.952 1.71 3.781 1.1 1.22-1.22 1.464-2.57.854-3.79Zm221.479-171.577c-.854 2.198.488 3.297 2.073 4.274 1.707 1.099 3.415 2.076 5.732 0-3.171-4.763-3.903-5.129-7.805-4.274Zm-30.246 57.152c1.463.489 3.049.733 3.902-1.221-2.56-4.396-3.17-4.763-8.049-3.908.244 3.297 1.951 4.396 4.147 5.129ZM-334.67 774.107c.61-2.199-.975-3.298-2.439-4.275-1.341-.855-2.683-1.709-4.268-.366 1.219 4.396 2.439 5.251 6.707 4.641Zm68.298-70.586c-1.098-.366-2.195-.122-2.927 1.099-.122 2.442 1.585 3.419 3.537 4.152 1.097.366 2.195.122 2.927-.977.122-2.564-1.586-3.663-3.537-4.274Zm36.832-103.925c1.219.855 2.927.855 3.537-.122.853-1.221.853-2.442 0-3.663-.976-1.588-2.074-1.71-5.367-.611-.365 2.198.488 3.42 1.83 4.396Zm164.158 401.894c-1.464-.48-2.561 0-3.05 1.96 1.22 2.81 3.05 4.52 6.952 3.3.122-3.42-1.707-4.52-3.902-5.26Zm-207.454-389.315c-1.22-.733-2.439-1.099-3.781 0-.609 1.587.122 2.687 1.22 3.541 1.341 1.099 2.683 2.443 5.122 1.222.366-2.565-.975-3.786-2.561-4.763Zm388.076 84.874c-.975-4.519-1.097-4.763-6.464-4.885 2.196 5.129 2.927 5.617 6.464 4.885ZM-4.768 615.716c1.463 1.954 3.17 3.542 5.854 2.931 0-3.908 0-3.908-4.879-5.984-1.341.977-1.707 2.076-.975 3.053Zm-3.293 476.634c3.17 4.03 3.78 4.15 6.098 1.71-2.927-4.03-3.537-4.15-6.098-1.71Zm12.44-297.239c-.244 2.687 1.341 4.03 3.537 4.763 1.341.366 2.683.122 3.049-2.198-3.537-3.664-3.537-3.664-6.586-2.565Zm-263.19 56.664a3.065 3.065 0 0 0-1.829.244c-.854.489-.976 1.344-.854 2.321.244 1.465 1.22 2.32 2.561 2.808 1.342.489 2.562.611 3.415-.854-1.219-3.542-1.463-3.908-3.293-4.519Zm-167.328-95.742c1.341 1.099 3.292.855 3.902-.489.488-1.221 0-2.076-.975-2.809-1.22-.854-2.684-.61-3.415.489-.61 1.099-.488 2.076.488 2.809ZM94.507 967.179c1.22.244 2.195-.244 2.317-2.076-1.463-1.954-3.293-3.297-6.098-1.954 1.22 3.419 1.22 3.541 3.781 4.03Zm-365.148-426.811c.61-2.809-1.219-3.664-3.049-4.274-1.219-.366-2.073.244-2.439 1.832 1.22 2.076 2.683 3.419 5.488 2.442Zm10.489 429.131c.61 2.687 2.073 3.908 5.488 3.908-.854-4.641-1.829-5.251-5.488-3.908Zm-.122-89.392c-.244-3.786-.61-4.152-5.61-4.274.975 3.419 2.683 4.518 5.61 4.274Zm105.617 177.073c1.098.73 2.317 1.1 3.537 0-.732-3.66-.732-3.66-5.122-4.27-.854 2.2.244 3.42 1.585 4.27Zm81.713-560.409c-.61-.488-1.463-.855-2.317-.977-.976-.122-1.708.611-1.708 1.588-.121 1.465.854 2.198 3.537 2.931.122 0 .366-.123.976-.367.61-1.343.366-2.442-.488-3.175Zm-138.058 44.94c1.341 1.222 2.683 2.321 4.634.367-.732-2.443-2.073-3.664-4.634-3.786-1.464 1.221-.976 2.442 0 3.419Zm402.711 305.546c-1.585 3.419-.976 4.152 3.415 4.518.366-2.687-.854-4.03-3.415-4.518Zm-449.91-182.082c1.098-2.442-.488-3.419-1.951-4.396-1.098-.733-2.317-1.344-3.537.488.976 2.443 2.439 4.152 5.488 3.908Zm155.377-152.772c1.951 3.541 1.951 3.541 5.488 2.076-2.56-3.908-2.56-3.908-5.488-2.076ZM54.382 946.785c-1.22-.489-2.073 0-2.56 1.465.609 2.32 2.194 3.542 5.365 3.42.732-3.053-.853-4.153-2.805-4.885ZM-94.043 767.146c1.708.244 2.561-.367 2.317-2.199-1.341-1.709-2.927-2.686-5.488-.854.854 1.831 1.708 2.808 3.171 3.053Zm-225.26 76.813c-.731-2.442-2.195-3.541-4.878-3.053 1.22 3.786 1.22 3.786 4.878 3.053ZM7.306 629.516c1.707 2.687 1.707 2.687 4.634 2.076-.976-3.786-2.073-4.152-4.634-2.076ZM-5.866 833.701c-.976-.61-1.951-.855-2.927.489.61 1.832 1.586 3.297 4.269 3.053.731-1.954-.122-2.931-1.342-3.542Zm44.028-237.402c-1.098-.732-2.318-1.343-3.537.489.975 1.832 2.195 3.419 5 3.175.976-1.71-.244-2.809-1.463-3.664Zm46.832 177.197c1.464-.611 1.83-1.71.854-3.175-1.586-.977-2.927-.611-4.39 1.099.487 2.198 1.829 2.687 3.536 2.076Zm91.714-36.88c.732.488 1.829.366 2.195-.489.732-1.587-.244-2.32-1.707-2.687h-.61c-1.342 1.222-1.098 2.321.122 3.176Zm-483.083-76.692c-1.098-.366-2.195-.122-2.073 1.465.732 1.466 1.829 2.321 4.024 1.954.854-2.198-.365-2.931-1.951-3.419Zm473.082 160.833c-.244-1.832-1.219-2.565-3.537-2.321.976 3.053.976 3.053 3.537 2.321ZM-120.63 925.169c.61 2.321 2.073 3.298 4.39 3.176.244-3.542-1.097-4.519-4.39-3.176Zm-44.028 111.011c1.464 1.95 1.464 1.95 4.513 2.56-2.195-3.3-2.195-3.3-4.513-2.56Zm-192.94-333.148c-.732-.122-1.22.367-1.585 1.344.609.977 1.341 1.954 2.805 2.198.731.122 1.219-.366 1.463-1.099-.122-1.588-1.341-2.198-2.683-2.443Zm301.607-63.624c-.244-2.321-1.342-3.42-4.39-3.42.975 4.397.975 4.397 4.39 3.42Zm124.277-57.885c-.732-.489-1.586-.855-2.318.122.244 1.709 1.22 2.198 3.171 1.832.122-1.099-.365-1.71-.853-1.954Zm-113.423 67.654c-.61 1.222-.61 2.199.61 2.809 1.463.733 2.561.244 3.049-1.343-.488-2.076-1.708-2.687-3.659-1.466Zm-9.513-139.461c.61.488 1.22.366 1.708-.122.731-.733.61-1.71-.122-2.321-.488-.488-1.22-.366-1.83.123-.488.61-.366 1.831.244 2.32ZM-293.08 697.537c-.61-1.71-1.708-2.442-3.537-2.198.366 3.175.854 3.541 3.537 2.198Zm245.26-175.121c-.121 0-.365.367-.365.489.122 1.465.976 1.954 3.659 1.465-1.464-1.343-1.83-2.442-3.293-1.954Zm-197.33.977c.854 1.588 1.463 2.687 3.415 2.321-.488-2.321-.488-2.321-3.415-2.321Zm156.718 349.753c.61 1.954 1.708 2.687 3.66 1.71-1.464-3.053-1.464-3.053-3.66-1.71Zm-216.844-274.649c.853.489 1.707.367 2.073-.732-.244-1.344-1.098-1.832-2.683-1.71-.732 1.343-.244 2.076.61 2.442Zm528.939 134.821c-.365-.122-.853.245-1.097.489-.366.61-.122 1.343.61 1.465.366.122.731-.244 1.097-.488.244-.733 0-1.344-.61-1.466Zm-337.584-248.026c.244 0 .731-.611.61-.855-.244-1.343-1.098-1.71-2.806-1.221.122 1.832.976 2.32 2.196 2.076Zm24.148 232.151c.244.122.731-.122.975-.245-.121-.366-.243-.854-.487-.977-.244-.122-.732.123-1.098.245.244.366.366.855.61.977Zm59.394-121.632c.366 0 .854-.367.976-.733.244-.733-.244-1.343-1.098-1.343-.366 0-.732.488-.975.61 0 .855.365 1.344 1.097 1.466Zm-276.727 376.253c-.366-.977-.975-1.344-2.317-1.344.61 1.344 1.098 2.076 2.317 1.344Zm-84.762-215.787c-.244 0-.853.244-.975.488-.244.611.122 1.222.853 1.344.244 0 .61-.367.976-.489.244-.732-.122-1.221-.854-1.343Zm136.961-319.223c-.122-.122-.488 0-.61 0v1.099c.366 0 .732-.122 1.098-.122-.122-.366-.244-.732-.488-.977Zm100.983 325.573c-.122-.366-.244-.977-.488-1.221-.488-.366-1.098-.488-2.317-.855.488 2.687 1.219 3.297 2.805 2.076Zm119.399 135.554c.244.122.853 0 1.097-.244.61-.611.122-1.832-.732-1.832-.365 0-.731.366-.975.488-.122.611 0 1.344.61 1.588Zm-234.529-208.338c-.61-1.099-.854-2.198-2.927-1.221.853.733 1.219 1.832 2.927 1.221Zm-102.446 80.6c-.244-.244-.976-.366-1.098-.244-.732.61-.244 1.099.244 1.465.244.122.732-.122 1.097-.244-.121-.244 0-.855-.243-.977Zm140.009-70.586c-.243-.854-.609-1.465-1.707-.977.244.855.61 1.466 1.707.977Zm5.367 331.073h-.366l.244.36.122-.36Zm189.281-403.124a.37.37 0 0 0-.487 0c-.366.367-.366.733 0 .855.121 0 .365-.122.487-.244.122-.366.122-.489 0-.611ZM74.384 945.197l-.488-.122.122.366.366-.244ZM-85.262 530.843c-3.17 4.274-4.024 6.594-4.024 12.7 5.244 5.496 10.976 9.892 20.123 7.083-.366-12.212-6.098-19.173-16.099-19.783Z" fill="#4E7D64"/></g></svg>