<svg width="1298" height="275" fill="none" xmlns="http://www.w3.org/2000/svg"><path fill="#FBFAF3" d="M1298 0v275H0V0z"/><mask id="mask0_1_378" style="mask-type:alpha" maskUnits="userSpaceOnUse" x="0" y="0" width="1298" height="275"><path transform="rotate(90 1298 0)" fill="#FBFAF3" d="M1298 0h275v1298h-275z"/></mask><g mask="url('#mask0_1_378')" fill="#4E7D64"><path d="M1303.91 207.703c-1.61-4.115-1.79-8.499-1.88-12.704.72-.984 1.61-1.163 2.32-.715 4.02 2.505 8.31 4.652 12.06 7.693.53.448.98.895 1.43 1.342 1.42 1.79 1.51 3.4.35 5.458-.53.805-1.07 1.61-1.69 2.415-.63.805-1.25 1.521-1.7 2.147-1.7.716-3.48.537-4.91 1.521-1.34.895-.36 2.953-2.23 4.026-2.15-.089-3.66-1.789-5.45-3.31-.45-2.773-.8-5.547 1.7-7.873Zm-151.88-11.451c-1.25-.805-2.41-1.7-3.66-2.505-4.02-2.416-5.63-1.968-7.95 2.057-.27.537-.27 1.253-.45 1.79 1.16 2.147 3.04 3.131 4.82 4.294 1.88 1.253 3.93 2.237 5.9 3.4.44 1.163-.27 2.415.44 3.399 4.74 4.563 5.63 4.921 13.84 6.621 1.16.179 2.24.626 3.13-.537-.36-4.652-2.86-7.515-11.7-13.062-.45-2.505-2.23-4.115-4.37-5.457Zm81.16 134.554c-1.7-.984-3.3-2.147-5.18-2.863-3.84-1.431-7.86 1.61-7.59 5.726.18 3.042 1.16 5.815 3.93 7.604 1.25.805 2.41 1.7 3.66 2.505 2.77 1.879 5.72 1.521 8.48.358 2.68-1.073 3.66-3.936 2.77-6.62-.53-1.611-1.34-3.042-2.68-4.026-1.16-.895-2.41-1.7-3.66-2.595.18.09.18 0 .27-.089Zm226.26-226.434c-.81 3.31.35 5.815 2.94 7.783.81.627 1.61 1.163 2.41 1.7 4.74 3.489 6.79 4.294 11.34-1.7.18-.268.18-.626.36-1.163-.62-2.147-1.07-4.473-.53-6.62-2.33-3.936-5.45-4.384-8.75-3.31-2.15-.805-3.58-2.595-6.17-1.968-1.16 1.699-1.16 3.578-1.6 5.278Zm-73.04 204.515c0 3.131 1.61 5.1 4.2 6.71 3.03 1.879 6.42 3.221 9.28 5.457 1.16.895 2.77 1.074 4.11 0 .62-2.594.62-2.594-.89-5.457-.09-.268-.09-.626-.09-.895.53-.805 1.51-1.342 1.07-3.31-2.86-3.489-6.97-6.262-11.88-7.873-1.6-.536-3.03.09-3.84 1.432-.8 1.252-1.25 2.684-1.87 4.026l-.09-.09Zm-36.97-104.136c-.09-1.611-.89-2.416-1.78-3.131-1.43-1.074-2.86-2.148-4.38-3.132-3.39-2.236-6.16-2.236-9.55 0-2.68 1.79-4.02 6.442-.89 8.768 3.12 2.326 6.07 5.01 10.44 6.799 2.32-3.31 4.82-6.083 6.16-9.304Zm-26.96 94.742c1.78.806 3.66.806 5-.805 1.78-2.057 3.57-4.204 4.28-6.888-3.57-5.458-8.66-7.873-14.19-6.71-1.43 2.415-2.5 5.099-2.95 8.588 2.23 2.684 4.82 4.474 7.86 5.815Zm-117.33-106.015c-2.5-4.204-5.89-7.425-10.27-9.572-1.42-.716-2.85-.716-4.01.715-.72 1.521-.54 3.221-.63 4.831-.09 1.969.54 3.579 1.79 4.921 2.94 3.131 6.34 5.547 9.91 7.157 1.69-.358 2.59-1.073 3.75-2.058-.27-2.147.62-4.115-.54-5.994Zm209.38-147.526c.27-1.432-.08-2.684-1.07-3.668-2.41-2.237-4.82-4.473-8.12-5.1-1.7.627-2.86 1.79-4.02 2.953-1.07 1.163-1.43 2.505-1.25 4.115.36 2.416 1.7 4.294 3.75 5.547 2.59 1.61 4.73 4.205 8.57 3.131 1.43-2.416 1.7-4.742 2.14-6.978Zm-39.64-24.334c-3.39 1.878-5.8 4.562-7.32 7.962 5.89 6.978 9.11 7.425 16.61 4.742.09-6.8-3.31-10.557-9.29-12.704Zm86.16 119.613c.54 2.416 1.43 4.742 3.49 6.352 1.69 1.253 3.39 2.505 5.26 3.668 2.06 1.253 4.2 1.611 6.61.537 1.34-3.668-1.78-5.815-2.86-8.499-1.6-3.937-5.17-5.636-9.01-7.336-2.5 1.252-3.93 2.863-3.49 5.278Zm-292.68 1.7c2.67 1.879 5.35 3.758 8.03 5.636.54.358 1.16.627 1.79.806 1.96.626 4.37-.269 5.53-2.148.9-1.521.72-3.399-.89-4.831-3.3-2.863-6.7-5.815-11.61-6.531-1.69 1.253-3.93 1.969-4.37 4.384.09 1.432.71 2.147 1.52 2.684Zm232.5 112.009c1.61.448 3.13-.805 2.86-2.415-.62-3.4-1.43-6.8-4.73-8.768-1.25-.715-2.41-1.7-3.66-2.505-2.95-1.7-4.73-1.342-6.88 1.253-1.52 1.789-1.43 3.668.27 5.189 1.07.984 2.41 1.7 3.57 2.594 2.59 1.968 5.36 3.668 8.57 4.652Zm2.59-19.861c-.62-.179-1.34-.179-1.96-.179-1.7.179-3.22.627-4.02 2.416-.8 1.968-.36 3.668 1.16 4.92 1.97 1.7 4.2 3.221 6.34 4.742 1.07.716 2.23 1.521 4.02 1.163 2.05-1.253 3.48-3.31 4.37-6.352-2.59-3.221-5.89-5.368-9.91-6.71Zm-112.77 127.308c-2.32-2.952-5.27-4.921-8.57-6.263-1.79-.715-3.3-.179-4.11 1.521-.98 1.879-1.6 3.937-1.07 6.531 3.13 2.774 6.25 5.815 11.16 5.636 1.79-2.236 2.59-4.652 2.59-7.425Zm95.72-53.41c-3.3-5.01-8.31-7.694-13.75-9.573-1.07-.358-2.23-.268-3.31.895-.71 1.878-.71 3.936 0 6.352 1.88 1.968 4.38 3.489 6.79 5.099 1.52.984 3.04.984 4.64.179 1.88-.984 3.75-1.968 5.63-2.952Zm25.45-206.931c.26-1.432-.36-2.237-1.16-2.774-1.79-1.341-3.75-2.683-5.54-4.025-2.14-1.61-4.46-1.7-6.97-.806-3.48 1.253-4.37 4.831-1.6 7.247 1.96 1.7 3.93 3.4 6.78 4.115 2.68-1.699 6.08-1.789 8.49-3.757Zm87.86 19.682c3.48 4.026 8.03 5.994 13.21 6.531 2.23.179 3.48-1.968 2.41-4.026-1.78-3.579-6.52-7.247-11.07-8.32-1.96.984-3.66 2.415-5 4.563.27.626.27.984.45 1.252Zm-37.33 36.412c-1.69-2.863-1.69-2.863-4.82-5.01-4.64-3.221-5.53-3.131-9.64.895-.18.179-.27.626-.45.894-.09 1.879.36 3.668 1.79 4.831 2.14 1.79 4.19 3.668 7.14 4.384 2.86-1.252 4.82-3.31 5.98-5.994ZM1176.4 320.786c2.23 3.489 5.18 6.352 8.93 8.231 1.52.805 2.86.447 4.02-.716 1.96-2.058 1.96-4.026-.18-5.905-3.12-2.684-6.43-5.01-10-6.978-.89-.447-1.79-.716-3.3-.179-.99 1.879-.45 3.847.53 5.547Zm33.49-17.088c-3.04-2.057-5.54-5.278-9.74-4.741-1.6 3.22-1.6 3.22-1.69 6.531 4.01 4.831 9.19 6.888 15.89 5.904-.63-4.115-1.16-5.457-4.46-7.694Zm142.32 66.025c-.09 1.789.89 2.773 1.97 3.489 2.23 1.521 4.19 3.758 6.96 3.936 2.14-.536 3.21-2.057 4.38-3.399 1.07-1.342 1.07-2.774-.18-4.026-2.06-2.147-4.29-4.026-7.32-4.742-2.33 1.253-4.56 2.684-5.81 4.742Zm-267.69-267.409c.81.537 1.61 1.163 2.41 1.7.45.269.81.537 1.25.716.63.268 1.17.626 1.79.716 1.61.447 3.57-.537 4.55-2.237.81-1.342.63-2.863-.71-4.026-3.21-2.952-6.79-5.189-11.34-5.1-1.25 0-2.32.359-2.77 1.611-.53 1.163-.27 2.326.63 3.22 1.25 1.253 2.68 2.416 4.02 3.579.17-.089.17-.179.17-.179Zm179.83 43.48c-1.43 1.7-1.43 2.594-.45 3.757 1.52 1.79 3.67 2.058 5.72 2.148 1.43 2.683 3.39 4.652 6.61 4.294 2.68-.269 5.44-.805 7.5-3.221-2.15-3.221-4.91-5.278-8.49-6.173-1.25 1.074-2.41 1.968-3.57 2.952-3.03-1.073-4.55-3.578-7.32-3.757Zm-106.07 50.368c-1.16 1.968-.9 3.31.89 4.742 1.25 1.073 2.77 1.7 4.37 2.058 3.22.715 6.52.894 9.56 2.326.89.447 1.96.357 2.68-.984-1.34-3.579-4.82-5.01-7.68-7.068-2.23-1.61-4.2-3.758-7.86-3.4-.71.805-1.43 1.521-1.96 2.326Zm364.56-55.646c.09.447.18.984.45 1.341 3.21 4.205 7.77 5.279 12.68 5.368 1.43 0 2.32-1.163 2.77-2.415.53-1.342.26-2.595-.9-3.579-1.34-1.163-2.77-2.326-5-2.684-2.77 2.147-6.25.984-9.73.984-.18.716-.27.895-.27.985ZM1149.17 11.598a8.358 8.358 0 0 0 1.61-1.88c.89-1.252.8-2.594-.27-3.578-1.97-1.7-3.84-3.578-6.79-3.668-1.96.984-3.84 1.879-4.91 4.205 1.43 3.49 4.56 4.831 8.04 6.441 1.07-.626 1.78-1.073 2.32-1.52Zm-85.45 153.431c-.09.984.27 1.968 1.07 2.684 2.05 1.878 4.02 3.847 6.61 4.383 1.87-.447 2.5-1.52 3.12-2.684.81-1.52.63-2.952-.53-4.115-2.23-2.236-4.56-4.294-7.86-4.741-2.05 1.163-2.32 2.862-2.41 4.473Zm89.65-186.086c-2.42-2.058-4.83-4.473-8.4-4.115-1.52 1.252-2.05 2.773-1.6 4.741 3.39 3.847 7.41 6.442 13.21 5.279.09-2.863-1.52-4.473-3.21-5.905Zm77.94-67.367c-1.96-.805-3.57.358-3.84 2.506-.08 1.163-.17 2.326.54 3.31 1.61 2.415 3.84 4.115 6.61 4.92 2.32.716 4.28-1.431 3.75-3.757-.54-2.416-2.06-4.026-4.02-5.458-1.07-.447-2.05-1.073-3.04-1.52Zm66.79 250.232c-1.07-1.163-2.41-2.147-3.75-3.31-.09-.716-.09-1.611-.35-2.326-.63-2.774-3.22-4.742-6.08-4.563-.98.09-1.87.716-1.87 2.147.8 2.505 3.66 3.31 5.27 5.279.17 5.815.8 6.62 5.98 8.051 2.14-2.505 2.32-3.578.8-5.278Zm44.11 272.15c.36-1.342.09-2.326-.71-3.041a23.849 23.849 0 0 0-2.32-1.79c-3.67-2.684-5.54-1.968-7.59.716-.54.626-1.25 1.163-1.08 2.505 1.88 2.236 4.47 3.668 7.59 4.652 1.43-1.074 3.13-1.789 4.11-3.042Zm-11.61-100.021c-.98-.805-2.23-1.342-3.66-.715-1.25 1.163-1.34 2.773-.44 3.936 2.5 3.31 5.8 5.726 9.82 6.71.98.268 1.96-.269 2.68-2.058-2.59-2.684-5.36-5.368-8.4-7.873Zm72.77-163.54c-1.87-.806-4.01-1.074-6.16-.358-.89.268-1.43 1.61-1.07 2.415 1.16 2.774 3.66 4.026 6.34 4.921 2.14.716 3.75-.358 5.45-1.968-.45-3.042-2.59-4.116-4.56-5.01Zm-163.13 190.737a301.953 301.953 0 0 0-8.21-6.888c-.89-.716-2.05-1.074-3.22-.537-1.34.537-2.14 1.431-2.32 2.773.18 1.342 1.07 2.147 2.23 2.416 3.31.894 6.52 2.057 9.38 4.026.36.268.89.268 1.43.268.53 0 .89-.358 1.16-.895-.18-.268-.18-.894-.45-1.163Zm124.11-87.317c1.61.984 3.4 1.968 5.54.895 1.07-2.684.45-4.831-1.87-6.442-2.59-1.878-5.27-2.326-8.31-.178.18 3.489 2.59 4.473 4.64 5.725Zm-49.1 5.368c1.16 1.163 2.59 2.058 4.28 2.058.89 0 1.61-.269 2.14-.895.9-.984 1.52-2.147 1.7-3.489.09-.805-.09-1.61-.71-2.237-1.34-1.342-2.86-2.236-4.82-1.61-1.52.537-3.22.626-4.38 1.879-.54 1.968.62 3.221 1.79 4.294Zm43.93-35.965c-1.97-1.252-3.93-2.147-6.17-.894-.71 1.879.27 3.042 1.34 4.026 2.86 2.415 5.9 4.294 10.18 4.92-.26-4.115-1.34-5.547-5.35-8.052Zm7.85 50.637c.63 1.253 1.88 1.79 3.57.895-.08-2.326 1.79-4.205 2.33-6.442-.9-2.147-2.41-3.22-4.47-3.489-1.61-.179-2.77.716-4.11 2.326.9 2.237 1.61 4.563 2.68 6.71Zm-182.5-354.368c-2.32.806-4.02 2.416-5 4.653.62 1.789 1.69 2.683 3.39 2.505 1.96-.09 3.84-.269 6.07-.448 1.07-4.115.45-4.92-4.46-6.71Zm6.69 352.042c0 2.058.99 3.758 2.33 5.189 1.25 1.342 2.58 2.505 4.73 2.237.35-.269.8-.448 1.16-.805.53-.627.89-1.342 1.34-2.237-3.48-5.726-4.91-6.352-9.56-4.384Zm37.33-183.044c.62.269 1.25.179 1.96-.268 1.07-1.342.89-2.773-.18-3.936-2.23-2.327-5-3.758-8.3-3.668-1.25 0-2.23.536-2.41 2.415 2.59 2.147 5.44 4.205 8.93 5.457Zm20-71.124c1.69.18 2.77-1.163 2.41-2.773-.45-2.505-2.23-3.937-4.2-5.1-1.52-.894-3.03-.715-3.93.537-1.07 1.432-.98 3.131.27 4.473.45.448.98.895.89.716 1.79 1.342 3.04 2.058 4.56 2.147Zm74.46 223.124c-1.07-1.431-2.59-2.505-4.37-2.952-1.07-.269-1.97.358-2.59 1.073-.54.627-.71 1.521-.27 2.326 1.61 3.042 3.75 5.279 7.86 5.547.89-2.505.53-4.384-.63-5.994Zm17.42-99.842c2.05.895 3.57-.179 3.57-2.505 0-.984-.27-1.968-.99-2.684-.98-1.074-2.14-1.968-3.57-2.594-1.25-.537-2.41-.448-3.21.357-.89.985-.89 2.058-.45 3.221.54 1.432 1.7 2.416 2.95 3.4.53.179 1.16.537 1.7.805Zm-19.38 87.764a13.363 13.363 0 0 0-3.13-2.326c-1.6-.984-3.03-.715-3.92.537-1.08 1.432-.99 3.221.44 4.384.98.894 2.06 1.61 3.13 2.236 1.43.806 2.77.627 4.1-.357.99-1.7.54-3.221-.62-4.474Zm-111.88 53.858c1.88 1.252 3.66 2.773 6.07 2.863.45 0 .81-.448 1.43-.716-.53-3.489-3.57-4.921-5.98-6.531-1.43-.984-3.13-2.505-5.54-.716.72 2.505 2.23 3.937 4.02 5.1Zm-57.23-259.089c-2.06-.536-4.29.806-5 2.863-.45 1.253.62 2.863 2.59 3.668.62.269 1.25.448 1.87.537 1.97.268 3.57-.716 4.11-2.594.36-1.253-.27-2.684-2.14-3.847-.18-.18-.81-.448-1.43-.627Zm304.2 181.881c1.79.448 3.31-.268 4.11-1.879.71-1.341.36-2.594-1.16-3.846-.98-.806-2.05-1.7-3.39-1.611-1.16.179-2.15.805-3.04 1.521-.45.447-.89.895-1.43 1.521.9 2.773 2.77 3.757 4.91 4.294Zm-179.29-23.26c-1.43 2.415-1.34 3.489.27 5.278.98 1.074 2.23 1.968 3.75 2.237 1.34.268 2.59 0 3.93-1.521-1.43-3.937-4.02-5.816-7.95-5.994Zm-85.8-172.667c.98.269 1.96 0 2.58-.894.72-.895 1.34-1.968.72-3.131-1.07-1.969-2.68-3.221-5-3.4-1.43-.09-3.04.984-3.39 2.326-.36 1.253.35 2.147 1.25 2.952.35.269.8.537 1.87 1.342.27 0 1.07.537 1.97.805Zm31.78 242.001c.89.537 1.97.448 2.77-.268s.98-1.7.71-2.684c-.35-1.253-.98-2.415-1.51-3.668-2.15-.537-4.11-1.7-6.43 0-.45 3.847 1.96 5.278 4.46 6.62Zm.89-234.843c1.08 1.252 2.24 2.415 4.02 2.415 1.16 0 2.15-.805 2.59-1.968.45-.984.27-1.968-.53-2.684-1.61-1.7-3.49-2.863-6.34-2.415-.81 2.773-.81 3.31.26 4.652Zm-79.82 88.48c-1.52-1.879-3.39-2.952-5.89-2.505-1.25 2.594-1.34 2.952-.63 4.115 1.43 2.147 3.22 3.668 6.25 3.31 1.34-1.878 1.43-3.399.27-4.92Zm94.2 205.499c1.43.895 2.95 1.432 4.64 1.163 1.07-.179 1.79-.894 2.06-1.879.26-.805.09-1.61-.45-2.326-.98-1.073-2.23-1.968-3.75-2.147-1.79-.179-3.57-.268-4.91 1.163.62 2.684.89 3.042 2.41 4.026Zm231.88-231.98c2.06.089 3.75-.985 4.29-3.042-.63-1.969-1.88-2.953-3.57-3.221-2.06-.269-3.93.09-5.36 2.326.71 2.684 2.41 3.936 4.64 3.936Zm-144.56 57.167c-1.42-1.789-3.12-3.31-5.53-3.221-1.61 1.432-2.05 3.132-.89 4.563 1.6 2.058 3.48 3.936 6.69 3.221.9-1.968.72-3.4-.27-4.563ZM1172.21 53.02c-1.08-3.4-3.58-5.279-6.88-6.263-.8-.268-1.61 0-2.14 1.163.35 2.863 2.59 4.563 4.91 5.905 1.16.715 2.59 1.61 3.93.09.09-.27.26-.627.18-.895Zm89.73 290.758c1.52.537 3.48-.447 4.11-1.878.53-1.253-.09-2.237-.98-3.042-1.08-.984-2.33-1.879-4.2-1.7-.36.268-.98.537-1.43.984-.62.537-1.07 1.253-1.16 2.505.71 1.7 2.05 2.594 3.66 3.131Zm169.38-128.291c-1.07-.627-2.14-.806-3.21-.179-.9.894-.99 1.968-.45 3.131.71 1.342 1.7 2.415 3.21 2.773 2.06.358 4.11.537 6.34.895-2.05-3.847-3.39-5.278-5.89-6.62Zm-187.42-51.532c1.34.984 2.5 2.147 4.29 2.058 1.07 0 1.88-.537 2.23-1.611.27-.805.27-1.699-.27-2.326-1.42-1.61-3.12-2.862-5.44-2.862-1.07 0-1.97.357-2.41 1.342-.36 1.61.53 2.594 1.6 3.399Zm113.31-98.768c-1.34-1.253-2.68-2.326-4.64-2.416-1.16 0-2.14 1.074-1.97 2.237.36 1.879 1.61 3.131 3.13 4.205 1.34.894 2.77 1.7 4.73.626.72-2.058 0-3.49-1.25-4.652Zm-160.27 82.486c-3.75-3.668-4.91-3.668-8.39 0 .98 2.863 3.48 3.399 5.89 3.847 1.78-.895 2.77-2.058 2.5-3.847Zm119.38 259.356c1.25 1.521 2.68 2.863 4.82 3.042.27 0 .45-.358.98-.715-1.7-2.953-1.25-7.426-6.34-8.41-2.05 2.594-.8 4.473.54 6.083Zm156.7-117.824c1.34-1.252.98-2.594-.09-3.847-.98-1.163-2.05-2.147-3.57-2.326-1.25-.179-2.59-.358-3.84 1.074 2.14 4.115 3.21 4.831 7.5 5.099Zm-158.85-167.03c1.17 1.163 2.42 2.237 4.2 2.326.89 0 1.52-.447 1.97-1.252.44-.805.53-1.7 0-2.326-1.79-2.237-3.75-4.116-7.24-3.489-.18 2.773-.09 3.578 1.07 4.741Zm37.42-26.57c.98-.09 1.87-1.074 1.69-1.969-.44-2.326-3.12-4.741-5.44-4.92-.9-.09-1.61.358-2.06 1.073-.53.716-.62 1.61-.18 2.326.54.806 1.25 1.521 1.61 1.88 1.52.983 2.77 1.788 4.38 1.61Zm-120.1-77.745c.27 1.521 1.34 2.595 2.59 3.4 1.25.805 2.59 1.52 4.02.626 1.25-3.758.09-5.278-5.09-7.068-1.34.805-1.78 1.79-1.52 3.042Zm251.62 243.074c-.89-1.431-2.23-2.415-3.93-2.684-.89-.089-1.61.179-2.14.895-.54.716-.63 1.61-.18 2.326 1.25 2.326 2.94 3.847 5.89 3.847 1.34-1.61 1.16-3.042.36-4.384Zm-323.23-41.779c-.89-.984-1.87-1.79-3.3-1.879-.8 0-1.61.268-2.05 1.073.44 2.774 1.16 3.937 3.57 5.279 1.25.716 2.59 1.61 4.02.089.35-2.057-.99-3.22-2.24-4.562Zm128.22-30.776c.09 1.789 1.34 2.952 2.95 3.4 1.34.357 2.59.268 3.3-1.521-.71-2.416-1.16-5.1-4.28-6.442-1.88 1.253-2.06 2.953-1.97 4.563Zm24.82 96.353c-.98-1.342-2.41-2.147-4.1-2.326-.81-.09-1.61.089-2.15.805-.71.895-.71 1.879-.09 2.684 1.52 2.237 3.4 3.847 6.52 3.489.81-1.968.63-3.4-.18-4.652Zm-12.59 52.784c-1.25-1.074-2.5-2.237-4.28-2.058-1.52.179-2.59 1.968-1.97 3.31.72 1.611 2.15 2.505 3.67 3.221 1.25.626 2.58.537 3.75-.626.53-1.432 0-2.774-1.17-3.847Zm32.77 73.45c1.25 1.879 2.5 3.757 3.84 5.547.54.715 1.43.715 2.06-.09.09-5.904-.99-7.336-5.9-7.157 0 .805-.18 1.432 0 1.7Zm19.83-227.239c-.99-1.163-2.15-1.968-3.67-2.058-.8-.089-1.6.179-2.23 1.163-.44 3.489 2.32 4.742 5.18 6.173 1.97-2.415 2.14-3.668.72-5.278Zm-150.55 88.838c1.08.715 2.33 1.252 3.67.984.98-.179 1.78-.716 2.14-1.789.27-.895 0-1.611-.54-2.237-.89-.984-1.96-1.789-3.3-1.879-1.34-.179-2.59.179-3.66 1.7.62 2.416.71 2.595 1.69 3.221Zm318.5-165.777c-.54 2.594 1.16 3.489 2.5 4.562 2.77 2.147 3.84 2.326 6.78 1.342-2.32-3.31-5.35-4.92-9.28-5.904Zm-381.09 172.039c1.61.984 2.15.805 4.11-1.073-.18-1.7-1.34-2.863-2.68-3.758-1.07-.716-2.23-1.342-3.57-.716-.71 2.684-.18 4.026 2.14 5.547Zm117.42-142.964c-.72-1.163-1.7-1.968-2.95-2.326-.8-.268-1.61-.268-2.32.358-.71.626-.89 1.432-.62 2.237.89 2.684 2.67 4.205 5.89 4.473.62-3.221.62-3.757 0-4.742Zm62.86 234.844c1.69 1.253 3.39 2.505 5.71 1.431.45-2.236-1.25-2.952-2.41-3.847-1.61-1.163-3.21-2.773-5.71-1.878-.45 2.147 1.07 3.31 2.41 4.294ZM1196.22-5.133c-1.07-.268-2.23.448-2.76 1.522-.45.984-.27 1.878.44 2.684.81.805 1.7 1.52 2.95 1.52 1.43 0 2.32-.894 3.39-2.326-.8-2.057-2.23-2.952-4.02-3.4Zm-83.3 259.268c-1.34-.626-2.77-1.342-4.11.09-.45 1.878.98 2.684 2.23 3.399 1.79.984 3.66 2.147 5.98 1.163-1.07-2.773-1.69-3.578-4.1-4.652Zm79.46-88.301c.99 1.61 2.59 2.415 4.2 3.131.63.269 1.25.179 1.88-.268.71-.537.89-1.342.8-2.237-.09-.894-.54-1.521-1.25-2.058-1.07-.715-2.14-1.52-3.93-1.878-1.43.805-2.14 1.7-1.7 3.31Zm68.67 161.572c-.54-1.878-3.31-3.31-5.09-2.773-.89.268-1.7 1.431-1.52 2.237.36 1.878 2.05 3.578 4.02 3.757 1.07.089 1.87-.447 2.59-1.7-.09-.268.18-.984 0-1.521Zm-45.99 15.836c.63 1.878 1.97 2.862 3.93 2.952 1.52-1.253 1.88-2.774 1.25-4.384-.53-1.431-1.87-2.237-3.48-2.058-1.52.627-2.23 1.79-1.7 3.49Zm174.03 15.477c-1.25-.984-2.59-2.058-4.38-1.789-1.16.178-1.96 1.699-1.34 2.683.9 1.521 2.24 2.416 3.75 2.953 1.16.447 2.5.894 3.66-.269.63-1.699-.53-2.684-1.69-3.578Zm-118.31-193.243c-.09 1.074.54 1.879 1.34 2.416.8.536 1.61 1.073 2.5 1.431 1.07.447 2.32-.447 2.5-1.61.18-1.163.09-2.326-.8-3.132-.9-.894-1.97-1.789-3.31-1.789-1.52.269-2.14 1.253-2.23 2.684Zm-18.66 104.584c.89 1.252 1.87 2.326 3.39 2.594.89.179 1.61 0 2.14-.715.54-.716.63-1.611.18-2.327-1.25-2.147-2.94-3.399-5.62-2.684-.89 1.342-.72 2.237-.09 3.132Zm162.41 82.933c-1.16.09-2.05 1.432-1.78 2.416.45 1.521 1.96 2.862 3.48 2.862 1.61 0 2.77-.805 2.95-2.773-.98-1.789-2.5-2.684-4.65-2.505Zm-57.14-.805c.54 1.61 1.96 2.147 3.48 2.326 1.52.179 2.95 0 3.48-1.968-.89-2.595-3.12-2.953-5.53-3.131-1.43.805-1.79 1.789-1.43 2.773Zm-184.29-43.032c1.34.626 2.77.894 4.02-.448.26-2.236-1.34-3.131-2.95-3.936-1.43-.716-2.86-.626-3.84.895-.09 2.057 1.25 2.862 2.77 3.489Zm22.41-258.284c1.07.716 2.23 1.342 3.66.448 1.07-1.968 0-3.31-1.52-4.474-1.43-1.073-2.94-2.057-4.82-.178.09 2.236 1.34 3.31 2.68 4.204Zm-30.54 48.132c-1.52-1.074-2.77-1.073-3.57-.358-.89.895-.53 2.595.89 3.847.99.895 2.15 1.521 3.49 1.521.89 0 1.6-.179 2.14-1.073.27-2.237-1.61-2.953-2.95-3.937Zm334.75-5.815c-1.08-.716-2.33-1.431-3.4.09-.26 1.878.63 3.22 1.97 4.294.89.715 1.96 1.252 3.12.537.63-2.684.36-3.49-1.69-4.921ZM1367.57-2.36c.8.269 1.61.09 2.14-.626.45-.537.45-1.253.18-1.879-.8-1.968-2.5-3.042-4.46-3.489-.63-.179-1.25.179-1.7.716-.45.626-.36 1.252-.18 1.878.27.985 1.07 1.61 2.23 2.506.36.178 1.07.626 1.79.894Zm34.11 15.03c-.81-1.252-2.23-1.7-3.31-.894-1.34.984-1.51 2.683-.53 3.847 1.07 1.162 2.23 1.789 4.19 1.341.45-2.684.45-3.041-.35-4.294Zm-227.96 3.31c.99-1.073.45-2.147-.35-2.952-1.61-1.61-3.22-3.22-5.81-2.326-.09 3.668 1.61 5.01 6.16 5.278Zm81.97 286.286c-1.07 1.521-1.16 2.505-.36 3.489 1.16 1.431 2.86 2.058 4.29 1.521 1.43-.537 2.05-2.416 1.07-3.579-.98-1.163-2.05-2.057-4.02-2.057-.44.268-.8.357-.98.626Zm51.25 15.119c1.88 1.163 3.22.537 4.29-2.147-1.34-1.968-2.86-3.489-5.81-2.684-1.16 2.416-.17 3.758 1.52 4.831Zm-126.79-51.352c-.8-.269-1.61.089-2.14.716-.54.715-.54 1.52-.09 2.236.89 1.432 2.14 2.416 3.84 2.595 1.25.089 2.14-.537 2.41-2.237-.8-1.789-2.23-2.863-4.02-3.31Zm121.43-157.099c-2.23-.627-4.19-.537-6.16.358 0 2.594.09 2.594 3.31 4.741 1.69-1.521 3.03-2.773 2.85-5.099Zm62.42 6.62c.89 1.074 1.87 1.789 3.3 1.521 1.07-.179 1.79-1.7 1.16-2.684-1.16-1.968-2.77-3.131-5.09-2.773-1.43 1.61-.35 2.773.63 3.936Zm-19.56 166.135c1.61 1.521 3.04 3.758 6.07 2.595.54-3.4.45-3.49-3.92-5.547-1.52.358-2.33 1.073-2.15 2.952Zm-66.07-42.943c-.98-.894-1.96-1.7-3.39-1.7-.63 0-1.25.179-1.7.806-.54.805-.45 1.61.18 2.236 1.07 1.253 2.32 2.237 3.93 2.684.62.179 1.25-.089 1.96-.716.45-1.52-.09-2.505-.98-3.31Zm182.68-164.346c1.43-.178 2.33-1.163 2.15-2.773-3.04-2.863-3.04-2.863-6.25-.268.71 2.236 2.05 3.31 4.1 3.041ZM1084.88 209.94c.98.447 1.88.268 2.68-.537.62-.626.98-1.252.8-2.147-.26-1.074-.98-1.611-2.05-1.879-1.34-.268-2.59.09-3.75 1.521.18 1.61 1.07 2.505 2.32 3.042Zm266.17 175.976c.54-1.163.09-2.505-1.16-3.31-1.25-.805-2.68-.537-3.48.447-.81 1.074-.45 2.416.89 3.31 1.43 1.074 3.04.895 3.75-.447Zm-58.48-177.587c-1.7-.984-3.31-.805-3.84.358-.54 1.074 0 2.237 1.43 3.221 1.51 1.074 3.12 1.789 4.82.358-.63-2.595-.81-2.952-2.41-3.937Zm-151.62 52.069c1.08 1.163 2.5 1.699 3.4 1.252.98-.537 1.34-1.431 1.25-2.415-.09-1.432-.98-2.416-2.32-2.774-1.08-.358-1.88.09-2.59.895-.72.894-.63 2.058.26 3.042Zm68.22-107.536c.63.089 1.25-.269 1.61-.895.36-.626.44-1.253.09-1.879-.81-1.252-2.06-2.236-3.57-2.415-1.25-.179-2.24.268-2.5 1.968.71 1.879 2.32 2.952 4.37 3.221Zm10.54-68.62c-1.52 1.343-1.34 2.774-.27 4.295.71.984 1.61 1.7 2.95 1.252.98-.626 1.69-1.52 1.51-3.22-1.87-1.88-1.87-1.79-4.19-2.326ZM1267.12.237c.53-.985 0-2.237-1.34-3.31-1.61-1.253-3.13-1.432-3.93-.627-.98.984-.36 2.863 1.43 4.026 1.52 1.074 3.21.984 3.84-.09Zm-155.01 31.76c-1.25-.806-2.76-.537-3.39.626-.53.894-.18 2.236.8 3.041 1.17.895 2.68.806 3.4-.268a2.478 2.478 0 0 0-.81-3.4Zm117.87 200.041c-1.34-.357-2.51-.089-2.86 1.521 1.78 2.237 2.32 2.684 3.48 3.132 1.16.447 1.79.089 2.86-1.7-.63-1.611-1.79-2.595-3.48-2.953Zm-117.15-16.014c-.63-1.163-1.61-1.968-3.13-1.431-1.43 3.4-1.16 3.847 2.15 5.189 1.51-.984 1.78-2.326.98-3.758Zm114.29-220.44c1.07.806 2.14 1.61 3.48.537.89-1.7-.27-2.773-1.25-3.757-1.07-.984-2.23-1.879-4.02-.805-.44 1.789.45 3.041 1.79 4.025Zm16.34 57.258c-1.25-.806-2.68-1.342-3.75.357.98 3.579 1.78 4.116 5.35 3.669.99-1.88-.17-3.042-1.6-4.026Zm198.75 70.229c1.43 1.074 2.77 2.863 4.92 1.879.44-.805.53-1.521.08-2.058-1.42-1.789-3.12-3.221-5.89-3.578-.27 2.773-.27 2.952.89 3.757Zm-194.82 184.296c-1.16 1.611-1.16 1.611-.99 1.969.81 2.057 2.15 3.131 4.83 3.041.53-3.31.17-3.668-3.84-5.01Zm45-207.467c.09-3.668-1.07-4.652-5.18-4.116.36 3.847 1.87 5.01 5.18 4.116Zm122.5 106.82c.81.984 1.88 1.789 3.22 1.789 1.16 0 1.96-1.342 1.42-2.415-1.07-2.058-2.67-3.042-4.91-2.505-.89 1.252-.53 2.236.27 3.131ZM1235.51-27.856c.98.358 1.88.179 2.59-.716.63-.805.98-1.7.45-2.684-.45-.805-1.25-.984-2.06-.984-1.16.09-2.23.269-2.94 1.342-.18 1.7.71 2.505 1.96 3.042Zm32.59 131.154c-1.52.627-2.05 1.521-1.7 2.863.36 1.253 1.34 1.879 2.42 2.237.98.358 1.96.358 3.03-.895-.09-2.773-1.7-3.757-3.75-4.205Zm-40 178.034c-.63-.984-1.43-1.789-2.68-2.057-.62-.09-1.25-.09-1.87.805-.09 2.684 1.42 4.205 4.1 4.652 1.61-.984 1.25-2.147.45-3.4Zm55-349c.63.09 1.34-.179 1.61-.805.36-.626.36-1.252-.09-1.79-1.25-1.61-2.23-1.699-4.64-.357.35 2.147 1.6 2.773 3.12 2.952Zm-166.52 255.51c-.72 2.595-.36 3.758 1.43 4.473 1.16.448 1.96-.358 2.59-2.684-.9-1.431-2.15-2.326-4.02-1.789Zm180.54-3.042c1.16.716 2.41 1.342 3.39-.268-1.16-3.31-1.6-3.668-5.26-3.668-.9 2.058.53 3.042 1.87 3.936Zm-25-42.585c.36-.268.54-.805.54-1.252 0-1.163-1.08-2.237-2.51-2.505-.62-.09-1.25 0-1.87.179-.8.179-1.25 1.252-.89 1.968.26.537.71 1.074.8 1.342 1.61.895 2.95 1.074 3.93.268Zm-25.18 223.929c-.89-.447-1.88-.626-2.68.627.63 2.415 2.23 3.578 5.18 3.578.27-2.594-.98-3.489-2.5-4.205Zm-164.2-279.575c-.63-3.31-.98-3.668-4.82-4.384 1.43 4.115 1.78 4.384 4.82 4.384Zm300.63 161.035c-.8-.358-1.6-.358-2.32.09-.8.447-1.16 1.163-.89 2.236.98 1.342 2.23 2.416 4.2 2.505 1.16-2.415.89-4.026-.99-4.831Zm-136.88-23.529c1.16.09 2.24-1.163 1.97-2.236-.36-1.432-1.88-2.595-3.22-2.327-1.34.179-1.87 1.164-1.78 2.505.53 1.342 1.6 1.969 3.03 2.058Zm56.26 142.964c-.36-.805-.99-1.253-1.88-1.253-.8-.089-1.61.179-1.96.985-.36.805-.09 1.61.44 2.236.63.716 1.43 1.253 2.77.805.89-.894 1.07-1.878.63-2.773Zm162.14-125.697c-.62 1.61.36 2.415 1.52 3.131 1.25.805 2.5 1.521 4.2 0-2.32-3.489-2.86-3.758-5.72-3.131Zm-22.14 41.869c1.07.358 2.23.537 2.86-.895-1.88-3.22-2.32-3.489-5.9-2.863.18 2.416 1.43 3.221 3.04 3.758Zm-317.15-125.25c.44-1.61-.72-2.415-1.79-3.131-.98-.626-1.96-1.253-3.12-.269.89 3.221 1.78 3.847 4.91 3.4Zm50-51.71c-.81-.269-1.61-.09-2.14.805-.09 1.789 1.16 2.505 2.58 3.042.81.268 1.61.089 2.15-.716.09-1.879-1.16-2.684-2.59-3.131Zm26.96-76.134c.9.626 2.15.626 2.59-.09.63-.895.63-1.79 0-2.684-.71-1.163-1.52-1.252-3.93-.447-.26 1.61.36 2.505 1.34 3.22Zm120.19 294.426c-1.08-.357-1.88 0-2.24 1.432.9 2.058 2.24 3.31 5.09 2.415.09-2.505-1.25-3.31-2.85-3.847ZM1170.87 39.331c-.9-.536-1.79-.805-2.77 0-.45 1.163.09 1.969.89 2.595.98.805 1.97 1.79 3.75.895.27-1.88-.71-2.774-1.87-3.49Zm284.11 62.178c-.71-3.31-.8-3.489-4.73-3.578 1.61 3.757 2.14 4.115 4.73 3.578Zm-87.86-59.583c1.07 1.431 2.32 2.594 4.29 2.147 0-2.863 0-2.863-3.57-4.384-.99.716-1.25 1.521-.72 2.237Zm-2.41 349.179c2.32 2.952 2.77 3.042 4.47 1.252-2.15-2.952-2.59-3.041-4.47-1.252Zm9.11-217.756c-.18 1.968.98 2.952 2.59 3.489.98.268 1.96.089 2.23-1.61-2.59-2.684-2.59-2.684-4.82-1.879Zm-192.69 41.511c-.44-.089-.98 0-1.34.179-.62.358-.71.984-.62 1.7.18 1.074.89 1.7 1.87 2.058.99.358 1.88.447 2.5-.627-.89-2.594-1.07-2.862-2.41-3.31Zm-122.5-70.14c.98.806 2.41.627 2.86-.357.35-.895 0-1.521-.72-2.058-.89-.626-1.96-.447-2.5.358-.44.805-.35 1.521.36 2.057Zm381.17 154.684c.9.179 1.61-.179 1.7-1.521-1.07-1.431-2.41-2.415-4.46-1.431.89 2.505.89 2.594 2.76 2.952ZM1172.47-13.274c.45-2.057-.89-2.683-2.23-3.13-.89-.27-1.52.178-1.78 1.341.89 1.521 1.96 2.505 4.01 1.79Zm7.68 314.378c.45 1.968 1.52 2.863 4.02 2.863-.63-3.4-1.34-3.847-4.02-2.863Zm-.09-65.488c-.18-2.773-.44-3.042-4.1-3.131.71 2.505 1.96 3.31 4.1 3.131Zm77.33 129.723c.8.537 1.69.805 2.59 0-.54-2.684-.54-2.684-3.75-3.131-.63 1.61.17 2.505 1.16 3.131Zm59.82-410.551a3.631 3.631 0 0 0-1.7-.716c-.71-.09-1.25.447-1.25 1.163-.09 1.074.63 1.61 2.59 2.147.09 0 .27-.09.72-.268.44-.984.27-1.79-.36-2.326ZM1216.14-12.29c.98.894 1.96 1.7 3.39.268-.54-1.79-1.52-2.684-3.39-2.773-1.08.894-.72 1.789 0 2.505Zm294.83 223.839c-1.16 2.505-.72 3.042 2.5 3.31.26-1.968-.63-2.952-2.5-3.31ZM1181.58 78.159c.8-1.79-.36-2.505-1.43-3.22-.8-.537-1.69-.985-2.59.357.72 1.79 1.79 3.042 4.02 2.863Zm113.75-111.92c1.43 2.595 1.43 2.595 4.02 1.521-1.87-2.863-1.87-2.863-4.02-1.52Zm115.1 318.225c-.9-.358-1.52 0-1.88 1.073.45 1.7 1.61 2.595 3.93 2.505.54-2.237-.62-3.042-2.05-3.578Zm-108.67-131.602c1.25.179 1.88-.269 1.7-1.611-.98-1.252-2.14-1.968-4.02-.626.63 1.342 1.25 2.058 2.32 2.237Zm-164.91 56.273c-.54-1.79-1.61-2.595-3.57-2.237.89 2.773.89 2.773 3.57 2.237Zm239.11-157.1c1.25 1.969 1.25 1.969 3.4 1.521-.72-2.773-1.52-3.041-3.4-1.52Zm-9.64 149.585c-.72-.448-1.43-.627-2.14.357.44 1.342 1.16 2.416 3.12 2.237.54-1.431-.09-2.147-.98-2.594Zm32.23-173.919c-.8-.537-1.69-.984-2.59.358.72 1.342 1.61 2.505 3.66 2.326.72-1.252-.18-2.058-1.07-2.684Zm34.29 129.813c1.07-.448 1.34-1.253.62-2.326-1.16-.716-2.14-.448-3.21.805.36 1.61 1.34 1.968 2.59 1.521Zm67.14-27.018c.54.357 1.34.268 1.61-.358.54-1.163-.18-1.7-1.25-1.969h-.45c-.98.895-.8 1.7.09 2.327Zm-353.67-56.184c-.8-.268-1.61-.09-1.52 1.074.54 1.073 1.34 1.7 2.95 1.431.63-1.61-.27-2.147-1.43-2.505Zm346.35 117.824c-.18-1.342-.89-1.878-2.59-1.699.72 2.236.72 2.236 2.59 1.699Zm-210.36 76.492c.44 1.7 1.52 2.416 3.21 2.326.18-2.594-.8-3.31-3.21-2.326Zm-32.23 81.323c1.07 1.432 1.07 1.432 3.3 1.879-1.61-2.415-1.61-2.415-3.3-1.879Zm-141.26-244.058c-.54-.09-.89.268-1.16.984.45.716.98 1.431 2.05 1.61.54.09.9-.268 1.07-.805-.08-1.163-.98-1.61-1.96-1.789Zm220.81-46.611c-.18-1.7-.98-2.505-3.21-2.505.71 3.22.71 3.22 3.21 2.505Zm90.99-42.406c-.54-.358-1.16-.626-1.7.09.18 1.252.89 1.61 2.32 1.341.09-.805-.27-1.252-.62-1.431Zm-83.04 49.563c-.45.895-.45 1.61.44 2.058 1.08.537 1.88.179 2.24-.984-.36-1.521-1.25-1.969-2.68-1.074Zm-6.97-102.168c.45.358.9.268 1.25-.09.54-.536.45-1.252-.09-1.7-.35-.357-.89-.268-1.34.09-.35.448-.26 1.342.18 1.7Zm-174.56 137.596c-.44-1.253-1.25-1.789-2.59-1.61.27 2.326.63 2.594 2.59 1.61ZM1335.6-26.425c-.09 0-.26.269-.26.358.08 1.074.71 1.431 2.67 1.074-1.07-.984-1.33-1.79-2.41-1.432Zm-144.47.716c.63 1.163 1.08 1.968 2.5 1.7-.35-1.7-.35-1.7-2.5-1.7Zm114.74 256.226c.45 1.431 1.25 1.968 2.68 1.252-1.07-2.237-1.07-2.237-2.68-1.252ZM1147.12 29.311c.62.358 1.25.269 1.51-.536-.18-.984-.8-1.342-1.96-1.253-.54.984-.18 1.521.45 1.79Zm387.24 98.769c-.27-.089-.62.179-.8.358-.27.447-.09.984.44 1.073.27.09.54-.178.81-.357.18-.537 0-.985-.45-1.074ZM1287.21-53.622c.18 0 .53-.447.45-.626-.18-.984-.81-1.253-2.06-.895.09 1.342.72 1.7 1.61 1.521Zm17.68 170.072c.18.089.53-.09.71-.179-.09-.269-.18-.627-.35-.716-.18-.089-.54.089-.81.179.18.268.27.626.45.716Zm43.48-89.107c.27 0 .63-.268.72-.537.17-.536-.18-.984-.81-.984-.27 0-.53.358-.71.448 0 .626.27.984.8 1.073Zm-202.59 275.64c-.27-.716-.72-.985-1.7-.985.45.985.8 1.521 1.7.985Zm-62.06-158.084c-.18 0-.62.179-.71.358-.18.447.09.895.62.984.18 0 .45-.268.72-.358.17-.536-.09-.894-.63-.984Zm100.27-233.86c-.09-.089-.36 0-.45 0v.806c.27 0 .54-.09.81-.09-.09-.268-.18-.536-.36-.715Zm73.93 238.512c-.09-.268-.18-.715-.35-.894-.36-.269-.81-.358-1.7-.626.36 1.968.89 2.415 2.05 1.52Zm87.42 99.306c.17.089.62 0 .8-.179.45-.448.09-1.342-.54-1.342-.26 0-.53.268-.71.358-.09.447 0 .984.45 1.163ZM1173.63 96.231c-.44-.805-.62-1.61-2.14-.895.63.537.89 1.342 2.14.895Zm-75 59.046c-.18-.179-.71-.268-.8-.179-.54.448-.18.805.18 1.074.17.089.53-.09.8-.179-.09-.179 0-.626-.18-.716Zm102.5-51.71c-.17-.626-.44-1.074-1.25-.716.18.626.45 1.074 1.25.716Zm3.93 242.537h-.26l.17.269.09-.269Zm138.58-295.321a.275.275 0 0 0-.36 0c-.27.268-.27.537 0 .626.09 0 .27-.09.36-.179.09-.268.09-.358 0-.447Zm81.43 232.517-.36-.089.09.268.27-.179ZM1308.19-20.252c-2.32 3.131-2.94 4.831-2.94 9.305 3.83 4.025 8.03 7.246 14.73 5.188-.27-8.946-4.47-14.045-11.79-14.493ZM45.906 84.703C44.3 80.588 44.12 76.204 44.031 72c.714-.984 1.607-1.163 2.322-.715 4.017 2.505 8.303 4.652 12.053 7.694.536.447.983.894 1.43 1.341 1.428 1.79 1.517 3.4.356 5.458-.535.805-1.071 1.61-1.696 2.415-.625.805-1.25 1.521-1.697 2.147-1.696.716-3.482.537-4.91 1.521-1.34.895-.358 2.953-2.233 4.026-2.143-.09-3.66-1.79-5.446-3.31-.447-2.773-.804-5.547 1.696-7.873Zm-151.88-11.451c-1.25-.805-2.411-1.7-3.661-2.505-4.018-2.416-5.625-1.969-7.947 2.057-.267.537-.267 1.253-.446 1.79 1.161 2.147 3.036 3.131 4.822 4.294 1.875 1.252 3.928 2.237 5.893 3.4.446 1.163-.268 2.415.446 3.4 4.732 4.562 5.625 4.92 13.84 6.62 1.16.179 2.232.626 3.125-.537-.357-4.652-2.857-7.515-11.697-13.062-.446-2.505-2.232-4.115-4.375-5.457Zm81.163 134.554c-1.696-.984-3.303-2.147-5.178-2.863-3.84-1.431-7.858 1.61-7.59 5.726.179 3.042 1.16 5.815 3.929 7.604 1.25.805 2.41 1.7 3.66 2.505 2.769 1.879 5.715 1.521 8.483.358 2.679-1.073 3.661-3.936 2.768-6.62-.536-1.611-1.34-3.042-2.679-4.026-1.16-.895-2.41-1.7-3.66-2.595.178.09.178 0 .267-.089ZM201.447-18.628c-.804 3.31.357 5.815 2.947 7.783.803.627 1.607 1.163 2.41 1.7 4.733 3.49 6.786 4.294 11.34-1.7.179-.268.179-.626.357-1.163-.625-2.147-1.071-4.473-.536-6.62-2.321-3.936-5.446-4.384-8.75-3.31-2.143-.805-3.571-2.595-6.161-1.968-1.161 1.7-1.161 3.578-1.607 5.278Zm-73.038 204.515c0 3.131 1.607 5.1 4.196 6.71 3.036 1.879 6.429 3.221 9.286 5.457 1.161.895 2.768 1.074 4.108 0 .625-2.594.625-2.594-.893-5.457-.089-.268-.089-.626-.089-.895.535-.805 1.517-1.342 1.071-3.31-2.857-3.489-6.965-6.262-11.875-7.873-1.608-.536-3.036.09-3.84 1.432-.803 1.252-1.25 2.684-1.875 4.026l-.089-.09ZM91.443 81.751c-.089-1.61-.893-2.416-1.785-3.131-1.43-1.074-2.858-2.148-4.376-3.132-3.393-2.236-6.16-2.236-9.553 0-2.68 1.79-4.019 6.442-.893 8.768 3.125 2.326 6.071 5.01 10.446 6.8 2.322-3.311 4.822-6.084 6.161-9.305Zm-26.965 94.742c1.786.806 3.661.806 5-.805 1.786-2.057 3.572-4.204 4.286-6.888-3.571-5.458-8.66-7.873-14.197-6.71-1.428 2.415-2.5 5.099-2.946 8.588 2.232 2.684 4.821 4.474 7.857 5.815ZM-52.847 70.478c-2.5-4.204-5.893-7.425-10.268-9.572-1.429-.716-2.858-.716-4.018.715-.715 1.521-.536 3.221-.625 4.831-.09 1.969.535 3.579 1.785 4.921 2.947 3.131 6.34 5.547 9.911 7.157 1.697-.358 2.59-1.073 3.75-2.058-.267-2.147.625-4.115-.535-5.994ZM156.535-77.048c.268-1.432-.09-2.684-1.072-3.668-2.41-2.237-4.821-4.473-8.125-5.1-1.696.627-2.857 1.79-4.018 2.953-1.071 1.163-1.429 2.505-1.25 4.115.357 2.416 1.696 4.294 3.75 5.547 2.589 1.61 4.732 4.205 8.572 3.131 1.428-2.416 1.696-4.742 2.143-6.978Zm-39.644-24.334c-3.393 1.878-5.804 4.562-7.322 7.962 5.893 6.978 9.107 7.425 16.608 4.742.089-6.8-3.304-10.557-9.286-12.704Zm86.163 119.613c.536 2.416 1.429 4.742 3.482 6.352 1.697 1.253 3.393 2.505 5.268 3.668 2.054 1.253 4.197 1.61 6.608.537 1.339-3.668-1.786-5.815-2.857-8.5-1.608-3.936-5.179-5.635-9.019-7.335-2.5 1.252-3.928 2.863-3.482 5.278Zm-292.688 1.7 8.036 5.636c.536.358 1.16.627 1.786.805 1.964.627 4.375-.268 5.535-2.147.893-1.52.715-3.4-.892-4.83-3.304-2.864-6.697-5.816-11.608-6.532-1.696 1.253-3.929 1.969-4.375 4.384.09 1.432.714 2.147 1.518 2.684ZM142.874 131.94c1.607.448 3.125-.805 2.857-2.415-.625-3.4-1.429-6.8-4.732-8.768-1.25-.715-2.411-1.7-3.661-2.505-2.947-1.7-4.733-1.342-6.876 1.253-1.517 1.789-1.428 3.668.268 5.189 1.072.984 2.411 1.7 3.572 2.594 2.589 1.968 5.357 3.668 8.572 4.652Zm2.589-19.861c-.625-.179-1.339-.179-1.964-.179-1.697.179-3.215.627-4.018 2.416-.804 1.968-.358 3.668 1.16 4.92 1.965 1.7 4.197 3.221 6.34 4.742 1.071.716 2.232 1.521 4.018 1.163 2.054-1.253 3.482-3.31 4.375-6.352-2.589-3.221-5.893-5.368-9.911-6.71ZM32.691 239.387c-2.321-2.952-5.268-4.921-8.571-6.263-1.786-.715-3.304-.179-4.108 1.521-.982 1.879-1.607 3.937-1.071 6.531 3.125 2.774 6.25 5.815 11.161 5.636 1.786-2.236 2.59-4.652 2.59-7.425Zm95.718-53.41c-3.304-5.01-8.304-7.694-13.751-9.573-1.071-.358-2.232-.268-3.303.895-.715 1.878-.715 3.936 0 6.352 1.875 1.968 4.375 3.489 6.786 5.099 1.518.984 3.035.984 4.643.179l5.625-2.952Zm25.447-206.931c.268-1.431-.357-2.237-1.161-2.773-1.785-1.342-3.75-2.684-5.536-4.026-2.142-1.61-4.464-1.7-6.964-.806-3.482 1.253-4.375 4.832-1.607 7.247 1.964 1.7 3.928 3.4 6.786 4.115 2.678-1.7 6.071-1.789 8.482-3.757Zm87.86 19.682c3.482 4.026 8.036 5.994 13.215 6.53 2.232.18 3.482-1.967 2.411-4.025-1.786-3.579-6.518-7.247-11.072-8.32-1.964.984-3.661 2.415-5 4.563.268.626.268.984.446 1.252ZM204.394 35.14c-1.697-2.863-1.697-2.863-4.822-5.01-4.643-3.22-5.536-3.131-9.643.895-.179.179-.268.626-.447.894-.089 1.879.357 3.668 1.786 4.831 2.143 1.79 4.197 3.668 7.143 4.384 2.857-1.252 4.822-3.31 5.983-5.994ZM-81.598 197.786c2.232 3.489 5.179 6.352 8.929 8.231 1.518.805 2.857.447 4.018-.716 1.964-2.058 1.964-4.026-.179-5.905-3.125-2.684-6.429-5.01-10-6.978-.893-.447-1.786-.716-3.304-.179-.982 1.879-.446 3.847.536 5.547Zm33.483-17.088c-3.036-2.057-5.536-5.278-9.732-4.741-1.608 3.22-1.608 3.22-1.697 6.531 4.018 4.831 9.197 6.888 15.893 5.904-.624-4.115-1.16-5.457-4.464-7.694Zm142.326 66.025c-.089 1.789.893 2.773 1.965 3.489 2.232 1.521 4.196 3.758 6.964 3.936 2.143-.536 3.215-2.057 4.375-3.399 1.072-1.342 1.072-2.774-.178-4.026-2.054-2.147-4.286-4.026-7.322-4.742-2.322 1.253-4.554 2.684-5.804 4.742ZM-173.476-20.686c.803.537 1.607 1.163 2.411 1.7.446.268.803.537 1.25.716.625.268 1.16.626 1.785.716 1.608.447 3.572-.537 4.554-2.237.804-1.342.625-2.863-.714-4.026-3.215-2.952-6.786-5.189-11.34-5.1-1.25 0-2.321.359-2.768 1.611-.536 1.163-.268 2.326.625 3.22 1.25 1.253 2.679 2.416 4.018 3.58.179-.09.179-.18.179-.18ZM6.351 22.794c-1.428 1.7-1.428 2.594-.446 3.757 1.518 1.79 3.66 2.058 5.714 2.148 1.429 2.683 3.393 4.652 6.608 4.294 2.678-.269 5.446-.805 7.5-3.22-2.143-3.222-4.911-5.28-8.483-6.174-1.25 1.074-2.41 1.968-3.571 2.952-3.036-1.073-4.554-3.578-7.322-3.757ZM-99.724 73.162c-1.161 1.968-.893 3.31.893 4.742 1.25 1.073 2.768 1.7 4.375 2.058 3.215.715 6.518.894 9.554 2.326.893.447 1.965.358 2.679-.984-1.34-3.58-4.822-5.01-7.679-7.068-2.232-1.61-4.197-3.758-7.857-3.4-.715.805-1.429 1.521-1.965 2.326Zm364.566-55.647c.089.448.179.985.446 1.343 3.215 4.204 7.769 5.278 12.679 5.367 1.429 0 2.322-1.163 2.768-2.415.536-1.342.268-2.595-.893-3.579-1.339-1.163-2.767-2.326-5-2.684-2.768 2.148-6.25.984-9.732.984-.179.716-.268.895-.268.985Zm-373.673-128.917a8.121 8.121 0 0 0 1.607-1.879c.893-1.253.804-2.595-.268-3.579-1.964-1.7-3.839-3.578-6.786-3.668-1.964.984-3.839 1.879-4.911 4.205 1.429 3.489 4.554 4.831 8.036 6.441 1.072-.626 1.786-1.073 2.322-1.52Zm-85.45 153.43a3.17 3.17 0 0 0 1.072 2.685c2.054 1.878 4.018 3.847 6.607 4.383 1.875-.447 2.5-1.52 3.125-2.683.804-1.521.625-2.953-.535-4.116-2.233-2.236-4.554-4.294-7.858-4.741-2.053 1.163-2.321 2.862-2.411 4.473Zm89.646-186.085c-2.41-2.058-4.821-4.473-8.393-4.115-1.518 1.252-2.053 2.773-1.607 4.741 3.393 3.847 7.411 6.442 13.215 5.279.089-2.863-1.518-4.473-3.215-5.905Zm77.95-67.366c-1.965-.806-3.572.357-3.84 2.505-.09 1.163-.179 2.326.536 3.31 1.607 2.415 3.84 4.115 6.607 4.92 2.322.716 4.286-1.431 3.75-3.757-.536-2.416-2.053-4.026-4.018-5.458-1.071-.447-2.053-1.073-3.036-1.52ZM40.101 38.808c-1.071-1.163-2.41-2.147-3.75-3.31-.09-.716-.09-1.61-.357-2.326-.625-2.774-3.214-4.742-6.072-4.563-.982.09-1.875.716-1.875 2.147.804 2.505 3.661 3.31 5.268 5.279.179 5.815.804 6.62 5.983 8.051 2.143-2.505 2.321-3.578.803-5.278Zm44.109 272.15c.357-1.342.09-2.326-.714-3.041a22.793 22.793 0 0 0-2.322-1.79c-3.66-2.684-5.536-1.968-7.59.716-.535.626-1.25 1.163-1.07 2.505 1.874 2.236 4.464 3.668 7.589 4.652 1.428-1.074 3.125-1.789 4.107-3.042ZM72.603 210.937c-.982-.805-2.232-1.342-3.66-.715-1.25 1.163-1.34 2.773-.447 3.936 2.5 3.31 5.804 5.726 9.822 6.71.982.268 1.964-.269 2.679-2.058-2.59-2.684-5.358-5.368-8.394-7.873Zm72.771-163.54c-1.875-.806-4.018-1.074-6.161-.358-.893.268-1.429 1.61-1.072 2.415 1.161 2.774 3.661 4.026 6.34 4.92 2.143.716 3.75-.357 5.446-1.967-.446-3.042-2.589-4.116-4.553-5.01Zm-163.13 190.737a303.389 303.389 0 0 0-8.215-6.888c-.893-.716-2.054-1.074-3.215-.537-1.339.537-2.143 1.431-2.321 2.773.178 1.342 1.071 2.147 2.232 2.416 3.304.894 6.518 2.057 9.375 4.026.357.268.893.268 1.429.268s.893-.358 1.16-.895c-.178-.268-.178-.894-.446-1.163Zm124.111-87.317c1.607.984 3.392 1.968 5.535.895 1.072-2.684.447-4.831-1.875-6.442-2.589-1.878-5.268-2.326-8.303-.178.178 3.489 2.589 4.473 4.643 5.725Zm-49.11 5.368c1.162 1.163 2.59 2.058 4.287 2.058.893 0 1.607-.269 2.143-.895.892-.984 1.517-2.147 1.696-3.489.09-.805-.09-1.61-.714-2.237-1.34-1.342-2.857-2.236-4.822-1.61-1.518.537-3.214.626-4.375 1.879-.536 1.968.625 3.221 1.786 4.294Zm43.931-35.965c-1.965-1.252-3.929-2.147-6.161-.894-.715 1.879.268 3.042 1.34 4.026 2.856 2.415 5.892 4.294 10.178 4.92-.268-4.115-1.339-5.547-5.357-8.052Zm7.857 50.637c.625 1.253 1.875 1.79 3.572.895-.09-2.326 1.786-4.205 2.321-6.442-.893-2.147-2.411-3.22-4.464-3.489-1.607-.179-2.768.716-4.107 2.326.892 2.237 1.607 4.563 2.678 6.71ZM-73.473-183.511c-2.321.806-4.018 2.416-5 4.653.625 1.789 1.696 2.683 3.393 2.505 1.964-.09 3.84-.269 6.072-.448 1.071-4.115.446-4.92-4.465-6.71Zm6.697 352.042c0 2.058.982 3.758 2.321 5.189 1.25 1.342 2.59 2.505 4.733 2.237.357-.269.803-.448 1.16-.805.536-.627.893-1.342 1.34-2.237-3.483-5.726-4.911-6.352-9.554-4.384Zm37.322-183.044c.625.269 1.25.18 1.965-.268 1.071-1.342.893-2.774-.179-3.937-2.232-2.326-5-3.757-8.304-3.668-1.25 0-2.232.537-2.41 2.416 2.589 2.147 5.446 4.205 8.928 5.457Zm20.001-71.124c1.697.18 2.768-1.163 2.41-2.773-.446-2.505-2.231-3.937-4.196-5.1-1.518-.894-3.035-.715-3.928.537-1.072 1.432-.983 3.131.268 4.473.446.448.982.895.892.716 1.786 1.342 3.036 2.058 4.554 2.147Zm74.467 223.124c-1.072-1.431-2.59-2.505-4.375-2.952-1.072-.269-1.965.358-2.59 1.073-.535.627-.714 1.521-.267 2.326 1.607 3.042 3.75 5.279 7.857 5.547.893-2.505.536-4.384-.625-5.994Zm17.411-99.842c2.054.895 3.572-.179 3.572-2.505 0-.984-.268-1.968-.982-2.684-.983-1.074-2.143-1.968-3.572-2.594-1.25-.537-2.41-.448-3.214.358-.893.984-.893 2.057-.447 3.22.536 1.432 1.697 2.416 2.947 3.4.535.179 1.16.537 1.696.805ZM63.05 125.409a13.59 13.59 0 0 0-3.126-2.326c-1.607-.984-3.035-.715-3.928.537-1.072 1.432-.983 3.221.446 4.384.982.894 2.054 1.61 3.125 2.236 1.429.806 2.768.627 4.108-.357.982-1.7.535-3.221-.625-4.474Zm-111.88 53.858c1.876 1.252 3.662 2.773 6.072 2.863.447 0 .804-.448 1.429-.716-.536-3.489-3.572-4.921-5.982-6.531-1.429-.984-3.125-2.505-5.536-.716.714 2.505 2.232 3.937 4.018 5.1Zm-57.233-259.089c-2.054-.536-4.286.806-5 2.863-.447 1.253.625 2.863 2.589 3.668.625.269 1.25.448 1.875.537 1.964.269 3.572-.716 4.107-2.594.357-1.253-.268-2.684-2.143-3.847-.178-.18-.803-.448-1.428-.627ZM198.143 102.06c1.786.448 3.304-.268 4.108-1.879.714-1.342.357-2.594-1.161-3.846-.982-.806-2.054-1.7-3.393-1.61-1.161.178-2.143.804-3.036 1.52-.446.447-.893.895-1.429 1.521.893 2.773 2.768 3.757 4.911 4.294ZM18.852 78.799c-1.429 2.415-1.34 3.489.267 5.278.983 1.073 2.233 1.968 3.75 2.237 1.34.268 2.59 0 3.93-1.521-1.43-3.937-4.019-5.816-7.947-5.995ZM-66.955-93.867c.982.268 1.965 0 2.59-.895.714-.895 1.339-1.968.714-3.131-1.072-1.969-2.679-3.221-5-3.4-1.429-.089-3.036.984-3.393 2.326-.357 1.253.357 2.147 1.25 2.952.357.269.803.537 1.875 1.342.268 0 1.071.537 1.964.805Zm31.787 242c.893.537 1.964.448 2.768-.268.803-.716.982-1.7.714-2.684-.357-1.253-.982-2.415-1.518-3.668-2.143-.537-4.107-1.7-6.428 0-.447 3.847 1.964 5.278 4.464 6.62Zm.893-234.843c1.071 1.252 2.232 2.415 4.018 2.415 1.16 0 2.143-.805 2.59-1.968.446-.984.267-1.968-.536-2.684-1.608-1.7-3.483-2.863-6.34-2.415-.804 2.773-.804 3.31.268 4.652ZM-114.1 1.77c-1.518-1.879-3.393-2.953-5.893-2.505-1.25 2.594-1.34 2.952-.625 4.115 1.428 2.147 3.214 3.668 6.25 3.31 1.339-1.878 1.428-3.4.268-4.92Zm94.2 205.499c1.428.895 2.946 1.432 4.642 1.163 1.072-.179 1.786-.894 2.054-1.879.268-.805.09-1.61-.447-2.326-.982-1.073-2.232-1.968-3.75-2.147-1.785-.179-3.571-.268-4.91 1.163.624 2.684.892 3.042 2.41 4.026Zm231.882-231.98c2.054.089 3.75-.985 4.286-3.042-.625-1.969-1.875-2.953-3.572-3.221-2.053-.268-3.928.09-5.357 2.326.714 2.684 2.411 3.936 4.643 3.936ZM67.425 32.455c-1.429-1.79-3.125-3.31-5.536-3.22-1.607 1.43-2.054 3.13-.893 4.562 1.607 2.058 3.482 3.936 6.696 3.22.893-1.968.715-3.399-.267-4.562ZM-85.795-69.98c-1.071-3.4-3.571-5.279-6.875-6.263-.804-.268-1.607 0-2.143 1.163.357 2.863 2.59 4.563 4.911 5.905 1.16.715 2.59 1.61 3.929.09.089-.27.267-.627.178-.896ZM3.94 220.777c1.518.537 3.483-.447 4.108-1.878.535-1.253-.09-2.237-.982-3.042-1.072-.984-2.322-1.879-4.197-1.7-.357.268-.982.537-1.429.984-.625.537-1.071 1.253-1.16 2.505.714 1.7 2.053 2.594 3.66 3.131ZM173.321 92.487c-1.071-.627-2.143-.806-3.214-.18-.893.895-.983 1.969-.447 3.132.715 1.342 1.697 2.415 3.215 2.773 2.053.358 4.107.537 6.339.895-2.054-3.847-3.393-5.278-5.893-6.62ZM-14.096 40.955c1.34.984 2.5 2.147 4.286 2.058 1.071 0 1.875-.537 2.232-1.61.268-.806.268-1.7-.268-2.327-1.428-1.61-3.125-2.862-5.446-2.862-1.072 0-1.965.357-2.411 1.342-.357 1.61.536 2.594 1.607 3.4ZM99.212-57.813c-1.34-1.253-2.68-2.326-4.644-2.416-1.16 0-2.142 1.074-1.964 2.237.357 1.878 1.607 3.131 3.125 4.204 1.34.895 2.768 1.7 4.732.627.715-2.058 0-3.49-1.25-4.652ZM-61.063 24.673c-3.75-3.668-4.91-3.668-8.393 0 .982 2.863 3.482 3.4 5.893 3.847 1.786-.895 2.768-2.058 2.5-3.847Zm119.38 259.356c1.25 1.521 2.678 2.863 4.82 3.042.269 0 .447-.358.983-.715-1.696-2.953-1.25-7.426-6.34-8.41-2.053 2.594-.803 4.473.536 6.083Zm156.701-117.824c1.339-1.252.982-2.594-.089-3.847-.983-1.163-2.054-2.147-3.572-2.326-1.25-.179-2.589-.358-3.839 1.074 2.143 4.115 3.214 4.831 7.5 5.099ZM56.174-.825c1.161 1.163 2.411 2.237 4.197 2.326.893 0 1.518-.447 1.964-1.252.447-.805.536-1.7 0-2.326-1.785-2.237-3.75-4.115-7.232-3.49-.179 2.774-.09 3.58 1.071 4.742Zm37.412-26.57c.982-.09 1.875-1.074 1.697-1.969-.447-2.326-3.125-4.741-5.447-4.92-.893-.09-1.607.358-2.053 1.073-.536.716-.626 1.61-.18 2.326.537.806 1.25 1.521 1.608 1.88 1.518.983 2.768 1.788 4.375 1.61ZM-26.507-105.14c.268 1.521 1.34 2.595 2.59 3.4 1.25.805 2.589 1.521 4.017.626 1.25-3.758.09-5.278-5.09-7.068-1.338.805-1.785 1.79-1.517 3.042Zm251.615 243.074c-.892-1.431-2.232-2.415-3.928-2.684-.893-.089-1.607.179-2.143.895-.536.716-.625 1.61-.179 2.326 1.25 2.326 2.947 3.847 5.893 3.847 1.34-1.61 1.161-3.042.357-4.384Zm-323.225-41.78c-.892-.983-1.875-1.789-3.303-1.878-.804 0-1.607.268-2.054 1.073.447 2.774 1.161 3.937 3.572 5.279 1.25.716 2.589 1.61 4.018.089.357-2.057-.983-3.22-2.233-4.562ZM30.102 65.38c.09 1.79 1.34 2.952 2.946 3.4 1.34.357 2.59.268 3.304-1.521-.714-2.416-1.16-5.1-4.286-6.442-1.875 1.253-2.053 2.953-1.964 4.563Zm24.822 96.353c-.982-1.342-2.41-2.147-4.107-2.326-.804-.09-1.607.089-2.143.805-.714.895-.714 1.879-.09 2.684 1.519 2.237 3.394 3.847 6.519 3.489.803-1.968.625-3.4-.179-4.652Zm-12.59 52.784c-1.25-1.074-2.5-2.237-4.285-2.058-1.518.179-2.59 1.968-1.965 3.31.715 1.611 2.143 2.505 3.661 3.221 1.25.626 2.59.537 3.75-.626.536-1.432 0-2.774-1.16-3.847Zm32.77 73.45c1.25 1.879 2.5 3.757 3.839 5.547.536.715 1.429.715 2.054-.09.089-5.904-.983-7.336-5.894-7.157 0 .805-.178 1.432 0 1.7Zm19.822-227.24c-.983-1.162-2.143-1.968-3.661-2.057-.804-.09-1.607.179-2.233 1.163-.446 3.49 2.322 4.742 5.18 6.173 1.964-2.415 2.142-3.668.714-5.278Zm-150.541 88.839c1.071.715 2.321 1.252 3.66.984.983-.179 1.786-.716 2.144-1.789.267-.895 0-1.611-.536-2.237-.893-.984-1.965-1.789-3.304-1.879-1.34-.179-2.59.179-3.66 1.7.624 2.416.714 2.595 1.696 3.221ZM262.878-16.213c-.536 2.595 1.16 3.49 2.5 4.563 2.768 2.147 3.839 2.326 6.786 1.342-2.322-3.31-5.358-4.92-9.286-5.904Zm-381.085 172.04c1.608.984 2.143.805 4.108-1.073-.179-1.7-1.34-2.863-2.679-3.758-1.071-.716-2.232-1.342-3.571-.716-.715 2.684-.179 4.026 2.142 5.547ZM-.792 12.863c-.714-1.163-1.696-1.968-2.946-2.326-.804-.268-1.608-.268-2.322.358s-.893 1.432-.625 2.237c.893 2.684 2.679 4.205 5.893 4.473.625-3.22.625-3.758 0-4.742Zm62.86 234.844c1.696 1.253 3.392 2.505 5.714 1.431.446-2.236-1.25-2.952-2.411-3.847-1.607-1.163-3.214-2.773-5.714-1.878-.447 2.147 1.071 3.31 2.41 4.294ZM-61.777-128.132c-1.071-.269-2.232.447-2.768 1.521-.447.984-.268 1.878.446 2.684.804.805 1.697 1.52 2.947 1.52 1.429 0 2.321-.894 3.393-2.326-.804-2.057-2.232-2.952-4.018-3.399Zm-83.306 259.267c-1.34-.626-2.768-1.342-4.108.09-.446 1.878.982 2.684 2.232 3.399 1.786.984 3.661 2.147 5.983 1.163-1.072-2.773-1.697-3.578-4.107-4.652Zm79.466-88.301c.983 1.61 2.59 2.415 4.197 3.131.625.269 1.25.18 1.875-.268.714-.537.893-1.342.804-2.237-.09-.895-.536-1.52-1.25-2.057-1.072-.716-2.143-1.521-3.929-1.88-1.429.806-2.143 1.7-1.697 3.31ZM3.049 204.406c-.536-1.878-3.304-3.31-5.09-2.773-.893.268-1.696 1.431-1.518 2.237.357 1.878 2.054 3.578 4.018 3.757 1.072.089 1.875-.447 2.59-1.7-.09-.268.178-.984 0-1.521Zm-45.984 15.836c.625 1.878 1.964 2.862 3.928 2.952 1.518-1.253 1.876-2.774 1.25-4.384-.535-1.431-1.874-2.237-3.482-2.058-1.518.627-2.232 1.79-1.696 3.49Zm174.023 15.477c-1.25-.984-2.589-2.058-4.375-1.789-1.16.178-1.964 1.699-1.339 2.683.893 1.521 2.232 2.416 3.75 2.953 1.161.447 2.5.894 3.661-.269.625-1.699-.536-2.684-1.697-3.578ZM12.78 42.476c-.09 1.074.536 1.879 1.34 2.416.803.536 1.607 1.073 2.5 1.431 1.07.447 2.32-.447 2.5-1.61.178-1.163.089-2.326-.804-3.132-.893-.894-1.964-1.789-3.304-1.789-1.518.268-2.143 1.253-2.232 2.684ZM-5.881 147.06c.893 1.252 1.875 2.326 3.393 2.594.892.179 1.607 0 2.143-.715.535-.716.625-1.611.178-2.327-1.25-2.147-2.946-3.399-5.625-2.684-.893 1.342-.714 2.237-.09 3.132Zm162.416 82.933c-1.161.09-2.054 1.432-1.786 2.416.446 1.521 1.964 2.862 3.482 2.862 1.607 0 2.768-.805 2.947-2.773-.982-1.789-2.5-2.684-4.643-2.505Zm-57.145-.805c.536 1.61 1.964 2.147 3.482 2.326 1.518.179 2.947 0 3.483-1.968-.893-2.595-3.126-2.953-5.536-3.131-1.429.805-1.786 1.789-1.429 2.773Zm-184.292-43.032c1.34.626 2.768.894 4.018-.448.268-2.236-1.34-3.131-2.946-3.936-1.429-.716-2.858-.626-3.84.895-.09 2.057 1.25 2.862 2.768 3.489ZM-62.49-72.128c1.071.716 2.232 1.342 3.66.448 1.072-1.968 0-3.31-1.517-4.473-1.43-1.074-2.947-2.058-4.822-.18.09 2.237 1.34 3.31 2.679 4.205Zm-30.537 48.132c-1.518-1.074-2.768-1.073-3.572-.358-.893.895-.535 2.595.893 3.847.982.895 2.143 1.521 3.483 1.521.892 0 1.607-.179 2.142-1.073.268-2.237-1.607-2.953-2.946-3.937Zm334.743-5.815c-1.071-.716-2.321-1.431-3.393.09-.268 1.878.625 3.22 1.965 4.294.892.715 1.964 1.252 3.125.537.625-2.684.357-3.49-1.697-4.921ZM109.569-125.36c.804.269 1.607.09 2.143-.626.446-.537.446-1.253.178-1.879-.803-1.968-2.5-3.042-4.464-3.489-.625-.179-1.25.179-1.697.716-.446.626-.357 1.252-.178 1.878.268.985 1.071 1.611 2.232 2.505.357.179 1.072.627 1.786.895Zm34.108 15.03c-.803-1.252-2.232-1.7-3.303-.895-1.34.985-1.518 2.684-.536 3.847 1.071 1.163 2.232 1.79 4.196 1.342.447-2.684.447-3.041-.357-4.294Zm-227.954 3.31c.982-1.073.447-2.147-.357-2.952-1.607-1.61-3.214-3.221-5.804-2.326-.089 3.668 1.607 5.01 6.161 5.278ZM-2.31 179.267c-1.071 1.521-1.16 2.505-.357 3.489 1.16 1.431 2.857 2.058 4.286 1.521 1.429-.537 2.054-2.416 1.071-3.579-.982-1.163-2.053-2.057-4.018-2.057-.446.268-.803.357-.982.626Zm51.252 15.119c1.875 1.163 3.214.537 4.286-2.147-1.34-1.968-2.858-3.489-5.804-2.684-1.16 2.416-.179 3.758 1.518 4.831Zm-126.79-51.352c-.804-.269-1.607.089-2.143.716-.536.715-.536 1.52-.09 2.236.894 1.432 2.144 2.416 3.84 2.595 1.25.089 2.143-.537 2.41-2.237-.803-1.789-2.231-2.863-4.017-3.31Zm121.433-157.1c-2.233-.626-4.197-.536-6.161.359 0 2.594.089 2.594 3.303 4.741 1.697-1.52 3.036-2.773 2.858-5.1Zm62.412 6.621c.893 1.074 1.875 1.79 3.304 1.52 1.071-.178 1.786-1.699 1.161-2.683-1.161-1.968-2.768-3.131-5.09-2.773-1.428 1.61-.357 2.773.625 3.936ZM86.443 158.69c1.607 1.521 3.036 3.758 6.072 2.595.535-3.4.446-3.49-3.929-5.547-1.518.358-2.321 1.073-2.143 2.952ZM20.37 115.747c-.983-.894-1.965-1.7-3.393-1.7-.625 0-1.25.179-1.697.806-.536.805-.446 1.61.179 2.236 1.071 1.253 2.321 2.237 3.928 2.684.625.179 1.25-.089 1.965-.716.446-1.52-.09-2.505-.983-3.31ZM203.053-48.599c1.429-.179 2.322-1.163 2.143-2.773-3.036-2.863-3.036-2.863-6.25-.268.714 2.236 2.054 3.31 4.107 3.041ZM-173.119 86.94c.982.447 1.875.268 2.679-.537.625-.626.982-1.253.803-2.147-.268-1.074-.982-1.61-2.053-1.879-1.34-.268-2.59.09-3.751 1.521.179 1.61 1.072 2.505 2.322 3.042Zm266.17 175.976c.535-1.163.089-2.505-1.161-3.31-1.25-.805-2.679-.537-3.483.447-.803 1.074-.446 2.416.893 3.31 1.429 1.074 3.036.895 3.75-.447ZM34.566 85.329c-1.696-.984-3.303-.805-3.839.358-.536 1.074 0 2.237 1.429 3.221 1.517 1.073 3.125 1.79 4.821.358-.625-2.595-.803-2.953-2.41-3.937Zm-151.612 52.069c1.072 1.163 2.5 1.699 3.393 1.252.982-.537 1.34-1.431 1.25-2.415-.089-1.432-.982-2.416-2.321-2.774-1.072-.358-1.875.09-2.59.895-.714.894-.625 2.058.268 3.042Zm68.217-107.536c.625.089 1.25-.269 1.607-.895s.446-1.253.09-1.879c-.804-1.252-2.054-2.236-3.572-2.415-1.25-.18-2.233.268-2.5 1.968.714 1.879 2.321 2.952 4.375 3.22Zm10.536-68.62c-1.518 1.343-1.34 2.774-.268 4.295.714.984 1.607 1.7 2.947 1.252.982-.626 1.696-1.52 1.517-3.22-1.875-1.88-1.875-1.79-4.196-2.327Zm47.412-84.006c.536-.985 0-2.237-1.34-3.311-1.606-1.252-3.124-1.431-3.928-.626-.982.984-.357 2.863 1.429 4.026 1.518 1.074 3.214.984 3.84-.089Zm-155.005 31.76c-1.25-.806-2.768-.537-3.393.626-.536.894-.179 2.236.804 3.041 1.16.895 2.678.806 3.393-.268a2.472 2.472 0 0 0-.804-3.4Zm117.861 200.041c-1.34-.357-2.5-.089-2.857 1.521 1.786 2.237 2.321 2.684 3.482 3.132 1.16.447 1.786.089 2.857-1.7-.625-1.611-1.785-2.595-3.482-2.953Zm-117.147-16.014c-.625-1.163-1.607-1.968-3.125-1.431-1.428 3.4-1.161 3.847 2.143 5.189 1.518-.984 1.786-2.326.982-3.758Zm114.29-220.44c1.071.806 2.143 1.611 3.482.537.893-1.7-.268-2.773-1.25-3.757-1.071-.984-2.232-1.879-4.018-.805-.446 1.789.447 3.041 1.786 4.025Zm16.34 57.258c-1.25-.806-2.679-1.342-3.75.357.982 3.579 1.785 4.116 5.357 3.669.982-1.88-.179-3.042-1.607-4.026ZM184.214.07c1.429 1.074 2.768 2.863 4.911 1.879.447-.805.536-1.521.089-2.058-1.428-1.79-3.125-3.22-5.893-3.578-.268 2.773-.268 2.952.893 3.757ZM-10.614 184.366c-1.16 1.611-1.16 1.611-.982 1.969.804 2.057 2.143 3.131 4.822 3.041.535-3.31.178-3.668-3.84-5.01ZM34.388-23.101c.09-3.668-1.072-4.652-5.179-4.116.357 3.847 1.875 5.01 5.179 4.116Zm122.504 106.82c.804.984 1.875 1.79 3.214 1.79 1.161 0 1.965-1.343 1.429-2.416-1.072-2.058-2.679-3.042-4.911-2.505-.893 1.252-.536 2.236.268 3.131ZM-22.489-150.856c.982.358 1.875.179 2.59-.716.624-.805.982-1.7.446-2.684-.447-.805-1.25-.984-2.054-.984-1.16.09-2.232.268-2.946 1.342-.179 1.7.714 2.505 1.964 3.042ZM10.1-19.702c-1.518.627-2.053 1.521-1.696 2.863.357 1.253 1.34 1.879 2.41 2.237.983.358 1.965.358 3.036-.895-.089-2.773-1.696-3.757-3.75-4.205ZM-29.9 158.332c-.625-.984-1.429-1.789-2.679-2.057-.625-.09-1.25-.09-1.875.805-.089 2.684 1.429 4.205 4.108 4.652 1.607-.984 1.25-2.147.446-3.4Zm55.002-349c.625.09 1.34-.179 1.607-.805.357-.626.357-1.252-.09-1.789-1.25-1.611-2.232-1.7-4.642-.358.357 2.147 1.607 2.773 3.125 2.952Zm-166.524 255.51c-.714 2.595-.357 3.758 1.429 4.473 1.161.448 1.964-.358 2.589-2.684-.892-1.431-2.143-2.326-4.018-1.789ZM39.12 61.8c1.16.716 2.41 1.342 3.393-.268-1.16-3.31-1.607-3.668-5.268-3.668-.893 2.058.536 3.042 1.875 3.936Zm-25-42.585c.357-.268.535-.805.535-1.252 0-1.163-1.071-2.237-2.5-2.505-.625-.09-1.25 0-1.875.179-.804.179-1.25 1.252-.893 1.968.268.537.714 1.074.804 1.342 1.607.895 2.946 1.073 3.928.268Zm-25.18 223.929c-.893-.447-1.875-.626-2.679.627.625 2.415 2.232 3.578 5.179 3.578.268-2.594-.982-3.489-2.5-4.205ZM-175.262-36.431c-.625-3.31-.982-3.668-4.822-4.384 1.429 4.115 1.786 4.384 4.822 4.384Zm300.635 161.035c-.804-.358-1.607-.358-2.322.09-.803.447-1.16 1.163-.892 2.236.982 1.342 2.232 2.416 4.196 2.505 1.161-2.415.893-4.026-.982-4.831Zm-136.88-23.529c1.161.09 2.233-1.163 1.965-2.237-.357-1.43-1.875-2.594-3.215-2.326-1.339.18-1.875 1.163-1.785 2.505.535 1.342 1.607 1.969 3.035 2.058Zm56.252 142.964c-.357-.805-.982-1.253-1.875-1.253-.803-.089-1.607.179-1.964.985-.357.805-.09 1.61.446 2.236.625.716 1.429 1.253 2.768.805.893-.894 1.072-1.878.625-2.773Zm162.149-125.697c-.625 1.61.357 2.415 1.518 3.131 1.25.805 2.5 1.521 4.196 0-2.321-3.489-2.857-3.758-5.714-3.131Zm-22.144 41.869c1.071.358 2.232.537 2.857-.895-1.875-3.22-2.321-3.489-5.893-2.863.179 2.416 1.429 3.221 3.036 3.758Zm-317.153-125.25c.446-1.61-.715-2.416-1.786-3.131-.982-.626-1.965-1.253-3.125-.269.893 3.221 1.785 3.847 4.911 3.4Zm50.001-51.71c-.803-.269-1.607-.09-2.143.805-.089 1.79 1.161 2.505 2.59 3.042.803.268 1.607.09 2.143-.716.089-1.879-1.161-2.684-2.59-3.131Zm26.965-76.134c.893.626 2.143.626 2.59-.09.625-.895.625-1.79 0-2.684-.715-1.163-1.518-1.252-3.929-.447-.268 1.61.357 2.505 1.34 3.22ZM64.746 201.543c-1.071-.357-1.875 0-2.232 1.432.893 2.058 2.232 3.31 5.09 2.415.088-2.505-1.25-3.31-2.858-3.847ZM-87.134-83.669c-.893-.536-1.786-.805-2.768 0-.447 1.163.09 1.969.893 2.595.982.805 1.964 1.79 3.75.895.268-1.88-.714-2.774-1.875-3.49ZM196.983-21.49c-.715-3.31-.804-3.489-4.733-3.578 1.607 3.757 2.143 4.115 4.733 3.578Zm-87.861-59.583c1.072 1.431 2.322 2.594 4.286 2.147 0-2.863 0-2.863-3.571-4.384-.982.716-1.25 1.521-.715 2.237Zm-2.41 349.179c2.321 2.952 2.768 3.042 4.464 1.252-2.143-2.952-2.589-3.041-4.464-1.252Zm9.107-217.756c-.178 1.968.982 2.952 2.59 3.489.982.268 1.964.09 2.232-1.61-2.59-2.684-2.59-2.684-4.822-1.88ZM-76.866 91.86c-.446-.09-.982 0-1.34.18-.624.357-.713.983-.624 1.7.178 1.073.893 1.699 1.875 2.057.982.358 1.875.447 2.5-.626-.893-2.595-1.072-2.863-2.41-3.31ZM-199.37 21.72c.982.806 2.411.627 2.857-.357.357-.895 0-1.521-.714-2.058-.893-.626-1.964-.447-2.5.358-.447.805-.357 1.52.357 2.057Zm381.173 154.684c.893.179 1.608-.179 1.697-1.521-1.072-1.431-2.411-2.415-4.464-1.431.892 2.505.892 2.594 2.767 2.952Zm-267.33-312.678c.447-2.057-.893-2.683-2.232-3.131-.893-.268-1.518.179-1.786 1.342.893 1.521 1.965 2.505 4.018 1.789Zm7.679 314.378c.446 1.968 1.518 2.863 4.018 2.863-.625-3.4-1.34-3.847-4.018-2.863Zm-.09-65.488c-.178-2.773-.446-3.042-4.107-3.131.715 2.505 1.965 3.31 4.108 3.131ZM-.612 242.339c.803.537 1.696.805 2.589 0-.536-2.684-.536-2.684-3.75-3.131-.625 1.61.178 2.505 1.16 3.131ZM59.21-168.212a3.63 3.63 0 0 0-1.696-.716c-.715-.089-1.25.447-1.25 1.163-.09 1.074.625 1.61 2.589 2.147.09 0 .268-.089.714-.268.447-.984.268-1.789-.357-2.326Zm-101.075 32.923c.983.894 1.965 1.699 3.393.268-.535-1.789-1.518-2.684-3.393-2.773-1.071.894-.714 1.789 0 2.505Zm294.832 223.84c-1.161 2.504-.715 3.04 2.5 3.31.268-1.969-.625-2.953-2.5-3.31ZM-76.419-44.842c.803-1.79-.358-2.505-1.429-3.22-.804-.538-1.697-.985-2.59.357.715 1.79 1.786 3.042 4.019 2.863Zm113.753-111.92c1.429 2.595 1.429 2.595 4.018 1.521-1.875-2.863-1.875-2.863-4.018-1.521Zm115.094 318.225c-.893-.358-1.518 0-1.876 1.073.447 1.7 1.608 2.595 3.929 2.505.536-2.237-.625-3.042-2.053-3.578ZM43.763 29.862c1.25.179 1.875-.269 1.697-1.61-.983-1.253-2.143-1.969-4.018-.627.625 1.342 1.25 2.058 2.321 2.237Zm-164.916 56.273c-.536-1.79-1.607-2.595-3.572-2.237.893 2.773.893 2.773 3.572 2.237Zm239.115-157.1c1.25 1.969 1.25 1.969 3.393 1.521-.714-2.773-1.518-3.041-3.393-1.52ZM108.319 78.62c-.714-.448-1.429-.627-2.143.358.446 1.341 1.161 2.415 3.125 2.236.536-1.431-.089-2.147-.982-2.594ZM140.552-95.3c-.803-.537-1.696-.984-2.589.358.714 1.342 1.607 2.505 3.661 2.326.714-1.252-.179-2.058-1.072-2.684Zm34.287 129.813c1.071-.448 1.339-1.253.625-2.326-1.161-.716-2.143-.448-3.214.805.357 1.61 1.339 1.968 2.589 1.52Zm67.145-27.018c.536.357 1.339.268 1.607-.358.536-1.163-.178-1.7-1.25-1.969h-.446c-.982.895-.804 1.7.089 2.327Zm-353.672-56.184c-.804-.268-1.608-.09-1.518 1.074.535 1.073 1.339 1.7 2.946 1.431.625-1.61-.268-2.147-1.428-2.505Zm346.35 117.824c-.178-1.342-.892-1.878-2.589-1.7.714 2.237.714 2.237 2.589 1.7ZM24.298 145.628c.447 1.7 1.518 2.416 3.215 2.326.178-2.594-.804-3.31-3.215-2.326Zm-32.233 81.323c1.071 1.432 1.071 1.432 3.304 1.879-1.608-2.415-1.607-2.415-3.304-1.879ZM-149.19-17.107c-.535-.09-.893.268-1.16.984.446.716.982 1.431 2.053 1.61.536.09.893-.268 1.072-.805-.09-1.163-.983-1.61-1.965-1.79ZM71.621-63.718c-.178-1.7-.982-2.505-3.214-2.505.714 3.22.714 3.22 3.214 2.505Zm90.985-42.406c-.535-.358-1.16-.626-1.696.089.179 1.253.893 1.611 2.321 1.342.09-.805-.267-1.252-.625-1.431ZM79.568-56.561c-.447.895-.447 1.61.446 2.058 1.072.537 1.875.179 2.233-.984-.358-1.521-1.25-1.968-2.68-1.074Zm-6.965-102.168c.447.358.893.268 1.25-.089.536-.537.447-1.253-.089-1.7-.357-.358-.893-.269-1.34.089-.356.447-.267 1.342.18 1.7ZM-101.956-21.133c-.446-1.253-1.25-1.79-2.589-1.61.267 2.326.625 2.594 2.589 1.61Zm179.56-128.292c-.09 0-.268.269-.268.358.089 1.074.714 1.432 2.678 1.074-1.071-.984-1.339-1.79-2.41-1.432Zm-144.47.716c.626 1.163 1.072 1.968 2.5 1.7-.357-1.7-.357-1.7-2.5-1.7ZM47.87 107.517c.447 1.431 1.25 1.968 2.68 1.252-1.072-2.237-1.072-2.237-2.68-1.252ZM-110.885-93.689c.625.358 1.25.269 1.518-.536-.179-.984-.804-1.342-1.964-1.253-.536.984-.179 1.521.446 1.79ZM276.36 5.08c-.268-.09-.625.179-.803.358-.268.447-.09.984.446 1.073.268.09.536-.178.804-.357.178-.537 0-.985-.447-1.074ZM29.21-176.622c.178 0 .535-.447.445-.626-.178-.984-.803-1.253-2.053-.895.09 1.342.714 1.7 1.607 1.521ZM46.887-6.55c.179.09.536-.09.715-.18-.09-.268-.179-.626-.358-.715-.178-.09-.535.09-.803.179.178.268.268.626.446.716Zm43.484-89.107c.268 0 .625-.268.714-.537.179-.536-.178-.984-.803-.984-.268 0-.536.358-.715.448 0 .626.268.984.804 1.073Zm-202.596 275.64c-.268-.716-.715-.985-1.697-.985.447.985.804 1.521 1.697.985ZM-174.28 21.899c-.178 0-.625.18-.714.358-.179.447.089.895.625.984.178 0 .446-.268.714-.358.179-.536-.089-.894-.625-.984ZM-74.009-211.96c-.089-.09-.357 0-.446 0v.805c.268 0 .536-.09.803-.09-.089-.268-.178-.536-.357-.715ZM-.078 26.551c-.089-.268-.178-.715-.357-.894-.357-.269-.803-.358-1.696-.627.357 1.969.893 2.416 2.053 1.521Zm87.414 99.306c.179.089.625 0 .804-.179.446-.448.089-1.342-.536-1.342-.268 0-.536.268-.714.358-.09.447 0 .984.446 1.163ZM-84.366-26.769c-.447-.806-.625-1.61-2.143-.895.625.537.893 1.342 2.143.895Zm-75.003 59.046c-.178-.179-.714-.268-.803-.179-.536.447-.179.805.178 1.074.179.09.536-.09.804-.18-.089-.178 0-.625-.179-.715Zm102.504-51.71c-.179-.626-.447-1.074-1.25-.716.178.626.446 1.074 1.25.716Zm3.928 242.537h-.267l.178.269.09-.269ZM85.64-72.217a.271.271 0 0 0-.358 0c-.267.268-.267.537 0 .626.09 0 .268-.09.358-.179.089-.268.089-.358 0-.447ZM167.07 160.3l-.357-.089.089.268.268-.179ZM50.192-143.252c-2.322 3.132-2.947 4.831-2.947 9.305 3.84 4.025 8.036 7.246 14.733 5.188-.268-8.946-4.464-14.045-11.786-14.493Z"/></g></svg>