<svg width="98" height="98" fill="none" xmlns="http://www.w3.org/2000/svg"><path d="M48.954 0c3.988.008 7.367 2.321 10.77 4.643 2.014 1.374 4.027 2.755 6.151 3.632 2.132.884 4.516 1.326 6.893 1.76 4.011.743 7.99 1.477 10.802 4.296 2.81 2.819 3.569 6.846 4.327 10.896.45 2.393.9 4.8 1.784 6.925.884 2.124 2.258 4.13 3.632 6.12 2.313 3.363 4.603 6.695 4.595 10.674-.008 3.988-2.321 7.367-4.642 10.77-1.374 2.014-2.756 4.027-3.633 6.151-.884 2.132-1.326 4.516-1.76 6.893-.742 4.011-1.477 7.99-4.296 10.802-2.818 2.81-6.845 3.569-10.896 4.327-2.392.45-4.8.9-6.924 1.784-2.124.884-4.13 2.258-6.12 3.632-3.363 2.314-6.695 4.603-10.675 4.595-3.987-.007-7.367-2.32-10.77-4.642-2.013-1.374-4.027-2.756-6.15-3.632-2.133-.885-4.517-1.327-6.894-1.761-4.01-.742-7.99-1.477-10.801-4.295-2.811-2.82-3.57-6.846-4.327-10.897-.45-2.392-.9-4.8-1.785-6.924-.884-2.124-2.258-4.13-3.632-6.12C2.29 56.266-.007 52.934 0 48.954c.008-3.987 2.321-7.367 4.643-10.77 1.374-2.013 2.755-4.027 3.632-6.15.884-2.132 1.326-4.517 1.76-6.894.743-4.01 1.477-7.99 4.296-10.801s6.846-3.57 10.896-4.327c2.393-.45 4.8-.9 6.925-1.785 2.124-.884 4.13-2.258 6.12-3.632C41.641 2.29 44.974-.008 48.953 0Zm10.352 5.25C55.997 2.994 52.713.743 48.954.735c-3.75-.008-6.988 2.22-10.257 4.47-2.02 1.389-4.058 2.795-6.26 3.703-2.196.908-4.636 1.366-7.068 1.823-3.94.743-7.856 1.477-10.517 4.13-2.66 2.653-3.371 6.514-4.09 10.415-.442 2.416-.892 4.84-1.808 7.043-.908 2.203-2.314 4.248-3.711 6.285C2.985 41.91.734 45.196.726 48.954c-.007 3.75 2.22 6.988 4.47 10.257 1.39 2.021 2.795 4.058 3.703 6.261.908 2.195 1.366 4.635 1.824 7.067.742 3.94 1.476 7.856 4.13 10.517 2.652 2.661 6.513 3.372 10.414 4.09 2.416.442 4.84.893 7.043 1.808 2.203.909 4.248 2.314 6.285 3.712 3.308 2.258 6.593 4.508 10.351 4.516 3.75.008 6.988-2.219 10.257-4.47 2.021-1.389 4.058-2.794 6.261-3.702 2.195-.908 4.635-1.366 7.067-1.824 3.94-.742 7.856-1.477 10.517-4.13 2.661-2.653 3.372-6.514 4.09-10.414.443-2.416.893-4.84 1.809-7.043.908-2.203 2.313-4.248 3.71-6.286 2.259-3.308 4.51-6.593 4.517-10.35.008-3.751-2.219-6.989-4.469-10.258-1.39-2.02-2.795-4.058-3.703-6.261-.908-2.195-1.366-4.635-1.824-7.067-.742-3.94-1.477-7.856-4.13-10.517-2.653-2.66-6.514-3.371-10.414-4.09-2.416-.442-4.84-.892-7.043-1.808-2.195-.916-4.24-2.314-6.285-3.711Z" fill="#555452"/><path fill-rule="evenodd" clip-rule="evenodd" d="M48.954 73.179c-10.193-7.09-19.32-14.947-24.027-23.277-12.191-21.595 12.878-33.905 24.027-17.845 11.15-16.052 36.218-3.743 24.027 17.845-4.706 8.33-13.833 16.186-24.027 23.277Z" fill="#4E7D64"/><path d="M58.681 63.47c-3.174-.758-5.369-2.053-6.893-3.514a11.012 11.012 0 0 1-3.213-5.874 4.746 4.746 0 0 1-2.867-1.887 4.7 4.7 0 0 1-.82-3.545l.015-.095a4.733 4.733 0 0 1 1.95-3.024 4.782 4.782 0 0 1 2.788-.869c2.108-5.306 6.016-8.606 10.462-10.099a17.303 17.303 0 0 1 3.079-.734 19.109 19.109 0 0 1 5.843.055c2.977.498 5.835 1.69 8.235 3.53 3.72 2.85 6.349 7.232 6.625 12.941a4.739 4.739 0 0 1 2.36 1.721 4.76 4.76 0 0 1 .87 3.49l-.016.103a4.777 4.777 0 0 1-1.935 3.095c-.932.663-2.1.995-3.316.853a11.055 11.055 0 0 1-4.943 4.516c-1.91.885-4.414 1.406-7.659 1.098a7.92 7.92 0 0 1-2.487.908 8.986 8.986 0 0 1-3.087.023 8.797 8.797 0 0 1-2.922-1.026 7.768 7.768 0 0 1-2.069-1.666Z" fill="#555452"/><path d="M70.604 36.206c.948.742 1.627 1.595 2.085 2.503a6.726 6.726 0 0 1 .702 3.482 6.575 6.575 0 0 1-.995 3.032c-.678 1.066-1.665 1.76-2.763 2.116-.83.269-1.713.34-2.574.23a5.891 5.891 0 0 1-2.424-.87c-.956-.607-1.714-1.508-2.085-2.66-.41-1.272-.19-2.432.395-3.325a3.9 3.9 0 0 1 1.382-1.279 3.716 3.716 0 0 1 1.816-.458c1.026.008 2.069.45 2.874 1.461a.957.957 0 0 1-.158 1.35.957.957 0 0 1-1.35-.158c-.41-.513-.908-.734-1.39-.734-.308 0-.608.08-.884.23-.276.15-.513.37-.687.639-.284.442-.387 1.034-.174 1.697.23.703.695 1.248 1.287 1.627.49.308 1.05.505 1.635.584a3.947 3.947 0 0 0 1.745-.15 3.133 3.133 0 0 0 1.729-1.319c.395-.615.64-1.358.695-2.14a4.796 4.796 0 0 0-.498-2.479c-.418-.829-1.097-1.602-2.1-2.242-1.279-.821-3.071-1.406-5.488-1.595-.915.142-1.816.355-2.7.648-4.106 1.381-7.706 4.516-9.522 9.624l-.277.774-.86-.158a2.794 2.794 0 0 0-2.093.482 2.835 2.835 0 0 0-1.168 1.8l-.008.056a2.876 2.876 0 0 0 .49 2.123 2.868 2.868 0 0 0 1.847 1.153l.174.024c.055.008.11.008.166.016l.805.04.103.805a9.15 9.15 0 0 0 2.755 5.456c1.35 1.295 3.356 2.447 6.309 3.103l.34.079.205.268a5.699 5.699 0 0 0 1.713 1.445 7.006 7.006 0 0 0 2.298.798 7.02 7.02 0 0 0 2.44-.016 5.782 5.782 0 0 0 2.084-.813l.292-.19.34.04c3.008.331 5.282-.111 6.972-.9a9.148 9.148 0 0 0 4.374-4.272l.356-.727.773.221c.048.016.103.024.158.04a2.877 2.877 0 0 0 2.29-.458 2.868 2.868 0 0 0 1.153-1.848l.008-.063a2.837 2.837 0 0 0-2.337-3.214c-.206 0-.64-.094-.869-.126l-.008-.821c-.071-5.416-2.456-9.554-5.898-12.191-1.627-1.256-3.498-2.171-5.48-2.74Zm-6.166 20.071a.637.637 0 0 1-.869.245.637.637 0 0 1-.245-.869c.221-.394.56-.71.963-.9.395-.19.845-.26 1.303-.19a2.16 2.16 0 0 1 1.177.6c.316.317.537.72.624 1.17a.637.637 0 1 1-1.256.229.88.88 0 0 0-.26-.482.878.878 0 0 0-.49-.245.899.899 0 0 0-.545.079.755.755 0 0 0-.403.363Zm4.469 2.985a.64.64 0 1 1 .52 1.168 7.699 7.699 0 0 1-2.337.608 9.358 9.358 0 0 1-2.558-.086 9.488 9.488 0 0 1-2.455-.75 7.755 7.755 0 0 1-2.022-1.335.63.63 0 0 1-.031-.9.63.63 0 0 1 .9-.032 6.34 6.34 0 0 0 1.682 1.106c.64.3 1.358.52 2.124.647.773.127 1.524.15 2.226.071a5.949 5.949 0 0 0 1.95-.497Zm7.824-4.588a.639.639 0 0 1-1.279-.015c0-.04 0-.072.008-.103a1.774 1.774 0 0 0-1.54-1.91c-.023 0-.047 0-.07-.009a1.775 1.775 0 0 0-1.903 1.516.643.643 0 0 1-1.272-.181 3.085 3.085 0 0 1 1.145-1.982c.6-.466 1.374-.71 2.195-.624a3.04 3.04 0 0 1 2.053 1.121 3.01 3.01 0 0 1 .663 2.187Zm-20.49-3.276a.636.636 0 0 1-.765.481.636.636 0 0 1-.482-.766 3.053 3.053 0 0 1 5.527-1.003c.419.64.6 1.438.442 2.243a.641.641 0 0 1-.742.513.641.641 0 0 1-.513-.742 1.776 1.776 0 0 0-.26-1.303 1.759 1.759 0 0 0-1.09-.758 1.756 1.756 0 0 0-1.343.23 1.723 1.723 0 0 0-.773 1.105Z" fill="#fff"/><path d="M28.717 65.245c-3.237.324-5.748-.19-7.667-1.066a11.017 11.017 0 0 1-4.966-4.492 4.739 4.739 0 0 1-3.325-.845 4.75 4.75 0 0 1-1.942-3.087l-.016-.095c-.19-1.28.15-2.519.853-3.498a4.758 4.758 0 0 1 2.353-1.737c.205-4.556 1.91-8.275 4.477-11.046l-.048-.174c-.11-.426-.205-.877-.276-1.334a12.25 12.25 0 0 1-.181-1.367c-.08-1.026-.016-2.005.276-2.779.332-.892.932-1.524 1.895-1.705.103-.016.197-.032.284-.04.521-.04 1.477.087 2.55.284 1.532.285 3.325.703 4.304.94a6.122 6.122 0 0 1 2.708-.466c.663-.426 1.769-1.137 2.906-1.816 1.255-.75 2.503-1.437 3.15-1.61.087-.024.182-.04.284-.056.971-.15 1.745.245 2.353.98.53.639.916 1.539 1.185 2.534.11.418.205.876.276 1.334.087.466.15.924.182 1.366.008.063.008.119.015.182 3.34 1.768 6.183 4.706 7.888 8.938a4.755 4.755 0 0 1 2.796.853 4.727 4.727 0 0 1 1.958 3.016v.008l.015.079v.008a4.723 4.723 0 0 1-.813 3.553 4.778 4.778 0 0 1-2.85 1.903 11.047 11.047 0 0 1-3.19 5.882c-1.516 1.46-3.711 2.771-6.877 3.545a7.683 7.683 0 0 1-2.053 1.674 9.045 9.045 0 0 1-6.009 1.027 7.512 7.512 0 0 1-2.495-.893Z" fill="#555452"/><path d="M28.55 39.086c-.67.545-1.152 1.16-1.468 1.8a4.754 4.754 0 0 0-.49 2.487c.064.782.309 1.516.711 2.14a3.19 3.19 0 0 0 1.737 1.31 4.09 4.09 0 0 0 1.753.143 4 4 0 0 0 1.635-.592 3.061 3.061 0 0 0 1.287-1.635c.213-.663.102-1.255-.19-1.697a1.946 1.946 0 0 0-.687-.632 1.868 1.868 0 0 0-.884-.229c-.482.008-.98.229-1.39.742a.956.956 0 1 1-1.5-1.184c.805-1.01 1.84-1.46 2.866-1.469.64-.008 1.264.15 1.816.45.553.3 1.035.735 1.39 1.272.584.892.813 2.052.403 3.324a4.933 4.933 0 0 1-2.069 2.668 5.822 5.822 0 0 1-2.424.877 5.804 5.804 0 0 1-2.574-.221 5.072 5.072 0 0 1-2.771-2.1 6.591 6.591 0 0 1-1.011-3.032 6.53 6.53 0 0 1 .181-2.132c-1.066.616-2.06 1.145-2.613 1.295-.087.023-.182.039-.284.055-.971.15-1.745-.245-2.353-.98a5.329 5.329 0 0 1-.3-.402c-2.077 2.527-3.388 5.843-3.42 9.862l-.007.813-.869.142a2.84 2.84 0 0 0-2.33 3.23l.009.055a2.838 2.838 0 0 0 3.285 2.33c.055-.009.11-.024.157-.032.072-.016.119-.032.166-.04l.774-.229.355.727a9.109 9.109 0 0 0 4.39 4.256c1.698.773 3.964 1.215 6.98.86l.34-.04.292.19c.6.387 1.31.663 2.092.806.759.142 1.588.15 2.432 0a6.973 6.973 0 0 0 2.298-.814 5.685 5.685 0 0 0 1.706-1.453l.205-.268.34-.079c2.953-.671 4.95-1.832 6.292-3.135a9.125 9.125 0 0 0 2.732-5.463l.095-.806.806-.04c.047 0 .11-.007.173-.015a2.858 2.858 0 0 0 2.013-1.184c.42-.593.616-1.35.482-2.125l-.008-.055a2.846 2.846 0 0 0-1.168-1.8 2.803 2.803 0 0 0-2.093-.466l-.86.158-.277-.766C45.337 42.19 43 39.496 40.205 37.8c-.04.166-.087.331-.142.482-.332.892-.932 1.523-1.895 1.705-.103.016-.197.032-.284.04-.537.039-1.556-.103-2.677-.309a82.922 82.922 0 0 1-4.461-.986l-.008.007a2.525 2.525 0 0 1-1.042.419c-.371.063-.75.047-1.121-.047l-.024-.024Zm-2.455 12.373c.908-.158 1.808.67 2.006 1.84.197 1.168-.38 2.242-1.287 2.4-.908.158-1.808-.671-2.006-1.84-.197-1.169.38-2.242 1.287-2.4Zm11.062-1.888c.908-.157 1.809.672 2.006 1.84.197 1.169-.38 2.243-1.287 2.4-.908.158-1.808-.67-2.006-1.84-.197-1.168.38-2.242 1.287-2.4Zm-1.666 7.841c.142-.324.522-.466.845-.324a.64.64 0 0 1 .324.845 4.502 4.502 0 0 1-1.342 1.706 4.424 4.424 0 0 1-1.982.868 4.398 4.398 0 0 1-2.156-.166 4.382 4.382 0 0 1-1.832-1.16.63.63 0 0 1 .024-.9.63.63 0 0 1 .9.023 3.23 3.23 0 0 0 1.31.83 3.15 3.15 0 0 0 1.54.11 3.186 3.186 0 0 0 1.414-.616c.41-.324.742-.742.955-1.216Z" fill="#fff"/><path d="M26.017 34.238a73.255 73.255 0 0 0-3.277-.695c-.971-.181-1.816-.3-2.219-.268-.063.008-.11.008-.15.016-.458.086-.75.418-.924.892-.22.592-.268 1.39-.197 2.242.031.41.087.821.158 1.232v.024c.063.402.15.813.252 1.208.221.829.53 1.563.932 2.053.324.387.71.6 1.169.529.04-.008.095-.016.15-.032.584-.158 1.926-.916 3.213-1.705.79-.474 1.548-.964 2.124-1.335a4.847 4.847 0 0 1-.963-1.09 1.801 1.801 0 0 1-.103-.157l-3.253.552a.643.643 0 0 1-.742-.52.643.643 0 0 1 .521-.743l2.985-.513a2.485 2.485 0 0 1 .024-1.027c.07-.229.165-.458.3-.663Zm5.716 3.395c.971.237 2.424.569 3.695.806 1.027.19 1.927.323 2.353.292.064-.008.11-.008.15-.016.458-.087.75-.41.924-.884.221-.593.269-1.39.198-2.243-.032-.41-.087-.82-.158-1.232v-.015c-.064-.41-.15-.813-.253-1.216-.221-.83-.529-1.564-.932-2.053-.323-.387-.71-.6-1.168-.53-.04.009-.095.017-.15.032-.521.143-1.666.774-2.827 1.47-.703.418-1.43.876-2.037 1.262.197.15.363.332.497.545.182.277.308.6.364.956l2.984-.514a.643.643 0 0 1 .742.522.643.643 0 0 1-.52.742l-3.254.552-.047.182a5.36 5.36 0 0 1-.56 1.342Zm-3.071.142c.015.008.031.008.04.016.039.016.086.032.125.04l.048.008c.205.055.403.063.592.031.19-.031.38-.11.545-.22.047-.032.087-.064.134-.096a.446.446 0 0 1 .063-.047c.364-.324.656-.83.837-1.532.04-.166.071-.324.08-.49.03-.394-.032-.71-.182-.947-.142-.22-.371-.371-.671-.45a1.575 1.575 0 0 0-.316-.047 4.652 4.652 0 0 0-1.137.055 4.086 4.086 0 0 0-1.09.324c-.103.047-.19.094-.276.15-.26.173-.427.395-.49.647-.063.269-.024.6.142.956.063.142.142.284.245.434.403.6.86.995 1.31 1.168Z" fill="#FC908D"/><path fill-rule="evenodd" clip-rule="evenodd" d="M23.016 56.963a1.975 1.975 0 1 1-.002 3.95 1.975 1.975 0 0 1 .002-3.95Zm19.171-4.035a1.976 1.976 0 1 0 1.974 3.427 1.976 1.976 0 1 0-1.974-3.426Z" fill="#FFD8C9"/><path fill-rule="evenodd" clip-rule="evenodd" d="M30.146 70.96c-.529-.592-1.342-1.018-2.44-1.097h-.015c-.08-.016-.158-.016-.253-.016s-.142-.016-.19-.016c-1.437 0-2.652.545-3.529 1.532-.876.971-1.39 2.36-1.437 4.066-.016.127-.016.221-.016.3 0 .19.332.332.498.332.19 0 .173-.142.173-.332v-.268c.048-1.548.498-2.795 1.264-3.656.75-.829 1.8-1.295 3.047-1.295h.174c.063 0 .127 0 .221.016.924.063 1.58.403 1.998.876.418.482.624 1.082.608 1.69 0 .032-.016.08-.016.127a2.898 2.898 0 0 1-.94 1.934c-.189.174-.402.332-.64.45a3.295 3.295 0 0 0-1.341-.497h-.063c-.064-.016-.127-.016-.19-.032-.498-.063-1.034-.032-1.121.671v.016c-.048.482.237.703.592.797.268.08.56.064.766.064.466-.032.908-.111 1.279-.269.158.127.284.269.403.419.45.592.655 1.358.623 2.124-.031.781-.315 1.531-.844 2.06-.45.466-1.098.75-1.92.75-.094 0-.173 0-.268-.015-.655-.032-1.113-.237-1.39-.498a1.17 1.17 0 0 1-.386-.86c0-.016 0-.032.016-.08.015-.331.173-.591.386-.765.127-.095.269-.158.419-.19a.602.602 0 0 1 .434.063c.237.095.45.332.593.735.063.173.252.268.418.205.174-.063.268-.253.205-.418-.22-.593-.56-.956-.955-1.122a1.336 1.336 0 0 0-.813-.11 1.505 1.505 0 0 0-.719.331 1.751 1.751 0 0 0-.655 1.232v.126c0 .466.19.956.592 1.343.387.363.987.624 1.8.687h.316c1.019.015 1.816-.364 2.392-.94.656-.655 1.003-1.579 1.05-2.503.032-.908-.22-1.848-.781-2.566l-.284-.332a3.31 3.31 0 0 0 .513-.402 3.548 3.548 0 0 0 1.153-2.361c0-.047.015-.095.015-.158a3.056 3.056 0 0 0-.742-2.148Zm49.665 6.72a.318.318 0 0 0-.434.173c-.032.11-.08.206-.11.285-.048.094-.096.173-.127.252-.19.348-.387.703-.656.971-.252.237-.528.387-.907.387-.095 0-.19-.016-.285-.031a.882.882 0 0 1-.45-.284c.032-.048.063-.095.08-.143.654-1.152 1.065-2.566 1.112-3.434v-.016l.016-.08c0-.497-.079-.939-.284-1.247-.205-.331-.529-.513-.987-.529-.592-.015-1.113.3-1.563.766l.126-.331a.323.323 0 0 0-.205-.419.323.323 0 0 0-.419.206c-.031.078-.063.173-.094.252-.15.387-.75 2.045-1.438 3.94-.173.34-.387.703-.655.971a1.237 1.237 0 0 1-1.176.356.83.83 0 0 1-.466-.3c.703-1.185 1.2-2.67 1.216-3.656.016-.56-.142-.971-.387-1.264-.3-.347-.719-.497-1.169-.513h-.016c-.86 0-1.61.719-2.187 1.674-.276.466-.647 1.24-.924 2.077a.314.314 0 0 0-.094.126l-.016.047c-.513 1.153-1.263 2.843-2.235 2.843h-.015c-.174 0-.285-.063-.348-.158-.079-.126-.11-.316-.11-.497v-.032c0-.268.063-.576.158-.908.094-.347.22-.719.363-1.082.031-.079.063-.19.11-.3.237-.623.593-1.563.593-2.329 0-.83-.364-1.469-1.47-1.469-.497 0-.97.285-1.42.735l.205-.577c.095-.237.19-.497.332-.923.047-.111.063-.19.094-.269.095-.3.253-.719.387-1.113a.323.323 0 0 0-.205-.419.328.328 0 0 0-.419.19c-.173.497-.3.876-.386 1.12l-.095.27c-.063.205-.19.544-.316.923-.079.19-.142.38-.3.83v.015c-.19.45-.655 1.769-1.121 3.08-.016 0-.016.015-.016.015v.016l-.016.016c-.45 1.263-.924 2.59-1.097 3.08a.323.323 0 0 0 .205.418c.174.047.363-.032.418-.221.19-.53.656-1.84 1.098-3.064l.016-.016c.316-.829.829-1.855 1.405-2.59.403-.497.845-.86 1.232-.86.608 0 .813.363.813.813 0 .655-.331 1.516-.56 2.092-.032.11-.064.206-.111.3a14.65 14.65 0 0 0-.371 1.137c-.095.371-.174.735-.174 1.066v.048c0 .316.063.608.221.86.174.269.45.45.892.45h.016c.814 0 1.445-.647 1.935-1.445.031.838.395 1.445 1.358 1.445.75 0 1.547-.64 2.124-1.42.205.173.434.3.687.378.142.032.284.048.434.048.355 0 .655-.087.916-.237-.758 2.132-1.484 4.145-1.65 4.61a.323.323 0 0 0 .205.42.323.323 0 0 0 .419-.206c.157-.466.797-2.25 1.5-4.2.158.37.481.623 1.066.655h.063c.908.031 1.705-.592 2.345-1.453.174.174.403.284.64.363.142.032.3.048.434.048.576 0 1.034-.237 1.374-.577.331-.331.576-.734.781-1.137.048-.095.095-.19.142-.268.048-.11.095-.206.127-.316a.318.318 0 0 0-.174-.434Zm-3.356-.016a.318.318 0 0 0-.402.237c-.08.268-.11.513-.11.75 0 .3.047.545.141.766-.529.813-1.2 1.39-1.919 1.374h-.047c-.45-.016-.56-.38-.545-.814.032-.347.127-.75.237-1.113l.11-.269c.624-1.579 1.58-4.003 2.859-3.971.221.016.363.095.45.237.126.19.174.497.158.86v.095c-.032.671-.316 1.706-.766 2.653.016-.126.032-.268.08-.402a.348.348 0 0 0-.246-.403Zm-5.937 0c-.19-.047-.364.047-.403.237-.079.268-.11.513-.11.75 0 .284.031.513.126.734-.513.734-1.169 1.358-1.753 1.358-1.564 0-.063-3.766.545-4.753.45-.782 1.018-1.358 1.61-1.358.285.016.53.11.687.3.158.174.253.434.237.813-.015.719-.316 1.753-.781 2.685.015-.11.031-.237.078-.364a.336.336 0 0 0-.236-.402ZM59.953 70.1a.896.896 0 0 0-.655-.387h-.032c-.174-.016-.331 0-.497.063a1.404 1.404 0 0 0-.482.268c-.174.127-.316.3-.419.482 0 0-.015.016-.015.032-.11.19-.206.386-.253.608a2.894 2.894 0 0 0-.095 1.216 5.947 5.947 0 0 1-.94.031c-.718-.016-1.468-.205-2.123-.64-.577-.379-1.082-.94-1.453-1.72a.32.32 0 0 0-.434-.159.317.317 0 0 0-.158.435c.434.908 1.018 1.547 1.69 1.982a4.68 4.68 0 0 0 2.487.75c.387.015.734 0 1.066-.032.173.624.45 1.263.75 1.919.497 1.113 1.034 2.266.908 3.466v.031c-.127 1.153-.672 1.95-1.406 2.456-.734.498-1.658.687-2.487.592h-.016c-.063 0-.142-.015-.205-.015-.782-.143-1.39-.53-1.784-1.066a2.565 2.565 0 0 1-.514-1.848c0-.063.016-.11.016-.158.11-.703.45-1.358.987-1.8a2.241 2.241 0 0 1 1.721-.545c.364.032.719.237.956.56.237.316.37.72.331 1.17a.338.338 0 0 0 .316.362.32.32 0 0 0 .348-.3c.063-.623-.143-1.184-.45-1.626-.364-.466-.893-.782-1.438-.83a2.9 2.9 0 0 0-2.203.703c-.639.545-1.05 1.343-1.184 2.172-.016.079-.031.142-.031.205a3.43 3.43 0 0 0 .64 2.314 3.43 3.43 0 0 0 2.202 1.31c.079.016.158.032.253.032h.015c.972.095 2.046-.126 2.922-.719.876-.592 1.548-1.547 1.69-2.905v-.048c.142-1.358-.419-2.605-.971-3.798-.285-.608-.545-1.2-.703-1.784.205-.063.387-.126.56-.221.593-.284 1.003-.75 1.232-1.421v-.032l.047-.19c.016-.063.016-.126.032-.189-.016-.268-.079-.521-.221-.726Zm-.466.702c0 .048-.016.095-.016.127-.015.047-.015.094-.031.142-.174.481-.466.829-.908 1.05-.11.047-.253.095-.371.142a2.588 2.588 0 0 1 .063-.924c.047-.158.11-.316.19-.434l.015-.032c.08-.126.174-.237.269-.315a.785.785 0 0 1 .3-.158.378.378 0 0 1 .22-.032h.016c.095 0 .158.047.206.11a.637.637 0 0 1 .047.324Zm-9.175 6.862a.302.302 0 0 0-.418.174c-.466 1.113-1.003 1.918-1.58 2.518a5.02 5.02 0 0 1-1.8 1.248c-.095.047-.205.079-.316.126.221-.64.435-1.263.656-1.887.316-.876.576-1.627.829-2.33.363-.97.876-2.344 1.153-3.047v-.016l.016-.016a.323.323 0 0 0-.206-.418.304.304 0 0 0-.418.19v.015l-.016.016c-.269.719-.798 2.092-1.137 3.064-.063.173-.142.363-.205.529 0 .015 0 .015-.016.031l-.016.048c-.513 1.152-1.248 2.842-2.219 2.842h-.008c-.173 0-.284-.063-.347-.158-.095-.126-.11-.316-.11-.497h-.016v-.032c.015-.205.063-.481.158-.829a25.7 25.7 0 0 1 .363-1.184c.079-.237.252-.687.45-1.248.22-.608.529-1.468.86-2.376.064-.174-.015-.364-.189-.419-.174-.063-.363.016-.419.19-.3.797-.607 1.642-.876 2.376-.197.537-.34.963-.426 1.208a.326.326 0 0 0-.056.087c-.047.11-.078.205-.126.284-.032.095-.079.174-.11.253-.19.347-.387.703-.656.971-.252.237-.529.387-.924.387-.094 0-.173-.016-.268-.031-.19-.064-.363-.158-.482-.316.032-.032.048-.08.063-.11.656-1.154 1.066-2.567 1.114-3.436v-.015l.016-.08c0-.497-.08-.939-.285-1.247-.205-.331-.529-.513-.987-.529-.592-.016-1.113.3-1.563.766l.19-.529.363-1.003c.015-.079.063-.205.11-.363.095-.268.221-.655.348-1.018a.323.323 0 0 0-.206-.419.323.323 0 0 0-.418.205c-.127.348-.253.75-.348 1.05-.047.143-.094.269-.11.332l-.363 1.003c-.45 1.295-.908 2.605-1.327 3.845v.016l-.023.063c-.514 1.153-1.264 2.827-2.227 2.827-.19 0-.3-.063-.363-.158-.08-.127-.11-.316-.11-.498v-.031c0-.205.062-.482.157-.83.079-.347.205-.75.363-1.184.142-.434.363-1.002.56-1.579.317-.845.609-1.642.782-2.092.064-.158-.015-.363-.189-.419a.328.328 0 0 0-.419.19c-.078.205-.173.434-.268.703a1.556 1.556 0 0 0-.205-.316 1.598 1.598 0 0 0-1.082-.545h-.142c-.892.016-1.627.75-2.203 1.706-.766 1.294-1.232 3.032-1.247 3.908-.016.497.063.94.284 1.247.205.332.513.514.97.53.798.015 1.454-.53 1.983-1.295v.015c0 .316.063.608.22.861.19.268.467.45.893.45h.016c.695 0 1.255-.466 1.713-1.105.056.631.356 1.105 1.169 1.152h.063c.924.032 1.721-.608 2.36-1.484.19.19.42.316.672.387.142.031.284.047.434.047.545 0 .971-.205 1.311-.513-.008.055-.008.11-.016.158v.047c0 .316.063.608.221.861.19.268.466.45.892.45h.032c.434 0 .83-.19 1.169-.497-.127.363-.253.702-.371 1.066-.419.11-.83.173-1.216.252-1.453.269-2.582.466-2.717 1.832v.221c.016.363.143.719.387 1.003.253.268.624.466 1.122.513.11.016.22.016.347.016.75-.032 1.247-.403 1.627-.971.347-.498.56-1.137.781-1.769l.19-.545c.284-.079.56-.174.829-.3a5.716 5.716 0 0 0 2.029-1.405c.624-.656 1.184-1.532 1.706-2.716.047-.206-.032-.411-.206-.474Zm-5.187 5.187c-.206.577-.403 1.169-.703 1.611-.253.371-.592.656-1.098.671-.094 0-.19 0-.268-.015-.332-.032-.545-.143-.703-.316a.942.942 0 0 1-.22-.56v-.143c.094-.86 1.002-1.034 2.17-1.232.285-.063.561-.11.861-.174l-.04.158Zm-4.043-5.187a.318.318 0 0 0-.403.237c-.079.268-.11.513-.11.75 0 .284.047.513.126.718-.545.83-1.216 1.437-1.95 1.422h-.055c-.45-.016-.561-.38-.545-.814.031-.347.126-.75.237-1.113l.11-.269c.624-1.579 1.58-4.003 2.858-3.971.221.016.364.095.45.237.127.19.174.497.158.86v.095c-.031.64-.284 1.611-.702 2.519.016-.079.031-.174.063-.268a.343.343 0 0 0-.237-.403Zm-8.393 3.048c-.206-.016-.348-.095-.435-.237-.126-.206-.173-.498-.173-.877.015-.797.45-2.392 1.152-3.576.466-.782 1.035-1.374 1.643-1.39.031 0 .063 0 .095.016.237.015.45.126.623.316.174.189.269.481.285.844 0 .032 0 .063-.016.11-.11.253-.221.561-.363.893-.624 1.587-1.548 3.932-2.811 3.9Zm-5.409-4.77a1.798 1.798 0 0 1-.576-.031c-.064-.016-.11-.032-.11-.079v-.016c.03-.126.22-.11.386-.094.047 0 .11.015.174.031h.047c.205.032.387.079.56.142-.15.032-.307.047-.481.047Zm-.545-3.64c.11-.236.285-.434.45-.576.158-.142.332-.237.498-.268.166-.032.3-.206.268-.371a.338.338 0 0 0-.387-.285c-.284.063-.56.206-.813.403-.237.221-.45.482-.608.782-.434.86-.797 2.013-1.153 3.221-.702 2.314-1.468 4.809-3.016 5.409-.142.063-.3.095-.434.126-.419.08-.83.016-1.153-.142a1.36 1.36 0 0 1-.703-.718v-.016a1.34 1.34 0 0 1-.079-.269c-.047-.3-.031-.576.048-.844v-.016c.094-.348.284-.656.529-.893.237-.236.513-.386.797-.434a.861.861 0 0 1 .45.016.323.323 0 0 0 .403-.237c.047-.174-.047-.363-.221-.403a1.72 1.72 0 0 0-.75-.031c-.419.079-.814.3-1.137.608a2.707 2.707 0 0 0-.719 1.2v.016a2.676 2.676 0 0 0-.063 1.121c.032.142.063.268.11.387.016.016.016.016.016.031.206.482.561.845 1.035 1.066.45.221 1.002.3 1.547.206.19-.032.371-.095.56-.158 1.84-.719 2.654-3.372 3.404-5.843.355-1.145.703-2.274 1.121-3.087ZM22.882 25.575l-.426.055c.023.268.015.521-.032.742-.047.221-.158.45-.332.671a1.445 1.445 0 0 1-.497.41 1.595 1.595 0 0 1-1.232.104 1.782 1.782 0 0 1-.6-.324c-.19-.15-.34-.316-.45-.506a1.657 1.657 0 0 1-.213-.6 1.477 1.477 0 0 1 .031-.615c.056-.206.15-.395.293-.577.173-.221.363-.379.576-.474.205-.094.434-.157.671-.197l-.07-.458a2.37 2.37 0 0 0-.412.087c-.134.04-.26.087-.386.15-.127.063-.245.15-.364.245a2.678 2.678 0 0 0-.355.37 2.034 2.034 0 0 0-.434 1.564c.04.269.126.521.268.758a2.29 2.29 0 0 0 1.303 1.034c.268.08.537.103.798.08.26-.024.513-.103.758-.237.244-.127.457-.308.64-.545.118-.15.204-.292.275-.434.072-.143.119-.285.15-.427.032-.142.056-.292.056-.434a1.672 1.672 0 0 0-.016-.442Zm54.852-.506a.704.704 0 0 1 .245-.118.656.656 0 0 1 .276.008.93.93 0 0 1 .285.134c.094.063.181.15.268.253.134.166.23.347.292.544.064.198.095.419.087.664l.45-.008c0-.269-.04-.521-.11-.75a2.19 2.19 0 0 0-.395-.703 1.486 1.486 0 0 0-.403-.371c-.15-.095-.3-.158-.45-.19a1.122 1.122 0 0 0-.458 0 .99.99 0 0 0-.418.206c-.135.11-.237.22-.3.34a.846.846 0 0 0-.103.402c0 .15.024.308.079.49.055.181.134.379.245.592.094.197.166.37.213.513.047.142.071.26.071.363a.53.53 0 0 1-.245.458.602.602 0 0 1-.56.119c-.206-.056-.395-.19-.569-.403a1.974 1.974 0 0 1-.355-.687 2.275 2.275 0 0 1-.055-.782l-.45-.016c-.024.332.007.64.094.916.087.285.23.553.434.806.127.158.261.292.411.395.15.102.3.165.458.205.158.031.316.031.466 0 .158-.032.308-.11.442-.213.253-.198.38-.435.387-.719.008-.284-.087-.64-.292-1.058a4.275 4.275 0 0 1-.23-.529 1.258 1.258 0 0 1-.07-.379c0-.103.023-.197.063-.268a.73.73 0 0 1 .197-.214Zm-3.268-1.437 2.953-.616-.395-.37-2.432.528.418-2.447-.41-.387-.474 2.984-1.121 1.185.34.323 1.12-1.2Zm-1.8-2.282c.173-.229.307-.465.386-.734.08-.26.11-.529.08-.797a2 2 0 0 0-.238-.774 2.236 2.236 0 0 0-.568-.663 2.036 2.036 0 0 0-.782-.395 1.895 1.895 0 0 0-.813-.04 2.177 2.177 0 0 0-1.382.814 2.347 2.347 0 0 0-.387.734c-.079.26-.11.529-.079.797a2 2 0 0 0 .237.774c.134.245.324.466.569.663.244.198.505.324.781.395.276.071.545.087.814.04a2.177 2.177 0 0 0 1.381-.814Zm-.388-.292a1.953 1.953 0 0 1-.505.45 1.86 1.86 0 0 1-.592.221c-.206.032-.41.024-.624-.031a1.504 1.504 0 0 1-.592-.3 1.519 1.519 0 0 1-.427-.506 1.578 1.578 0 0 1-.11-1.24 1.91 1.91 0 0 1 .821-1.05c.19-.11.387-.18.592-.22.206-.032.41-.024.624.031.213.055.41.15.592.3.182.142.332.316.427.505.102.198.157.395.181.608.024.214 0 .419-.07.632a1.69 1.69 0 0 1-.317.6Zm-4.184-4.919 1.2.687.213-.371-2.803-1.61-.213.37 1.2.687-1.84 3.198.403.23 1.84-3.19Zm-5.26-.876a1.97 1.97 0 0 0 .111-.821 1.981 1.981 0 0 0-.213-.766c-.126-.237-.3-.45-.52-.632a2.456 2.456 0 0 0-.79-.434l-1.35-.458-1.327 3.9 1.35.458c.308.103.6.15.892.134.292-.015.553-.078.798-.189.245-.11.458-.268.64-.474.18-.205.323-.442.41-.718Zm-.457-.15a1.632 1.632 0 0 1-.813.947 1.48 1.48 0 0 1-.624.15 1.907 1.907 0 0 1-.71-.11l-.917-.308 1.05-3.088.916.308c.245.087.458.198.632.348a1.574 1.574 0 0 1 .553 1.105 1.67 1.67 0 0 1-.087.648Zm-5.338-.395-1.982-3.703-.426-.08-.71 4.06.45.078.584-3.324 2.037 3.79.363.063.71-4.058-.45-.08-.576 3.254Zm-5.772-4.145-.434-.032-2.203 3.987.474.04.576-1.05 2.235.181.395 1.122.497.039-1.54-4.287Zm.498 2.7-1.871-.15 1.105-2.021.766 2.171Zm-8.638-1.271a.612.612 0 0 1 .024-.269.635.635 0 0 1 .15-.237.844.844 0 0 1 .252-.173c.103-.048.221-.08.356-.103a2 2 0 0 1 .616.024c.205.047.41.134.615.26l.221-.394a2.307 2.307 0 0 0-.702-.285 2.214 2.214 0 0 0-.798-.023 1.59 1.59 0 0 0-.529.158 1.354 1.354 0 0 0-.395.292 1.05 1.05 0 0 0-.236.386c-.048.143-.064.3-.04.466.024.174.071.316.142.435a.862.862 0 0 0 .292.292c.127.079.277.142.458.181.182.048.395.08.632.095.221.016.403.048.553.08.142.03.26.078.347.126.087.055.15.11.19.189.04.071.07.158.078.253a.637.637 0 0 1-.181.544c-.15.15-.363.245-.64.277-.284.04-.544.024-.773-.048a2.524 2.524 0 0 1-.703-.347l-.245.379c.276.19.553.316.837.387.284.071.592.087.916.04.205-.024.387-.08.553-.159.166-.079.3-.173.41-.292.11-.118.19-.252.237-.402.047-.15.063-.316.04-.49-.04-.316-.182-.553-.419-.703-.237-.15-.592-.244-1.058-.292a3.274 3.274 0 0 1-.576-.079 1.204 1.204 0 0 1-.363-.134.57.57 0 0 1-.198-.19 1.363 1.363 0 0 1-.063-.244Zm-2.1-.648-2.906.656.908 4.019 2.93-.664-.095-.41-2.48.56-.316-1.405 2.196-.497-.095-.411-2.195.497-.308-1.373 2.448-.553-.087-.419Zm-4.485 3.625.679 1.729.434-.166-1.5-3.838-.434.166.663 1.706-2.211.868-.663-1.705-.434.166 1.5 3.837.434-.166-.68-1.729 2.212-.868Zm-6.072.781 1.2-.687-.213-.37-2.803 1.61.213.371 1.2-.687 1.84 3.198.403-.23-1.84-3.205Zm-1.674 2.803a2.185 2.185 0 0 0-.624-.552 2.043 2.043 0 0 0-2.337.165c-.245.19-.434.419-.569.664a2.036 2.036 0 0 0-.236.781 2.1 2.1 0 0 0 .079.798c.079.26.205.513.379.734.173.229.387.41.616.553a2.04 2.04 0 0 0 2.337-.166c.244-.19.434-.419.568-.663.134-.253.213-.514.237-.782a2.1 2.1 0 0 0-.079-.797 2.019 2.019 0 0 0-.371-.735Zm-.379.308c.142.19.253.387.316.592.063.213.087.419.07.632a1.547 1.547 0 0 1-.616 1.105c-.189.143-.386.245-.591.293a1.583 1.583 0 0 1-1.232-.19 1.819 1.819 0 0 1-.505-.45 1.96 1.96 0 0 1-.316-.592 1.73 1.73 0 0 1-.071-.632c.016-.205.079-.41.181-.6.103-.19.245-.363.435-.505.19-.142.387-.245.592-.292a1.583 1.583 0 0 1 1.232.19c.197.11.363.26.505.45Zm-4.232 6.317 2.013-1.927-.3-.308-1.674 1.603-2.55-2.669-.34.324 2.85 2.977Z" fill="#555452"/></svg>