<svg width="129" height="129" fill="none" xmlns="http://www.w3.org/2000/svg"><path d="M64.046 0c5.216.01 9.638 3.037 14.09 6.074 2.634 1.797 5.268 3.605 8.047 4.752 2.789 1.157 5.909 1.735 9.018 2.303 5.248.971 10.454 1.932 14.131 5.62 3.678 3.688 4.669 8.956 5.661 14.255.589 3.13 1.178 6.28 2.335 9.06 1.157 2.778 2.954 5.402 4.752 8.005 3.026 4.4 6.022 8.76 6.012 13.966-.011 5.217-3.037 9.638-6.074 14.09-1.798 2.635-3.606 5.269-4.752 8.048-1.157 2.789-1.736 5.908-2.304 9.018-.971 5.247-1.932 10.454-5.619 14.131-3.688 3.678-8.956 4.669-14.256 5.661-3.13.589-6.28 1.177-9.059 2.334-2.779 1.157-5.403 2.955-8.006 4.752-4.4 3.027-8.76 6.023-13.966 6.012-5.216-.01-9.638-3.037-14.09-6.074-2.634-1.797-5.268-3.605-8.047-4.752-2.79-1.157-5.909-1.735-9.018-2.303-5.248-.971-10.454-1.932-14.131-5.62-3.678-3.687-4.67-8.956-5.661-14.255-.59-3.13-1.178-6.28-2.335-9.06-1.157-2.778-2.954-5.402-4.752-8.005C2.996 73.612-.01 69.252 0 64.046c.01-5.217 3.037-9.638 6.074-14.09 1.797-2.634 3.605-5.269 4.752-8.047 1.157-2.79 1.735-5.909 2.303-9.018.971-5.248 1.932-10.454 5.62-14.132 3.688-3.677 8.956-4.669 14.255-5.66 3.13-.59 6.28-1.178 9.06-2.335 2.778-1.157 5.402-2.955 8.005-4.752C54.48 2.996 58.84-.01 64.046 0Zm13.542 6.87C73.26 3.914 68.963.97 64.046.96c-4.907-.01-9.142 2.903-13.419 5.847-2.644 1.819-5.31 3.657-8.192 4.845-2.871 1.188-6.063 1.787-9.245 2.386-5.154.971-10.278 1.932-13.76 5.403-3.48 3.47-4.41 8.522-5.35 13.625-.579 3.161-1.168 6.332-2.366 9.215-1.188 2.882-3.026 5.557-4.855 8.222C3.905 54.831.961 59.13.95 64.046c-.01 4.906 2.903 9.142 5.847 13.418 1.818 2.645 3.657 5.31 4.845 8.192 1.188 2.872 1.787 6.064 2.386 9.245.971 5.155 1.932 10.279 5.403 13.76 3.47 3.481 8.522 4.411 13.625 5.351 3.16.578 6.332 1.167 9.214 2.365 2.882 1.188 5.558 3.027 8.223 4.855 4.328 2.955 8.625 5.899 13.542 5.909 4.907.011 9.142-2.902 13.42-5.847 2.644-1.818 5.309-3.656 8.19-4.844 2.873-1.188 6.064-1.787 9.246-2.387 5.155-.971 10.278-1.931 13.76-5.402 3.481-3.471 4.41-8.522 5.35-13.625.579-3.161 1.168-6.333 2.366-9.215 1.188-2.882 3.027-5.557 4.855-8.222 2.955-4.329 5.899-8.626 5.909-13.543.01-4.907-2.903-9.142-5.847-13.418-1.818-2.645-3.657-5.31-4.845-8.192-1.188-2.872-1.787-6.064-2.386-9.245-.971-5.155-1.932-10.279-5.402-13.76-3.471-3.481-8.523-4.41-13.626-5.35-3.16-.58-6.332-1.168-9.214-2.366-2.872-1.199-5.547-3.027-8.223-4.856Z" fill="#fff"/><path fill-rule="evenodd" clip-rule="evenodd" d="M64.046 95.738C50.71 86.462 38.768 76.183 32.612 65.285 16.662 37.033 49.46 20.93 64.046 41.94c14.586-21.001 47.383-4.897 31.434 23.345-6.157 10.898-18.098 21.177-31.434 30.453Z" fill="#5B8B72"/><path d="M76.772 83.036c-4.153-.992-7.025-2.686-9.018-4.597a14.407 14.407 0 0 1-4.205-7.686 6.21 6.21 0 0 1-3.75-2.469 6.148 6.148 0 0 1-1.074-4.638l.02-.124a6.193 6.193 0 0 1 2.552-3.956 6.257 6.257 0 0 1 3.647-1.136c2.758-6.942 7.871-11.26 13.687-13.212a22.636 22.636 0 0 1 4.029-.961c.051-.01.103-.02.144-.02a25 25 0 0 1 7.5.092c3.894.651 7.634 2.21 10.774 4.618 4.866 3.729 8.305 9.462 8.667 16.93a6.198 6.198 0 0 1 3.089 2.252 6.234 6.234 0 0 1 1.136 4.566l-.021.135a6.248 6.248 0 0 1-2.531 4.049 6.216 6.216 0 0 1-4.338 1.116 14.461 14.461 0 0 1-6.467 5.908c-2.5 1.157-5.774 1.84-10.02 1.436-.96.558-2.066.961-3.254 1.188-1.27.238-2.644.258-4.039.031a11.51 11.51 0 0 1-3.822-1.343c-1.064-.599-1.983-1.343-2.706-2.18Z" fill="#555452"/><path d="M92.37 47.367c1.24.97 2.128 2.086 2.727 3.274a8.8 8.8 0 0 1 .92 4.556 8.599 8.599 0 0 1-1.302 3.966c-.888 1.395-2.18 2.304-3.615 2.769a7.75 7.75 0 0 1-3.368.3 7.706 7.706 0 0 1-3.171-1.137c-1.25-.795-2.242-1.973-2.727-3.481-.538-1.663-.248-3.182.516-4.349a5.103 5.103 0 0 1 1.808-1.673 4.861 4.861 0 0 1 2.376-.6c1.343.01 2.706.59 3.76 1.912.434.547.34 1.332-.207 1.766a1.252 1.252 0 0 1-1.766-.207c-.537-.671-1.188-.96-1.818-.96-.403 0-.796.103-1.157.3a2.49 2.49 0 0 0-.899.836c-.372.578-.506 1.353-.227 2.221.3.92.909 1.632 1.684 2.128.64.403 1.374.661 2.138.764.764.104 1.56.042 2.283-.196.909-.29 1.715-.857 2.262-1.725a5.99 5.99 0 0 0 .91-2.8 6.276 6.276 0 0 0-.652-3.243c-.547-1.085-1.436-2.097-2.748-2.934-1.673-1.074-4.018-1.838-7.179-2.086a21.975 21.975 0 0 0-3.533.847c-5.371 1.807-10.082 5.908-12.458 12.592l-.361 1.012-1.126-.206a3.656 3.656 0 0 0-2.737.63 3.71 3.71 0 0 0-1.53 2.355l-.01.072a3.763 3.763 0 0 0 .64 2.779 3.752 3.752 0 0 0 2.418 1.508l.227.031c.073.01.145.01.217.02l1.054.052.134 1.054a11.97 11.97 0 0 0 3.605 7.138c1.767 1.694 4.39 3.203 8.254 4.06l.444.103.269.351c.578.744 1.343 1.385 2.241 1.89.878.497 1.89.858 3.006 1.044a9.181 9.181 0 0 0 3.192-.02 7.565 7.565 0 0 0 2.727-1.065l.383-.248.444.052c3.935.434 6.91-.145 9.121-1.178a11.965 11.965 0 0 0 5.723-5.588l.465-.95 1.012.289c.062.02.134.03.207.052.072.02.144.03.217.04a3.76 3.76 0 0 0 2.778-.64 3.754 3.754 0 0 0 1.509-2.417l.01-.082a3.727 3.727 0 0 0-.672-2.727 3.708 3.708 0 0 0-2.386-1.478c-.268 0-.836-.124-1.136-.165l-.01-1.074c-.093-7.087-3.213-12.5-7.717-15.95-2.128-1.642-4.576-2.84-7.169-3.584Zm-8.068 26.259a.833.833 0 0 1-1.136.32.833.833 0 0 1-.32-1.137c.29-.516.733-.93 1.26-1.177a2.896 2.896 0 0 1 1.705-.248c.61.103 1.136.382 1.539.785.413.413.702.94.816 1.529a.834.834 0 1 1-1.642.3 1.15 1.15 0 0 0-.341-.63 1.15 1.15 0 0 0-.641-.321c-.258-.041-.506 0-.713.103a.987.987 0 0 0-.527.475Zm5.847 3.904a.837.837 0 1 1 .682 1.529 10.08 10.08 0 0 1-3.058.796c-1.064.113-2.19.082-3.347-.114a12.407 12.407 0 0 1-3.212-.981c-1.023-.476-1.911-1.065-2.645-1.746a.824.824 0 0 1-.041-1.178.824.824 0 0 1 1.178-.041 8.298 8.298 0 0 0 2.2 1.446c.837.392 1.777.682 2.779.847 1.012.165 1.993.196 2.913.093a7.782 7.782 0 0 0 2.551-.65Zm10.237-6.002a.835.835 0 0 1-.837.817.833.833 0 0 1-.836-.837c0-.052 0-.093.01-.134a2.314 2.314 0 0 0-.506-1.653 2.32 2.32 0 0 0-1.508-.847c-.031 0-.062 0-.093-.01a2.323 2.323 0 0 0-2.49 1.983.841.841 0 0 1-1.663-.238 4.036 4.036 0 0 1 1.498-2.593 3.98 3.98 0 0 1 2.872-.816 3.977 3.977 0 0 1 2.686 1.467c.63.775.97 1.797.867 2.861ZM73.58 67.242a.832.832 0 0 1-1.002.63.832.832 0 0 1-.63-1.002 3.993 3.993 0 0 1 7.231-1.312c.547.836.785 1.88.578 2.933a.839.839 0 0 1-.97.672.839.839 0 0 1-.672-.971 2.323 2.323 0 0 0-.341-1.704 2.301 2.301 0 0 0-1.426-.992 2.297 2.297 0 0 0-1.756.3c-.496.31-.878.815-1.012 1.446Z" fill="#fff"/><path d="M37.57 85.357c-4.236.424-7.52-.248-10.03-1.394a14.414 14.414 0 0 1-6.498-5.878 6.2 6.2 0 0 1-4.35-1.105 6.216 6.216 0 0 1-2.54-4.04l-.021-.123a6.256 6.256 0 0 1 1.116-4.576 6.226 6.226 0 0 1 3.078-2.273c.268-5.96 2.5-10.826 5.857-14.452-.02-.072-.041-.154-.062-.227a17.96 17.96 0 0 1-.361-1.746 16.035 16.035 0 0 1-.238-1.787c-.103-1.343-.02-2.623.361-3.636.434-1.167 1.22-1.993 2.48-2.231.134-.02.258-.041.372-.052.681-.051 1.931.114 3.336.372 2.004.372 4.349.92 5.63 1.23a8.016 8.016 0 0 1 1.735-.507 7.714 7.714 0 0 1 1.808-.103c.868-.558 2.314-1.488 3.802-2.376 1.642-.981 3.274-1.88 4.121-2.107a3.4 3.4 0 0 1 .372-.073c1.27-.196 2.283.32 3.078 1.281.693.837 1.199 2.015 1.55 3.316.145.548.269 1.147.362 1.746.113.61.196 1.209.237 1.787.01.083.01.155.02.238 4.37 2.314 8.09 6.156 10.32 11.693a6.22 6.22 0 0 1 3.657 1.116 6.184 6.184 0 0 1 2.562 3.946v.01l.02.104v.01a6.179 6.179 0 0 1-1.063 4.648 6.251 6.251 0 0 1-3.73 2.49 14.452 14.452 0 0 1-4.173 7.696c-1.983 1.91-4.855 3.626-8.997 4.638a10.052 10.052 0 0 1-2.686 2.19 11.832 11.832 0 0 1-7.861 1.343 9.827 9.827 0 0 1-3.264-1.168Z" fill="#555452"/><path d="M37.353 51.133c-.879.713-1.509 1.519-1.922 2.356a6.22 6.22 0 0 0-.64 3.254 6.051 6.051 0 0 0 .93 2.8c.557.867 1.373 1.425 2.272 1.714.723.227 1.518.29 2.293.186a5.231 5.231 0 0 0 2.139-.775c.774-.496 1.384-1.219 1.683-2.138.28-.868.135-1.643-.248-2.221a2.546 2.546 0 0 0-.898-.827 2.443 2.443 0 0 0-1.157-.3c-.63.011-1.281.3-1.818.972a1.25 1.25 0 0 1-1.963-1.55c1.054-1.322 2.407-1.91 3.75-1.921a4.853 4.853 0 0 1 2.376.589c.723.392 1.353.96 1.818 1.663.764 1.167 1.064 2.686.527 4.349-.486 1.518-1.467 2.696-2.707 3.491a7.617 7.617 0 0 1-3.171 1.147 7.593 7.593 0 0 1-3.368-.29c-1.436-.454-2.737-1.363-3.626-2.747a8.624 8.624 0 0 1-1.322-3.967c-.072-.92 0-1.86.238-2.789-1.395.806-2.696 1.498-3.42 1.694a3.4 3.4 0 0 1-.371.073c-1.27.196-2.283-.32-3.079-1.281a6.998 6.998 0 0 1-.392-.527c-2.717 3.305-4.432 7.644-4.473 12.902l-.01 1.064-1.137.186a3.717 3.717 0 0 0-3.047 4.225l.01.072a3.74 3.74 0 0 0 1.519 2.417 3.712 3.712 0 0 0 2.779.63c.072-.01.144-.03.206-.04.093-.022.155-.042.217-.052l1.012-.3.465.95a11.916 11.916 0 0 0 5.744 5.568c2.22 1.013 5.185 1.591 9.131 1.126l.445-.052.382.248a7.53 7.53 0 0 0 2.737 1.054 8.896 8.896 0 0 0 3.182 0 9.122 9.122 0 0 0 3.006-1.064 7.44 7.44 0 0 0 2.231-1.9l.269-.352.444-.103c3.863-.878 6.477-2.397 8.233-4.101a11.939 11.939 0 0 0 3.574-7.148l.124-1.054 1.054-.052c.062 0 .144-.01.227-.02a3.74 3.74 0 0 0 2.634-1.55 3.713 3.713 0 0 0 .63-2.779l-.01-.072a3.723 3.723 0 0 0-1.529-2.355 3.667 3.667 0 0 0-2.737-.61l-1.126.207-.362-1.002c-1.787-4.938-4.845-8.46-8.501-10.681a5.599 5.599 0 0 1-.186.63c-.434 1.167-1.22 1.994-2.48 2.231-.134.02-.258.041-.371.052-.703.051-2.035-.135-3.502-.403a108.43 108.43 0 0 1-5.837-1.291l-.01.01c-.424.29-.888.475-1.364.547a3.52 3.52 0 0 1-1.466-.062l-.031-.03ZM34.14 67.32c1.188-.206 2.365.879 2.624 2.407.258 1.53-.496 2.934-1.684 3.14-1.188.207-2.366-.877-2.624-2.406-.258-1.529.496-2.934 1.684-3.14Zm14.472-2.468c1.188-.207 2.366.878 2.624 2.407.258 1.528-.496 2.933-1.684 3.14-1.188.207-2.365-.878-2.624-2.407-.258-1.529.496-2.934 1.684-3.14Zm-2.18 10.257a.837.837 0 0 1 1.106-.423c.423.186.61.682.423 1.105a5.891 5.891 0 0 1-1.756 2.231 5.79 5.79 0 0 1-2.593 1.137 5.752 5.752 0 0 1-2.82-.217 5.733 5.733 0 0 1-2.396-1.519.823.823 0 0 1 .03-1.177.823.823 0 0 1 1.178.03 4.226 4.226 0 0 0 1.715 1.085 4.12 4.12 0 0 0 2.015.145 4.17 4.17 0 0 0 1.849-.806 4.269 4.269 0 0 0 1.25-1.59Z" fill="#fff"/><path d="M34.037 44.791c-1.25-.29-2.861-.65-4.287-.909-1.27-.237-2.376-.392-2.903-.351-.082.01-.144.01-.196.02-.6.114-.981.548-1.209 1.168-.289.775-.35 1.818-.258 2.934a17.2 17.2 0 0 0 .207 1.611v.031c.083.527.196 1.064.33 1.58.29 1.085.692 2.046 1.22 2.686.423.506.929.785 1.528.692.052-.01.124-.02.196-.041.765-.207 2.52-1.198 4.205-2.231 1.033-.62 2.024-1.26 2.779-1.746a6.345 6.345 0 0 1-1.26-1.425 2.368 2.368 0 0 1-.135-.207l-4.256.723a.84.84 0 0 1-.971-.682.84.84 0 0 1 .682-.97l3.905-.672a3.252 3.252 0 0 1 .03-1.343c.093-.3.217-.6.393-.868Zm7.479 4.442c1.27.31 3.171.744 4.834 1.054 1.343.248 2.52.423 3.079.382.082-.01.144-.01.196-.02.6-.114.981-.538 1.209-1.158.289-.774.35-1.818.258-2.934a17.199 17.199 0 0 0-.207-1.61v-.022a16.728 16.728 0 0 0-.33-1.59c-.29-1.085-.693-2.046-1.22-2.686-.423-.506-.929-.785-1.528-.692-.052.01-.124.02-.196.041-.682.186-2.18 1.012-3.698 1.921-.92.548-1.87 1.147-2.666 1.653.259.196.475.434.651.713.238.362.403.785.475 1.25l3.905-.672a.84.84 0 0 1 .971.682.84.84 0 0 1-.682.971l-4.256.723c-.02.083-.041.155-.062.238a7.012 7.012 0 0 1-.733 1.756Zm-4.018.186c.02.01.04.01.051.02.052.021.114.042.166.052l.061.01c.269.073.527.083.775.042s.496-.145.713-.29c.062-.04.114-.082.176-.123.02-.021.051-.042.082-.062.475-.424.858-1.085 1.095-2.004.052-.217.093-.424.104-.64.04-.517-.042-.93-.238-1.24-.186-.29-.486-.486-.878-.59a2.068 2.068 0 0 0-.413-.061 6.083 6.083 0 0 0-1.488.072 5.346 5.346 0 0 0-1.425.424 2.982 2.982 0 0 0-.362.196c-.34.227-.558.517-.64.847-.083.351-.031.785.185 1.25.083.186.186.372.32.568.528.785 1.127 1.302 1.716 1.529Z" fill="#FC908D"/><path fill-rule="evenodd" clip-rule="evenodd" d="M30.111 74.522a2.583 2.583 0 0 1 0 5.165 2.583 2.583 0 0 1 0-5.165Zm25.082-5.279a2.585 2.585 0 0 0-.95 3.533 2.585 2.585 0 0 0 3.532.95 2.585 2.585 0 0 0 .95-3.532 2.585 2.585 0 0 0-3.532-.95Z" fill="#FFD8C9"/><path fill-rule="evenodd" clip-rule="evenodd" d="M39.44 92.836c-.692-.775-1.756-1.333-3.192-1.436h-.02a1.675 1.675 0 0 0-.331-.02c-.124 0-.186-.021-.248-.021-1.88 0-3.471.713-4.618 2.004-1.146 1.27-1.818 3.088-1.88 5.32-.02.165-.02.289-.02.392 0 .248.433.434.65.434.248 0 .227-.186.227-.434v-.351c.062-2.025.651-3.657 1.653-4.783.982-1.085 2.355-1.694 3.988-1.694h.227c.083 0 .165 0 .29.02 1.208.083 2.065.528 2.613 1.147.547.63.816 1.416.795 2.211 0 .041-.02.103-.02.165a3.79 3.79 0 0 1-1.23 2.531 3.704 3.704 0 0 1-.837.589c-.495-.33-1.084-.548-1.756-.65h-.082c-.083-.022-.166-.022-.248-.042-.651-.083-1.354-.041-1.467.878v.02c-.062.63.31.92.775 1.044.35.103.733.082 1.002.082.61-.041 1.188-.144 1.673-.35.207.165.372.35.527.547.589.774.857 1.776.816 2.778-.041 1.023-.413 2.005-1.105 2.697-.59.609-1.436.981-2.51.981-.125 0-.228 0-.352-.021-.857-.041-1.456-.31-1.818-.65a1.532 1.532 0 0 1-.506-1.126c0-.021 0-.042.02-.104.021-.434.228-.775.507-1.002.165-.124.351-.206.547-.248a.79.79 0 0 1 .569.083c.31.124.588.434.774.961.083.227.33.351.548.268.227-.082.35-.33.268-.547-.289-.775-.733-1.25-1.25-1.467a1.75 1.75 0 0 0-1.064-.145 1.972 1.972 0 0 0-.94.434 2.29 2.29 0 0 0-.857 1.612V105.108c0 .609.248 1.25.775 1.756.506.475 1.29.816 2.355.899h.413c1.333.02 2.376-.476 3.13-1.23.858-.857 1.312-2.066 1.374-3.274.041-1.188-.29-2.417-1.023-3.357l-.372-.434c.248-.166.476-.33.672-.527a4.642 4.642 0 0 0 1.508-3.089c0-.062.02-.124.02-.206a3.999 3.999 0 0 0-.97-2.81Zm64.975 8.791a.416.416 0 0 0-.568.227c-.041.145-.103.269-.145.372-.062.124-.124.227-.165.33-.248.455-.506.92-.857 1.271-.331.31-.692.506-1.188.506-.124 0-.248-.021-.372-.041a1.156 1.156 0 0 1-.589-.372c.041-.062.083-.124.103-.186.858-1.508 1.395-3.357 1.457-4.494v-.02l.021-.103c0-.651-.104-1.23-.372-1.633-.269-.433-.692-.671-1.292-.692-.774-.02-1.456.393-2.045 1.002l.165-.434a.423.423 0 0 0-.268-.547.423.423 0 0 0-.548.269c-.041.103-.082.227-.124.33-.196.506-.981 2.676-1.88 5.155-.227.444-.506.919-.857 1.27-.31.31-.692.506-1.188.506-.124 0-.248-.02-.351-.041a1.086 1.086 0 0 1-.61-.392c.92-1.55 1.57-3.492 1.591-4.783.02-.734-.186-1.27-.506-1.653-.393-.455-.94-.65-1.529-.671h-.02c-1.127 0-2.108.94-2.862 2.19-.361.609-.847 1.621-1.209 2.716a.413.413 0 0 0-.123.166l-.021.062c-.672 1.508-1.653 3.718-2.924 3.718h-.02c-.228 0-.372-.082-.455-.206-.103-.166-.144-.413-.144-.651v-.041c0-.352.082-.754.206-1.188.124-.455.29-.94.475-1.415.042-.104.083-.248.145-.393.31-.816.775-2.045.775-3.047 0-1.085-.475-1.922-1.922-1.922-.65 0-1.27.372-1.859.96l.269-.753c.124-.31.248-.65.434-1.209.061-.144.082-.248.123-.351.124-.392.331-.94.507-1.456a.423.423 0 0 0-.269-.548.429.429 0 0 0-.547.248c-.228.65-.393 1.147-.507 1.467l-.124.351c-.082.269-.248.713-.413 1.209-.103.248-.186.495-.392 1.084v.02c-.248.59-.858 2.315-1.467 4.03-.02 0-.02.02-.02.02v.021l-.022.021-1.435 4.028a.423.423 0 0 0 .268.548c.227.062.475-.042.548-.289.248-.693.857-2.407 1.436-4.009l.02-.02c.413-1.085 1.085-2.428 1.839-3.388.527-.651 1.105-1.126 1.611-1.126.796 0 1.064.475 1.064 1.064 0 .857-.433 1.983-.733 2.737a2.195 2.195 0 0 1-.145.393 19.093 19.093 0 0 0-.485 1.487c-.124.486-.227.961-.227 1.395v.062c0 .413.082.795.289 1.126.227.351.589.588 1.167.588h.02c1.065 0 1.891-.847 2.532-1.89.041 1.095.516 1.89 1.776 1.89.982 0 2.025-.836 2.78-1.859.268.227.567.393.898.496.186.041.372.062.568.062a2.35 2.35 0 0 0 1.198-.31c-.991 2.789-1.942 5.423-2.159 6.033a.422.422 0 0 0 .269.547.422.422 0 0 0 .547-.268c.207-.61 1.044-2.944 1.963-5.496.207.486.63.816 1.395.857h.082c1.188.042 2.231-.774 3.068-1.9.228.227.527.372.837.475.186.041.393.062.568.062a2.49 2.49 0 0 0 1.798-.754c.433-.434.754-.961 1.022-1.488.062-.124.124-.248.186-.351.062-.145.124-.269.165-.413a.416.416 0 0 0-.227-.568Zm-4.39-.021a.416.416 0 0 0-.527.31 3.419 3.419 0 0 0-.145.981c0 .393.063.713.186 1.002-.692 1.064-1.57 1.818-2.51 1.798h-.061c-.59-.021-.734-.496-.714-1.064a7.65 7.65 0 0 1 .31-1.457l.145-.351c.816-2.066 2.066-5.237 3.739-5.196.29.02.476.124.589.31.166.248.228.65.207 1.126V99.188c-.041.879-.413 2.232-1.002 3.472.021-.166.041-.352.103-.527a.455.455 0 0 0-.32-.527Zm-7.768 0c-.248-.062-.475.062-.527.31a3.419 3.419 0 0 0-.145.981c0 .372.042.672.166.961-.672.961-1.53 1.777-2.294 1.777-2.045 0-.082-4.928.713-6.219.589-1.023 1.333-1.777 2.108-1.777.371.021.692.145.898.393.207.227.33.568.31 1.064-.02.94-.413 2.293-1.023 3.512.021-.145.042-.31.104-.475a.44.44 0 0 0-.31-.527ZM78.435 91.71a1.172 1.172 0 0 0-.857-.506h-.041c-.228-.02-.434 0-.651.082a1.836 1.836 0 0 0-.63.352 1.997 1.997 0 0 0-.548.63s-.02.02-.02.041a2.702 2.702 0 0 0-.331.796c-.165.526-.186 1.063-.124 1.59-.372.042-.775.062-1.23.042-.94-.021-1.92-.269-2.778-.837-.754-.496-1.415-1.23-1.9-2.252a.42.42 0 0 0-.569-.207.414.414 0 0 0-.207.569c.569 1.187 1.333 2.024 2.211 2.592 1.023.672 2.17.961 3.254.982.506.02.96 0 1.395-.042.227.816.588 1.653.981 2.51.65 1.457 1.353 2.965 1.188 4.535v.042c-.165 1.508-.878 2.551-1.839 3.212-.96.651-2.17.899-3.254.775h-.02c-.083 0-.186-.021-.269-.021-1.023-.186-1.818-.692-2.335-1.394a3.355 3.355 0 0 1-.671-2.417c0-.083.02-.145.02-.207.145-.919.59-1.777 1.292-2.355.568-.506 1.353-.796 2.252-.713.475.041.94.31 1.25.733.31.414.485.94.434 1.529a.441.441 0 0 0 .413.475.418.418 0 0 0 .454-.392c.083-.816-.186-1.55-.589-2.128-.475-.61-1.167-1.023-1.88-1.085a3.794 3.794 0 0 0-2.882.92c-.836.712-1.373 1.756-1.55 2.84-.02.104-.04.186-.04.269a4.488 4.488 0 0 0 .836 3.027 4.485 4.485 0 0 0 2.882 1.714c.104.021.207.042.33.042h.022c1.27.124 2.675-.166 3.822-.94 1.146-.775 2.024-2.025 2.21-3.802v-.062c.186-1.776-.547-3.409-1.27-4.968-.372-.796-.713-1.57-.92-2.335.269-.083.507-.165.734-.29.774-.371 1.312-.98 1.611-1.859v-.04l.062-.249c.02-.082.02-.165.042-.248-.021-.351-.104-.681-.29-.95Zm-.61.92c0 .061-.02.123-.02.165-.02.061-.02.123-.041.186-.227.63-.61 1.084-1.188 1.373-.145.062-.33.124-.486.186a3.385 3.385 0 0 1 .083-1.208c.062-.207.145-.413.248-.568l.02-.042c.104-.165.228-.31.352-.413a1.03 1.03 0 0 1 .392-.207c.104-.04.207-.062.29-.04h.02c.124 0 .207.061.269.144a.834.834 0 0 1 .062.423Zm-12.003 8.976a.395.395 0 0 0-.547.227c-.61 1.457-1.312 2.51-2.066 3.296-.734.774-1.508 1.291-2.355 1.632-.124.062-.269.103-.413.165.289-.837.568-1.653.857-2.469.413-1.147.754-2.128 1.085-3.047.475-1.271 1.146-3.068 1.508-3.988v-.02l.02-.02a.423.423 0 0 0-.268-.548.398.398 0 0 0-.548.248v.02l-.02.02c-.352.94-1.044 2.738-1.488 4.009-.083.227-.186.475-.268.692 0 .021 0 .021-.021.041l-.02.062c-.672 1.508-1.633 3.719-2.904 3.719h-.01c-.227 0-.372-.083-.454-.207-.124-.165-.145-.413-.145-.65h-.02v-.042c.02-.268.082-.63.206-1.084.124-.455.29-.982.475-1.55.103-.31.33-.899.589-1.632.29-.795.692-1.921 1.126-3.11.083-.227-.02-.474-.248-.547-.227-.082-.475.02-.547.248-.393 1.044-.796 2.149-1.147 3.109-.258.703-.444 1.261-.558 1.581a.417.417 0 0 0-.072.114c-.062.144-.104.268-.166.371-.04.124-.103.228-.144.331-.248.455-.506.919-.858 1.271-.33.31-.692.506-1.208.506-.124 0-.227-.021-.351-.042-.248-.082-.475-.206-.63-.413.04-.041.061-.103.082-.144.858-1.509 1.395-3.358 1.457-4.494v-.02l.02-.104c0-.65-.103-1.23-.371-1.632-.27-.434-.693-.671-1.292-.692-.774-.02-1.456.392-2.045 1.002l.248-.692.475-1.312c.02-.103.083-.269.145-.475.124-.352.289-.858.454-1.333a.423.423 0 0 0-.268-.547.423.423 0 0 0-.548.268c-.165.455-.33.982-.454 1.374-.062.186-.124.351-.145.434l-.475 1.312c-.589 1.694-1.188 3.409-1.736 5.031v.02l-.03.083c-.672 1.508-1.653 3.698-2.914 3.698-.248 0-.392-.083-.475-.207-.103-.165-.145-.413-.145-.65v-.042c0-.268.083-.63.207-1.084.103-.455.269-.982.475-1.55.186-.568.475-1.312.734-2.066.413-1.105.795-2.148 1.022-2.737.083-.207-.02-.475-.248-.548a.429.429 0 0 0-.547.248c-.103.269-.227.568-.351.92a2.038 2.038 0 0 0-.269-.414 2.09 2.09 0 0 0-1.415-.712h-.186c-1.167.02-2.128.98-2.882 2.23-1.002 1.695-1.611 3.968-1.632 5.114-.02.651.082 1.229.372 1.632.268.434.671.672 1.27.692 1.044.021 1.901-.692 2.593-1.694v.021c0 .413.083.795.29 1.126.247.351.609.589 1.167.589h.02c.91 0 1.643-.61 2.242-1.446.072.826.465 1.446 1.529 1.508h.082c1.209.041 2.252-.796 3.089-1.942.248.248.547.413.878.506.186.041.372.062.568.062.713 0 1.27-.269 1.715-.672-.01.073-.01.145-.02.207v.062c0 .413.082.795.289 1.126.248.351.61.589 1.167.589h.041c.568 0 1.085-.248 1.529-.651-.165.475-.33.919-.486 1.394-.547.145-1.084.228-1.59.331-1.901.351-3.378.61-3.554 2.397v.289c.02.475.186.94.506 1.312.33.351.816.609 1.467.671.145.021.29.021.455.021.981-.041 1.632-.527 2.128-1.271.454-.651.733-1.487 1.022-2.314l.248-.712a6.9 6.9 0 0 0 1.085-.393 7.47 7.47 0 0 0 2.655-1.839c.816-.857 1.55-2.004 2.231-3.553.062-.269-.041-.537-.269-.62Zm-6.786 6.787c-.269.754-.527 1.529-.92 2.107-.33.486-.774.857-1.436.878-.123 0-.248 0-.35-.02-.435-.042-.714-.186-.92-.414-.186-.206-.269-.475-.29-.733v-.186c.125-1.126 1.313-1.353 2.841-1.612.372-.082.734-.144 1.126-.227l-.051.207Zm-5.29-6.787a.416.416 0 0 0-.526.31 3.419 3.419 0 0 0-.145.981c0 .372.062.672.165.94-.712 1.085-1.59 1.88-2.551 1.86H50.617c-.59-.021-.734-.496-.713-1.064.041-.455.165-.982.31-1.457l.145-.351c.816-2.066 2.066-5.237 3.739-5.196.29.02.475.124.589.31.165.248.227.65.206 1.126V99.188c-.041.838-.371 2.108-.919 3.296.02-.103.041-.227.083-.351a.449.449 0 0 0-.31-.527Zm-10.98 3.987c-.269-.02-.455-.124-.568-.31-.166-.268-.227-.65-.227-1.146.02-1.043.588-3.13 1.508-4.68.61-1.022 1.353-1.797 2.148-1.818.042 0 .083 0 .124.021.31.02.59.165.816.413.228.248.352.63.372 1.106 0 .04 0 .082-.02.144-.145.33-.29.734-.476 1.167-.816 2.077-2.024 5.145-3.677 5.103Zm-7.076-6.239c-.207.02-.527.02-.754-.041-.083-.02-.145-.042-.145-.103v-.021c.042-.165.29-.145.506-.124.062 0 .145.02.228.041h.062c.268.041.506.104.733.186a3.034 3.034 0 0 1-.63.062Zm-.713-4.762c.145-.31.372-.568.589-.754.207-.186.434-.31.65-.351.218-.042.393-.269.352-.486a.442.442 0 0 0-.506-.372 2.706 2.706 0 0 0-1.064.527c-.31.29-.589.63-.796 1.023-.568 1.126-1.043 2.634-1.508 4.214-.92 3.027-1.921 6.291-3.946 7.076-.186.083-.392.124-.568.166a2.448 2.448 0 0 1-1.508-.186 1.778 1.778 0 0 1-.92-.94v-.021a1.74 1.74 0 0 1-.103-.351 2.47 2.47 0 0 1 .062-1.105v-.021c.124-.455.372-.857.692-1.167.31-.31.672-.507 1.044-.569a1.13 1.13 0 0 1 .588.021.423.423 0 0 0 .527-.31c.062-.227-.062-.475-.289-.527a2.262 2.262 0 0 0-.981-.041c-.548.103-1.064.393-1.488.795-.434.434-.775.961-.94 1.571v.02a3.498 3.498 0 0 0-.082 1.467c.04.186.082.351.144.506.02.021.02.021.02.042.27.63.734 1.105 1.354 1.394a3.344 3.344 0 0 0 2.025.269c.248-.042.485-.124.733-.207 2.407-.94 3.471-4.411 4.452-7.644.465-1.498.92-2.975 1.467-4.039ZM29.936 33.459l-.558.072c.031.351.02.682-.041.971a2.18 2.18 0 0 1-.434.878 1.892 1.892 0 0 1-.65.537 2.086 2.086 0 0 1-.786.228c-.268.02-.547-.01-.826-.093a2.333 2.333 0 0 1-.785-.424 2.363 2.363 0 0 1-.59-.661 2.169 2.169 0 0 1-.278-.785 1.934 1.934 0 0 1 .041-.806c.073-.268.197-.516.383-.754.227-.29.475-.496.754-.62.268-.124.568-.206.878-.258l-.093-.6c-.186.022-.362.063-.538.115-.175.051-.34.113-.506.196-.165.082-.32.196-.475.32-.155.134-.31.29-.465.486-.248.31-.413.64-.506.991a2.654 2.654 0 0 0 .29 2.045 2.993 2.993 0 0 0 1.704 1.353c.351.104.702.135 1.043.104.341-.031.672-.134.992-.31.32-.165.599-.403.837-.713.154-.196.268-.382.361-.568.093-.186.155-.372.196-.558.042-.185.073-.382.073-.568.02-.186.01-.382-.021-.578Zm71.762-.661a.923.923 0 0 1 .321-.155.859.859 0 0 1 .361.01c.124.031.248.093.372.176.124.082.238.196.351.33.176.217.3.455.382.713.083.258.124.547.114.868l.589-.01c0-.352-.052-.682-.145-.982-.093-.3-.268-.61-.516-.92a1.949 1.949 0 0 0-.527-.485 1.8 1.8 0 0 0-.589-.248 1.463 1.463 0 0 0-.599 0 1.301 1.301 0 0 0-.548.269 1.55 1.55 0 0 0-.392.444c-.083.155-.134.33-.134.527 0 .196.031.403.103.64.072.238.176.496.32.775.124.258.217.486.279.672.062.185.093.34.093.475a.69.69 0 0 1-.083.34.791.791 0 0 1-.237.259.788.788 0 0 1-.734.155c-.268-.073-.516-.248-.743-.527a2.583 2.583 0 0 1-.465-.899c-.083-.3-.103-.65-.073-1.023l-.588-.02c-.031.434.01.837.124 1.198.113.372.3.723.568 1.054.165.206.34.382.537.516.196.135.392.217.599.269.207.041.413.041.61 0 .206-.041.402-.145.578-.279.331-.258.496-.568.506-.94.011-.372-.113-.837-.382-1.384a5.65 5.65 0 0 1-.3-.692 1.645 1.645 0 0 1-.093-.496.73.73 0 0 1 .083-.351.955.955 0 0 1 .258-.28Zm-4.276-1.88 3.863-.806-.516-.486-3.182.692.547-3.202-.537-.506-.62 3.905-1.466 1.55.444.423 1.467-1.57Zm-2.355-2.986c.227-.3.402-.61.506-.96.103-.341.144-.693.103-1.044a2.612 2.612 0 0 0-.31-1.012 2.925 2.925 0 0 0-.744-.868 2.662 2.662 0 0 0-1.022-.516 2.481 2.481 0 0 0-1.064-.052 2.848 2.848 0 0 0-.992.351c-.31.186-.589.424-.816.713-.227.3-.403.62-.506.96-.104.342-.145.693-.104 1.044.031.351.135.682.31 1.012.176.32.424.61.744.868s.661.424 1.023.517a2.48 2.48 0 0 0 1.064.051 2.847 2.847 0 0 0 1.808-1.064Zm-.507-.382a2.558 2.558 0 0 1-.66.589 2.436 2.436 0 0 1-.776.29 1.992 1.992 0 0 1-.816-.042 1.969 1.969 0 0 1-.774-.393 1.99 1.99 0 0 1-.558-.66 2.21 2.21 0 0 1-.238-.796c-.02-.28 0-.548.093-.827a2.498 2.498 0 0 1 1.075-1.374c.247-.144.506-.237.774-.289.269-.041.537-.03.816.042.28.072.538.196.775.392.238.186.434.413.558.661.134.258.207.517.238.796.03.279 0 .547-.093.826a2.21 2.21 0 0 1-.414.785Zm-5.475-6.436 1.57.9.28-.486-3.668-2.108-.279.486 1.57.899-2.406 4.183.526.3 2.407-4.174Zm-6.88-1.146a2.58 2.58 0 0 0 .145-1.075 2.595 2.595 0 0 0-.279-1.002 2.728 2.728 0 0 0-.681-.826 3.212 3.212 0 0 0-1.033-.568l-1.767-.6-1.735 5.104 1.766.599a3.12 3.12 0 0 0 1.168.176c.382-.021.723-.104 1.043-.248.32-.145.599-.351.837-.62a2.57 2.57 0 0 0 .537-.94Zm-.599-.196a2.136 2.136 0 0 1-1.064 1.24 1.938 1.938 0 0 1-.816.195c-.3.01-.609-.03-.93-.144l-1.198-.403 1.374-4.04 1.199.404c.32.113.599.258.826.454.227.197.403.413.517.661.124.248.186.507.206.785.02.28-.02.569-.114.848Zm-6.982-.517L72.03 14.41l-.558-.103-.93 5.31.589.103.764-4.349 2.665 4.958.476.083.93-5.31-.59-.103-.753 4.256Zm-7.552-5.423-.568-.042-2.882 5.217.62.052.754-1.374 2.923.238.517 1.466.65.052-2.014-5.61Zm.651 3.533-2.448-.197 1.446-2.644 1.002 2.84Zm-11.3-1.663a.8.8 0 0 1 .03-.352.83.83 0 0 1 .196-.31c.093-.092.197-.165.33-.227.135-.062.29-.103.466-.134.279-.031.547-.02.806.03.268.063.537.177.805.342l.29-.517c-.3-.175-.61-.31-.92-.372a2.899 2.899 0 0 0-1.043-.03 2.082 2.082 0 0 0-.692.206 1.77 1.77 0 0 0-.517.382 1.37 1.37 0 0 0-.31.506 1.326 1.326 0 0 0-.051.61c.03.227.093.413.185.568.094.155.218.279.383.382.165.104.361.186.599.238.238.062.516.103.826.124.29.02.527.062.723.103.186.041.341.103.455.165a.635.635 0 0 1 .248.248.828.828 0 0 1 .103.33.834.834 0 0 1-.238.714c-.196.196-.475.32-.836.361a2.328 2.328 0 0 1-1.013-.062c-.3-.093-.609-.237-.919-.454l-.32.495c.361.248.723.414 1.095.507a3.08 3.08 0 0 0 1.198.051c.269-.03.506-.103.723-.206.217-.104.393-.228.537-.383a1.37 1.37 0 0 0 .31-.526c.062-.197.083-.413.052-.64-.052-.414-.238-.724-.548-.92-.31-.196-.774-.32-1.384-.382-.3-.021-.558-.052-.754-.104a1.579 1.579 0 0 1-.475-.175.746.746 0 0 1-.258-.248 1.779 1.779 0 0 1-.083-.32Zm-2.749-.848-3.801.858 1.188 5.258 3.832-.868-.124-.537-3.243.733-.414-1.838 2.872-.651-.124-.537-2.871.65-.403-1.797 3.202-.723-.114-.547Zm-5.867 4.742.888 2.262.568-.217-1.962-5.02-.568.217.867 2.231-2.892 1.136-.868-2.23-.568.216 1.963 5.02.568-.216-.889-2.263 2.893-1.136Zm-7.944 1.023 1.57-.9-.279-.485-3.667 2.108.28.485 1.57-.899 2.406 4.184.527-.3-2.407-4.193Zm-2.19 3.667a2.86 2.86 0 0 0-.816-.723c-.31-.186-.64-.3-.981-.351a2.79 2.79 0 0 0-1.054.051 2.738 2.738 0 0 0-1.023.517c-.32.247-.568.547-.743.867-.176.33-.28.672-.31 1.023-.031.351 0 .702.103 1.043.103.341.269.672.496.961.227.3.506.537.806.723.31.186.64.3.981.351a2.79 2.79 0 0 0 1.054-.051 2.738 2.738 0 0 0 1.022-.517c.32-.248.569-.547.744-.867.176-.331.279-.672.31-1.023.031-.351 0-.703-.103-1.043a2.64 2.64 0 0 0-.486-.961Zm-.496.403c.186.248.33.506.414.774.082.28.113.548.093.827-.021.268-.104.537-.238.785s-.32.475-.568.661a2.09 2.09 0 0 1-.775.382 2.231 2.231 0 0 1-.826.042 2.072 2.072 0 0 1-.785-.29 2.383 2.383 0 0 1-.662-.588 2.568 2.568 0 0 1-.413-.775 2.265 2.265 0 0 1-.093-.827c.02-.268.104-.537.238-.785s.32-.475.568-.66a2.09 2.09 0 0 1 .775-.383 2.072 2.072 0 0 1 1.611.248c.259.144.475.34.661.589Zm-5.537 8.264 2.635-2.52-.393-.404-2.19 2.097-3.336-3.491-.445.423 3.73 3.895Z" fill="#fff"/></svg>