<svg width="28" height="28" fill="none" xmlns="http://www.w3.org/2000/svg"><path opacity=".4" d="m20.146 9.988-4.977 4.007a2.594 2.594 0 0 1-3.203 0l-5.02-4.007" stroke="#A3A3A3" stroke-width="1.5" stroke-linecap="round" stroke-linejoin="round"/><path clip-rule="evenodd" d="M8.036 3.5h11a5.783 5.783 0 0 1 4.176 1.855 5.853 5.853 0 0 1 1.547 4.321v7.616a5.854 5.854 0 0 1-1.547 4.322 5.783 5.783 0 0 1-4.177 1.855h-11c-3.406 0-5.702-2.772-5.702-6.177V9.676C2.333 6.271 4.63 3.5 8.036 3.5Z" stroke="#A3A3A3" stroke-width="1.5" stroke-linecap="round" stroke-linejoin="round"/></svg>