<svg width="140" height="139" fill="none" xmlns="http://www.w3.org/2000/svg"><path d="M63.127 6.206c1.024-8.075 12.722-8.075 13.745 0 .826 6.51 9.396 8.33 12.797 2.72 4.22-6.96 14.906-2.202 12.557 5.59-1.894 6.283 5.194 11.432 10.583 7.69 6.686-4.642 14.513 4.05 9.198 10.215-4.285 4.968.095 12.556 6.541 11.33 7.996-1.522 11.611 9.603 4.247 13.072-5.935 2.796-5.019 11.51 1.368 13.01 7.923 1.863 6.701 13.496-1.437 13.67-6.56.14-9.267 8.473-4.043 12.442 6.481 4.924.633 15.054-6.872 11.904-6.05-2.54-11.912 3.971-8.754 9.722 3.918 7.134-5.545 14.01-11.12 8.079-4.493-4.781-12.497-1.217-11.951 5.321.677 8.111-10.765 10.543-13.445 2.858-2.16-6.196-10.922-6.196-13.082 0-2.68 7.685-14.122 5.253-13.445-2.858.546-6.538-7.458-10.102-11.951-5.321-5.575 5.931-15.038-.945-11.12-8.079 3.158-5.751-2.704-12.262-8.754-9.722-7.505 3.15-13.353-6.98-6.872-11.904 5.224-3.969 2.517-12.302-4.043-12.442-8.138-.174-9.36-11.807-1.437-13.67 6.387-1.5 7.303-10.214 1.368-13.01-7.364-3.47-3.749-14.594 4.247-13.072 6.446 1.226 10.826-6.361 6.541-11.33-5.315-6.164 2.512-14.857 9.198-10.215 5.389 3.742 12.477-1.407 10.583-7.69-2.349-7.792 8.337-12.55 12.557-5.59 3.401 5.61 11.971 3.79 12.796-2.72Z" fill="#4E7D64"/></svg>