<svg width="89" height="50" fill="none" xmlns="http://www.w3.org/2000/svg"><path d="M75.093 6.205H63.01a1.674 1.674 0 0 0-1.674 1.667v30.43c0 .459.188.876.491 1.178.304.302.722.49 1.183.49h2.215l.002-.013.002-.022.01-.081.005-.034.009-.064.008-.058.006-.043.009-.057.008-.048.01-.058v-.006l.016-.09.001-.005.018-.096.013-.066.007-.035.012-.062.01-.043.01-.05.014-.06.01-.044.011-.047.015-.06.001-.005.021-.084.003-.009.025-.092.025-.089v-.005l.02-.07.01-.03.017-.058.017-.055.01-.035.02-.061.015-.047.013-.037.02-.06v-.001l.032-.09.001-.004.031-.086.002-.003.016-.044.023-.062.015-.039.02-.05.019-.047.02-.053.018-.04.032-.076.006-.016.022-.05.045-.104.013-.03.006-.014.01-.02.031-.066.023-.05.014-.03.028-.06.025-.048.016-.034.031-.061.013-.025.008-.016.042-.08.002-.003.044-.083.006-.01.013-.024.036-.064.013-.024.037-.065.018-.03.031-.054.026-.044.02-.034.033-.053.002-.005.046-.074.004-.006.05-.079.004-.008.046-.07.006-.01.084-.125.03-.043.025-.036.046-.065.01-.013.046-.065.015-.02.005-.007.056-.075.004-.005.062-.082.014-.019.046-.058.024-.03.042-.053.021-.026.047-.059.017-.02.049-.058.016-.019.008-.01.06-.07.003-.002.059-.068.012-.014.05-.055.007-.008.04-.042.034-.038.028-.03.046-.05.023-.024.045-.046.023-.023.01-.01.066-.067a9.022 9.022 0 0 1 6.39-2.638 9.021 9.021 0 0 1 6.39 2.638l.065.066.01.01.023.024.045.046.023.025.046.049.028.03.034.038.04.042.006.008.05.055.013.014.059.068.002.002.06.07.008.01.016.02.05.058.015.02.048.058.021.026.041.052.025.031.045.058.014.019.063.082.004.005.056.075.005.007.015.02.046.065.01.013.046.065.024.036.03.043.03.044.055.082.005.009.047.07.004.008.05.08.004.005.046.074.002.005.032.053.02.034.026.044.032.053.018.031.036.065.014.024.036.064.013.024.006.01.044.083.002.002.042.08.008.017.012.025.032.061.016.034.024.049.028.058.014.03.024.05.03.067.01.02.007.014.013.03.045.103.022.051.006.016.032.075.038.094.019.047.02.05.014.039.023.062.016.044.001.003.031.087.002.003.031.09v.001l.02.06.013.037.015.047.02.062.01.034.018.055.017.057.009.031.02.07v.005l.026.089.024.092.002.01.022.083.001.004.015.061.01.047.01.044.014.06.01.05.01.043.012.062.007.035.013.066.018.096.001.006.016.09v.005l.01.058.008.048.009.057.007.043.007.058.01.064.004.034.01.081.002.022.002.013h2.092c.46 0 .878-.188 1.181-.49.304-.302.492-.72.492-1.178v-3.443h-3.114c-.348 0-.665-.143-.895-.371h-.002a1.263 1.263 0 0 1-.373-.895v-3.532c0-.349.143-.665.373-.895l.002.001c.23-.23.548-.372.896-.372h3.113v-6.822L76.476 6.918a1.66 1.66 0 0 0-.593-.535 1.681 1.681 0 0 0-.784-.178h-.006Zm-57.06 43.454a.683.683 0 0 1-.682-.682c0-.375.306-.68.683-.68h7.412a9.06 9.06 0 0 1-1.102-.936 8.969 8.969 0 0 1-2.59-5.347H15.79a4.083 4.083 0 0 1-2.89-1.196 4.055 4.055 0 0 1-1.2-2.88v-5.826c0-1.122.46-2.141 1.2-2.88a4.085 4.085 0 0 1 2.89-1.196h4.515V1.022c0-.564.46-1.022 1.025-1.022h31.037c.566 0 1.025.458 1.025 1.022v27.014h3.857c.742 0 1.44.199 2.04.546V7.874c0-1.023.418-1.95 1.092-2.622a3.718 3.718 0 0 1 2.631-1.089h12.082c.618 0 1.203.144 1.728.418.523.273.975.67 1.33 1.181l10.617 15.251c.145.177.232.402.232.647v16.644c0 1.023-.418 1.951-1.092 2.623a3.718 3.718 0 0 1-2.63 1.088h-2.093a8.969 8.969 0 0 1-2.589 5.347c-.34.34-.709.653-1.101.935h5.59a.683.683 0 1 1 0 1.363h-8.409a9.085 9.085 0 0 1-2.47.34 9.082 9.082 0 0 1-2.47-.34h-8.901a.683.683 0 0 1-.684-.682c0-.376.306-.681.684-.681h6.084a9.014 9.014 0 0 1-1.102-.935 8.965 8.965 0 0 1-2.589-5.347h-2.215a3.717 3.717 0 0 1-2.802-1.27 4.086 4.086 0 0 1-2.961 1.27H39.713a8.969 8.969 0 0 1-2.589 5.347c-.34.34-.709.653-1.101.935h17.159a.682.682 0 1 1 0 1.363H33.205a9.082 9.082 0 0 1-2.47.34 9.082 9.082 0 0 1-2.47-.34H18.037l-.002-.001Zm40.773 0a.682.682 0 1 1 0-1.363h1.125a.682.682 0 1 1 0 1.363h-1.125ZM43.19 24.623a.512.512 0 1 1 0-1.022h3.855a.512.512 0 1 1 0 1.022H43.19Zm-20.834 3.412h28.987V2.043H41.174v8.14a.682.682 0 0 1-1.11.533l-3.197-2.239-3.275 2.265a.683.683 0 0 1-1.069-.558h-.002V2.043H22.354v25.992Zm36.934 4.077c0-.558-.23-1.067-.6-1.436-.371-.369-.88-.598-1.44-.598h-41.46c-.56 0-1.07.23-1.44.598-.37.37-.601.878-.601 1.436v5.826c0 .558.23 1.066.6 1.435.37.37.88.599 1.441.599h5.966a8.97 8.97 0 0 1 2.59-5.347 9.025 9.025 0 0 1 6.39-2.639 9.022 9.022 0 0 1 6.39 2.639 8.965 8.965 0 0 1 2.588 5.347h17.535c.56 0 1.07-.23 1.44-.599.37-.368.6-.877.6-1.435v-5.826ZM86.95 33.84v-4.021h-3.113a.244.244 0 0 0-.173.07v.002a.244.244 0 0 0-.073.172v3.533c0 .066.028.128.072.172a.247.247 0 0 0 .174.072h3.113ZM.513 21.475a.512.512 0 1 1 0-1.021h.525a.512.512 0 1 1 0 1.02H.513Zm4.72 0a.512.512 0 1 1 0-1.022h10.714a.512.512 0 1 1 0 1.022H5.232Zm2.533-6.809a.512.512 0 1 1 0-1.022h8.18a.512.512 0 1 1 0 1.022h-8.18Zm26.12-12.622v6.842l2.564-1.773a.683.683 0 0 1 .81-.018l2.545 1.781V2.044h-5.918Zm31.335 24.18a.512.512 0 1 1 0-1.022h2.538a.512.512 0 1 1 0 1.021H65.22ZM30.733 37.96c.84 0 1.602.34 2.152.889l.039.042a3.015 3.015 0 0 1-.039 4.245l-.002.002a3.037 3.037 0 0 1-2.15.889c-.84 0-1.6-.34-2.152-.889l-.04-.042a3.017 3.017 0 0 1 .042-4.246l-.002-.001a3.04 3.04 0 0 1 2.152-.889Zm1.186 1.852a1.676 1.676 0 0 0-1.186-.49c-.463 0-.882.188-1.186.49v-.002l-.002.002c-.302.3-.489.718-.489 1.182 0 .448.175.854.46 1.152l.032.03c.302.302.722.489 1.185.489a1.667 1.667 0 0 0 1.677-1.671c0-.448-.175-.854-.461-1.154l-.03-.028Zm3.755-3.742a6.976 6.976 0 0 0-4.94-2.04c-1.93 0-3.677.78-4.942 2.04a6.93 6.93 0 0 0-2.046 4.924 6.93 6.93 0 0 0 2.047 4.924 6.975 6.975 0 0 0 4.94 2.04c1.93 0 3.676-.78 4.94-2.04a6.93 6.93 0 0 0 2.047-4.924 6.93 6.93 0 0 0-2.046-4.924Zm38.533 1.89c.84 0 1.6.34 2.152.889l.038.042a3.015 3.015 0 0 1-.038 4.245l-.003.002a3.037 3.037 0 0 1-2.15.889c-.84 0-1.6-.34-2.151-.889l-.04-.042a3.018 3.018 0 0 1 .041-4.246l-.001-.001a3.04 3.04 0 0 1 2.152-.889Zm1.185 1.852a1.677 1.677 0 0 0-2.371 0l-.002-.002v.002c-.302.3-.49.718-.49 1.182 0 .448.176.854.461 1.152l.03.03c.305.302.724.489 1.187.489.464 0 .884-.187 1.187-.488.303-.302.49-.72.49-1.183 0-.448-.176-.854-.462-1.154l-.03-.028Zm-8.172 1.182a6.93 6.93 0 0 0 2.046 4.924 6.977 6.977 0 0 0 4.94 2.04c1.93 0 3.677-.78 4.941-2.04a6.933 6.933 0 0 0 2.046-4.924 6.933 6.933 0 0 0-2.046-4.925 6.977 6.977 0 0 0-4.94-2.04c-1.93 0-3.677.78-4.941 2.04a6.933 6.933 0 0 0-2.047 4.925ZM81.075 20.98 73.718 9.963h-7.813V20.98h15.171ZM74.65 8.907l8.243 12.34a.682.682 0 0 1-.543 1.095H65.222a.682.682 0 0 1-.684-.68V9.281c0-.375.306-.68.684-.68h8.86v.001a.68.68 0 0 1 .568.305Z" fill="#2D2D2D"/></svg>