<svg width="57" height="57" fill="none" xmlns="http://www.w3.org/2000/svg"><path d="M57 11.039H40.349a6.384 6.384 0 0 0 1.94-4.6 6.44 6.44 0 0 0-12.881 0v4.6h-1.84v-4.6a6.44 6.44 0 0 0-12.881 0c0 1.795.74 3.422 1.941 4.6H0v12.867h2.76V57h51.48V23.906H57V11.039ZM31.26 6.45c0-2.536 2.064-4.6 4.6-4.6 2.536 0 4.6 2.064 4.6 4.6 0 2.535-2.064 4.599-4.6 4.599h-4.6v-4.6Zm-14.71 0c0-2.536 2.064-4.6 4.6-4.6 2.536 0 4.6 2.064 4.6 4.6v4.599h-4.6c-2.536-.011-4.6-2.075-4.6-4.6ZM1.84 22.066V12.88h22.059v9.187H1.839ZM4.6 55.161V23.906h19.298v31.255H4.6Zm21.139 0V12.879h5.52v42.282h-5.52Zm26.66 0H33.1V23.906h19.3v31.255Zm2.76-33.095H33.1V12.88h22.06v9.187Z" fill="#2D2D2D"/></svg>